<?xml version="1.0" encoding="utf-8"?>
<!-- Generator: Adobe Illustrator 27.6.1, SVG Export Plug-In . SVG Version: 6.00 Build 0)  -->
<svg version="1.1" id="Layer_1" xmlns="http://www.w3.org/2000/svg" xmlns:xlink="http://www.w3.org/1999/xlink" x="0px" y="0px"
	 viewBox="0 0 331.1 233.6" style="enable-background:new 0 0 331.1 233.6;" xml:space="preserve">
<style type="text/css">
	.st0{fill:#CE6EE5;}
	.st1{fill:#EE5A28;}
	.st2{fill:#00B4D8;}
	.st3{fill:#FFFFFF;}
	.st4{fill:none;}
	.st5{font-family:'Arial-BoldMT';}
	.st6{font-size:14px;}
	.st7{font-size:10px;}
</style>
<g id="Layer_2_00000021084762358000623700000013508293103849457341_">
</g>
<g id="Layer_2_00000000213099901391399220000007384092782359652224_">
</g>
<rect x="40.1" y="23" class="st0" width="13.9" height="184.2"/>
<rect x="54" y="66.9" class="st1" width="14.8" height="140.3"/>
<rect x="68.8" y="105.1" class="st2" width="14.4" height="102.2"/>
<rect x="96.9" y="156.2" class="st0" width="14.3" height="51.7"/>
<rect x="111.2" y="156.2" class="st1" width="14" height="51.1"/>
<rect x="125.3" y="151.4" class="st2" width="14.2" height="55.8"/>
<rect x="153.7" y="182.2" class="st0" width="14.1" height="25.1"/>
<rect x="168" y="161.3" class="st1" width="14.9" height="46"/>
<rect x="182.9" y="157.1" class="st2" width="13.9" height="50.2"/>
<rect x="211" y="193.3" class="st0" width="14.5" height="14"/>
<rect x="225.5" y="188.7" class="st1" width="14.2" height="18.7"/>
<rect x="239.7" y="162.2" class="st2" width="14.2" height="45.2"/>
<rect x="268.4" y="201.9" class="st0" width="13.6" height="5"/>
<rect x="282" y="197.1" class="st1" width="14.9" height="10.3"/>
<rect x="296.8" y="193.6" class="st2" width="13.8" height="13.8"/>
<g id="Layer_1_00000176721577552767581490000006123784158554380472_">
	<g>
		<path class="st3" d="M175.3,208.3c-49.2,0-98.5,0-147.7,0c-2.6,0-2.7-0.1-2.7-2.7c0-3.5-0.1-7,0-10.4c0-1.4-0.5-1.8-1.7-1.7
			c-1.3,0.1-2.5,0-3.8,0c-0.5,0-0.9-0.1-1-0.8s0.4-0.9,1-0.9c1.4-0.1,2.8-0.2,4.2-0.1c1,0,1.3-0.4,1.3-1.3c0-3.3,0-6.6,0-9.8
			c0-0.9-0.4-1.2-1.2-1.1c-1.2,0-2.4,0-3.6-0.1c-0.6,0-1.6,0.2-1.7-0.9c0-1.2,0.9-0.9,1.6-0.9c1.1-0.1,2.3-0.1,3.4,0
			c1,0,1.5-0.2,1.4-1.3c0-3.3,0-6.6,0-9.8c0-1-0.4-1.3-1.3-1.3c-1.2,0.1-2.4,0-3.6,0c-0.7,0-1.6,0.3-1.6-0.9c0-1.1,0.9-0.7,1.5-0.8
			c1.3-0.1,2.5-0.1,3.8-0.1c0.8,0,1.2-0.3,1.2-1.2c0-3.3,0-6.6,0-9.8c0-1-0.4-1.3-1.3-1.3c-1.4,0-2.8,0-4.2,0
			c-0.8,0-1.3-0.3-1.3-1.1s0.7-0.8,1.3-0.8c0.1,0,0.3,0,0.4,0c5.1-0.1,5.1-0.1,5.1-5.1c0-1.7-0.1-3.5,0-5.2c0.1-1.2-0.4-1.5-1.5-1.5
			c-1.3,0-2.5-0.1-3.8-0.2c-0.6,0-1.2-0.2-1.2-1c0.1-0.8,0.7-0.6,1.2-0.6c1.3,0,2.5-0.1,3.8,0c1,0,1.4-0.3,1.4-1.4
			c-0.1-3.1-0.1-6.3,0-9.4c0-1.2-0.4-1.5-1.5-1.5c-1.3,0-2.7,0-4,0c-0.7,0-1.2-0.3-1.2-1c0.1-0.7,0.7-0.7,1.2-0.7c1.3,0,2.7-0.1,4,0
			c1,0,1.4-0.3,1.4-1.4c0-3.3,0-6.6,0-9.8c0-1-0.4-1.3-1.3-1.2c-1.3,0-2.5,0-3.8,0c-0.6,0-1.3,0.1-1.3-0.8c0-1,0.7-1,1.4-1
			c1.2,0,2.4-0.1,3.6,0c1,0,1.5-0.2,1.4-1.3c-0.1-3.3,0-6.7,0-10c0-1.1-0.4-1.4-1.4-1.4c-1.3,0-2.7,0-4-0.1c-0.6,0-1.1-0.2-1.1-0.9
			c0-0.8,0.5-0.8,1.1-0.8c1.2,0,2.4-0.1,3.6-0.1c1.3,0.1,1.8-0.3,1.8-1.7c-0.1-3-0.1-6,0-9c0-1.3-0.4-1.7-1.6-1.6
			c-1.3,0.1-2.5,0-3.8,0c-0.7,0-1.2-0.2-1.1-1s0.4-1,1.2-0.9c0.9,0.1,1.9,0,2.8,0.1c2,0.3,2.7-0.4,2.6-2.5c-0.2-2.7-0.1-5.5,0-8.2
			c0-1.2-0.3-1.7-1.6-1.6c-1.3,0.1-2.5,0-3.8,0c-0.6,0-1.1-0.2-1.1-0.9c0-0.8,0.6-0.8,1.1-0.9c1.1-0.1,2.2-0.2,3.2-0.1
			c1.8,0.2,2.3-0.6,2.2-2.3c-0.1-2.9-0.1-5.8,0-8.6c0-1.2-0.4-1.5-1.5-1.5c-1.3,0-2.7-0.1-4-0.1c-0.6,0-1.1-0.1-1-0.9
			c0-0.8,0.6-0.8,1.1-0.8c0.9,0,1.9,0,2.8,0c2.5,0,2.5,0,2.5-2.6s-0.1-5.2,0-7.8c0.1-1.5-0.3-2.1-1.9-1.9c-1.2,0.1-2.4,0-3.6,0
			c-0.6,0-1-0.1-1.1-0.9c0-0.8,0.5-0.9,1-0.9c1.4-0.1,2.8-0.1,4.2-0.1c0.9,0,1.3-0.3,1.3-1.3c0-3.1,0-6.3,0-9.4c0-1-0.4-1.4-1.4-1.4
			c-1.3,0-2.7-0.1-4-0.2c-0.6,0-1-0.3-1-1c0.1-0.6,0.6-0.7,1-0.7c1.3-0.1,2.5-0.1,3.8-0.1c1.1,0,1.5-0.3,1.5-1.5
			c0-3.3,0.1-6.6,0.2-9.8c0-0.8-0.4-2,0.9-2s0.9,1.3,0.9,2c0,25,0,50,0,75.1c0,39.9,0,79.7,0,119.6c0,1.5,0.3,2.1,1.9,2.1
			c2.9-0.1,5.9-0.1,8.8-0.1c1.3,0,1.8-0.3,1.7-1.7c-0.1-1.3,0-2.7,0-4c0-58.5,0-116.9,0-175.4c0-0.7,0.1-1.5,0-2.2
			c-0.1-1.4,0.6-1.8,1.9-1.8c4,0,8,0,12-0.1c1.6,0,1.9,0.7,1.9,2c0,13.4,0.1,26.9,0.1,40.3c0,1.8,0.5,2.1,2.1,2.1
			c3.5-0.1,7.1,0,10.6-0.1c1.5,0,1.9,0.4,1.9,2c-0.1,11.4,0,22.7,0,34.1c0,1.6,0.4,2.2,2.1,2.1c3.1-0.1,6.3,0,9.4,0
			c2.7,0,2.8,0.1,2.8,2.8c0,21.1,0,42.1,0,63.2c0,11.6,0,23.1,0,34.7c0,1.5,0.3,2,1.9,1.9c2.7-0.1,5.5-0.1,8.2,0
			c1.3,0,1.7-0.4,1.7-1.7c-0.1-9,0-17.9,0-26.9c0-6.8,0.2-13.6,0.2-20.5c0-1.7,0.5-2.3,2.3-2.3c8,0,16-0.2,24.1-0.2
			c1.5,0,2.3-0.3,2-2c-0.3-1.8,0.6-2.4,2.4-2.4c3.8,0.1,7.6,0,11.4-0.1c1.6,0,2.6,0.1,2.1,2.2c-0.3,1.3-0.1,2.7-0.1,4
			c0,15.9,0,31.8,0,47.8c0,1.6,0.4,2.3,2.1,2.2c2.9-0.1,5.7-0.1,8.6,0c1.4,0,1.8-0.4,1.8-1.8c0-7,0-14,0.1-21.1
			c0-2.3,0.3-2.6,2.7-2.7c3.1,0,6.3-0.1,9.4,0c1.5,0.1,1.9-0.5,1.9-1.9c0-5.4,0.1-10.7,0.1-16.1c0-2,0.6-2.7,2.7-2.7
			c3.5,0.1,6.9-0.1,10.4-0.1c1.3,0,2.1-0.3,1.9-1.8c-0.3-1.9,0.5-2.5,2.5-2.4c3.7,0.2,7.4,0.1,11,0c1.8-0.1,2.3,0.6,2.3,2.3
			c0,15.3,0,30.6,0,46c0,1.7,0.3,2.4,2.2,2.3c2.9-0.1,5.7-0.1,8.6,0c1.3,0,1.8-0.3,1.7-1.7c0-3.5,0.2-7.1,0.1-10.6
			c0-1.8,0.9-2.5,2.6-2.5c3.3,0,6.7-0.1,10,0c1.5,0,2.1-0.4,1.9-1.9c-0.2-1.8,0.7-2.2,2.4-2.2c3.1,0.1,6.3-0.1,9.4,0
			c1.6,0,2-0.4,2-2c0-7.5,0.2-15,0.2-22.5c0-1.9,0.7-2.4,2.5-2.4c3.7,0.1,7.3,0,11,0c2.5,0,2.6,0.2,2.6,2.6c0,13.2,0,26.5,0,39.7
			c0,3.5,0,3.5,3.5,3.5c2.4,0,4.8,0,7.2,0c1.1,0,1.6-0.3,1.5-1.5c0-0.1,0-0.1,0-0.2c0.1-4.7,0.1-4.7,4.8-4.7c2.6,0,5.2-0.1,7.8,0
			c1.2,0,1.6-0.4,1.6-1.6c0-3.2,0.1-3.2,3.3-3.2c3.1,0,6.3-0.1,9.4,0c1.1,0,1.8-0.2,1.7-1.5c-0.2-1.1,0.5-1.3,1.4-1.3
			c4.4,0,8.8-0.1,13.2-0.2c1.2,0,1.4,0.6,1.4,1.6c0,3.3,0.1,6.7,0,10c-0.1,1.9,0.4,2.8,2.5,2.6c3-0.2,6-0.1,9,0
			c0.7,0,1.9-0.5,1.9,0.8c0,1.2-1.1,0.8-1.9,0.9c-3,0-6,0-9,0C268.1,208.3,221.7,208.3,175.3,208.3z M53.3,115.2
			c0-14.4,0-28.8,0-43.1c0-15.5,0-31,0-46.6c0-1.5-0.3-2-1.9-1.9c-2.9,0.1-5.7,0-8.6-0.1c-1.4-0.1-1.9,0.4-1.9,1.8
			c0.1,3.7,0.2,7.5,0.2,11.2c0,42.8,0,85.6,0,128.4c0,13.2,0,26.5,0,39.7c0,1.4,0.3,2.1,1.9,2c2.6-0.1,5.2-0.2,7.8,0
			c2,0.1,2.5-0.6,2.5-2.6C53.2,174.4,53.3,144.8,53.3,115.2z M67.7,137L67.7,137c0-9.1,0-18.2,0-27.3c0-13.3,0-26.6,0.1-39.9
			c0-1.7-0.5-2.2-2.1-2.1c-2.7,0.1-5.3,0-8,0c-2.5,0-2.5-0.1-2.5,2.6c0,37.9,0,75.8,0,113.8c0,6.9,0,13.8-0.1,20.7
			c0,1.5,0.3,2,1.9,2c2.6-0.1,5.2,0,7.8,0c2.8,0,2.9,0,2.9-2.8C67.7,181.6,67.7,159.3,67.7,137z M69.7,155.9L69.7,155.9
			c0,16.2,0,32.4,0,48.6c0,1.6,0.4,2.3,2.1,2.2c2.7-0.1,5.5-0.1,8.2,0c1.5,0,2.1-0.3,2.1-2c0-32.4,0-64.7,0-97.1
			c0-1.4-0.5-1.7-1.7-1.6c-3,0.1-6,0.1-9,0c-1.5-0.1-1.7,0.5-1.7,1.8C69.7,123.8,69.7,139.8,69.7,155.9z M138.6,179.5L138.6,179.5
			c0.1-8.4,0.1-16.8,0.1-25.3c0-1.3-0.3-1.8-1.7-1.7c-3.1,0.1-6.1,0-9.2,0c-1.2,0-1.6,0.2-1.6,1.5c0,17,0,34,0,50.9
			c0,1.4,0.5,1.7,1.8,1.7c2.9-0.1,5.7-0.1,8.6,0c1.6,0.1,2.1-0.4,2.1-2C138.5,196.2,138.6,187.9,138.6,179.5z M97.8,181.7
			L97.8,181.7c0.1,7.7,0.1,15.4,0.1,23.1c0,1.4,0.4,1.9,1.8,1.9c2.9-0.1,5.9-0.1,8.8,0c1.1,0,1.7-0.2,1.7-1.6
			c0-15.5,0-30.9,0.1-46.4c0-1.2-0.4-1.7-1.6-1.7c-3,0-6,0-9-0.1c-1.5-0.1-1.9,0.4-1.9,1.9C97.9,166.4,97.8,174.1,97.8,181.7z
			 M112.2,181.6c0,7.8,0,15.5,0,23.3c0,1.3,0.3,1.8,1.7,1.7c2.9-0.1,5.9-0.1,8.8,0c1.2,0,1.6-0.3,1.6-1.6c0-15.5,0-31,0.1-46.5
			c0-1.2-0.4-1.5-1.5-1.5c-2.9,0.1-5.9,0.1-8.8,0c-1.5-0.1-1.9,0.3-1.9,1.9C112.2,166.5,112.2,174.1,112.2,181.6z M181.7,184.4h0.1
			c0-6.8,0-13.6,0-20.4c0-1.3-0.4-1.7-1.7-1.7c-3.1,0.1-6.3,0-9.4-0.1c-1.6-0.1-2.2,0.4-2.1,2.1c0.2,6,0.4,12,0.2,18
			c-0.2,7.5,0,15.1-0.1,22.6c0,1.3,0.4,1.8,1.7,1.8c3.2-0.1,6.4-0.1,9.6,0c1.4,0,1.6-0.6,1.6-1.8C181.7,198,181.7,191.2,181.7,184.4
			z M196,182.4L196,182.4c0-7.6,0-15.1,0.1-22.7c0-1.3-0.3-1.7-1.7-1.7c-2.9,0.1-5.7,0.1-8.6,0c-1.5-0.1-1.9,0.4-1.9,1.9
			c0.1,15,0.1,29.9,0.1,44.9c0,1.5,0.5,1.8,1.8,1.8c2.7-0.1,5.5-0.1,8.2,0c1.7,0.1,2.1-0.6,2.1-2.2C195.9,197.1,196,189.8,196,182.4
			z M252.9,184.8C253,184.8,253,184.8,252.9,184.8c0.1-6.7,0.1-13.5,0.1-20.2c0-1.3-0.3-1.8-1.6-1.7c-3.1,0.1-6.3,0-9.4-0.1
			c-1.3-0.1-1.6,0.4-1.6,1.6c0.1,3.7,0.1,7.5,0.1,11.2c0,9.7,0,19.4,0,29.1c0,1.5,0.3,2.2,2,2.1c2.9-0.2,5.7-0.1,8.6,0
			c1.4,0,1.8-0.4,1.8-1.8C252.9,198.2,252.9,191.5,252.9,184.8z M166.7,194.9L166.7,194.9c0-3.5,0-6.9,0-10.4c0-0.9,0-1.5-1.2-1.5
			c-3.2,0.1-6.4,0-9.6,0c-1,0-1.3,0.4-1.3,1.3c0,6.9,0.1,13.9,0.1,20.8c0,1.1,0.4,1.5,1.5,1.5c3-0.1,6,0,9,0c1.1,0,1.5-0.3,1.5-1.5
			C166.7,201.7,166.7,198.3,166.7,194.9z M226.5,198h0.1c0,2.4,0,4.8,0,7.2c0,1,0.2,1.5,1.3,1.4c3.1-0.1,6.1,0,9.2,0
			c0.9,0,1.5-0.2,1.5-1.3c0-4.7,0-9.5,0-14.2c0-1.1-0.4-1.4-1.4-1.4c-3.1,0-6.3,0-9.4-0.1c-1.1,0-1.4,0.4-1.3,1.4
			C226.5,193.3,226.5,195.7,226.5,198z M224.5,200.2c0.1,0,0.1,0,0.2,0c0-1.6-0.1-3.2,0-4.8c0.1-1.1-0.3-1.5-1.5-1.5
			c-3.3,0.1-6.5,0-9.8,0c-1,0-1.4,0.3-1.4,1.3c0.1,3.4,0.1,6.8,0.1,10.2c0,1,0.4,1.3,1.3,1.3c3.3,0,6.5,0,9.8,0
			c0.9,0,1.3-0.3,1.3-1.3C224.5,203.6,224.5,201.9,224.5,200.2z M303.7,194.5c0-0.1,0-0.1,0-0.2c-1.7,0-3.3,0-5,0
			c-0.8,0-1.3,0.1-1.3,1.1c0.1,3.3,0.2,6.7,0.2,10c0,1,0.5,1.2,1.4,1.2c3.2,0,6.4,0,9.6,0c1,0,1.3-0.4,1.3-1.3
			c0-3.1,0.1-6.3,0.2-9.4c0-1-0.3-1.5-1.3-1.4C307.1,194.6,305.4,194.5,303.7,194.5z M289.4,197.4L289.4,197.4c-1.6,0-3.2,0-4.8-0.1
			c-1.2-0.1-1.5,0.4-1.4,1.5c0.1,2.1,0.1,4.1,0,6.2c0,1.2,0.4,1.6,1.6,1.6c3.1-0.1,6.1-0.1,9.2,0c1.2,0,1.7-0.3,1.6-1.6
			c-0.1-1.9,0-3.9,0.1-5.8c0.1-1.6-0.5-2-2-1.9C292.4,197.5,290.9,197.4,289.4,197.4z M275.4,202.3L275.4,202.3c-1.7,0-3.3,0-5-0.1
			c-2-0.1-1.3,1.4-1.4,2.3c-0.1,1-0.3,2.2,1.5,2.1c2.7-0.1,5.3,0,8,0c3.1,0,3,0,2.9-3c0-1.1-0.4-1.4-1.4-1.3
			C278.5,202.3,276.9,202.3,275.4,202.3z"/>
	</g>
</g>
<rect x="1.8" y="31.2" class="st4" width="16.2" height="11.3"/>
<text transform="matrix(1 0 0 1 1.8355 41.1793)" class="st3 st5 st6">60</text>
<rect x="1.8" y="17" class="st4" width="16.2" height="11.3"/>
<text transform="matrix(1 0 0 1 1.8355 26.9881)" class="st3 st5 st6">65</text>
<rect x="1.8" y="45.3" class="st4" width="16.2" height="11.3"/>
<text transform="matrix(1 0 0 1 1.8355 55.371)" class="st3 st5 st6">55</text>
<rect x="1.8" y="59.5" class="st4" width="16.2" height="11.3"/>
<text transform="matrix(1 0 0 1 1.8355 69.5626)" class="st3 st5 st6">50</text>
<rect x="1.8" y="87.9" class="st4" width="16.2" height="11.3"/>
<text transform="matrix(1 0 0 1 1.8355 97.946)" class="st3 st5 st6">40</text>
<rect x="1.8" y="73.7" class="st4" width="16.2" height="11.3"/>
<text transform="matrix(1 0 0 1 1.8355 83.7543)" class="st3 st5 st6">45</text>
<rect x="1.8" y="102.1" class="st4" width="16.2" height="11.3"/>
<text transform="matrix(1 0 0 1 1.8355 112.1381)" class="st3 st5 st6">35</text>
<rect x="1.8" y="116.3" class="st4" width="16.2" height="11.3"/>
<text transform="matrix(1 0 0 1 1.8355 126.3298)" class="st3 st5 st6">30</text>
<rect x="1.8" y="144.7" class="st4" width="16.2" height="11.3"/>
<text transform="matrix(1 0 0 1 1.836 154.7126)" class="st3 st5 st6">20</text>
<rect x="1.8" y="130.5" class="st4" width="16.2" height="11.3"/>
<text transform="matrix(1 0 0 1 1.836 140.521)" class="st3 st5 st6">25</text>
<rect x="1.8" y="158.9" class="st4" width="16.2" height="11.3"/>
<text transform="matrix(1 0 0 1 1.836 168.9048)" class="st3 st5 st6">15</text>
<rect x="1.8" y="173.1" class="st4" width="16.2" height="11.3"/>
<text transform="matrix(1 0 0 1 1.836 183.096)" class="st3 st5 st6">10</text>
<rect x="1.8" y="187.3" class="st4" width="16.2" height="11.3"/>
<text transform="matrix(1 0 0 1 6.025 197.2876)" class="st3 st5 st6">5</text>
<rect x="32.8" y="209.1" class="st4" width="57.3" height="23.5"/>
<text transform="matrix(1 0 0 1 41.9495 218.4237)" class="st3 st5 st7">Estados </text>
<text transform="matrix(1 0 0 1 44.4495 230.4237)" class="st3 st5 st7">Unidos</text>
<rect x="89.6" y="209.1" class="st4" width="57.3" height="23.5"/>
<text transform="matrix(1 0 0 1 100.1386 224.4237)" class="st3 st5 st7">Canadá</text>
<rect x="146.8" y="209.1" class="st4" width="57.3" height="23.5"/>
<text transform="matrix(1 0 0 1 162.9502 224.4237)" class="st3 st5 st7">Cuba</text>
<rect x="204" y="209.1" class="st4" width="57.3" height="23.5"/>
<text transform="matrix(1 0 0 1 218.7037 224.4237)" class="st3 st5 st7">Brasil</text>
<rect x="260.8" y="209.1" class="st4" width="57.3" height="23.5"/>
<text transform="matrix(1 0 0 1 272.4995 224.4237)" class="st3 st5 st7">México</text>
</svg>
