<?xml version="1.0" encoding="UTF-8"?>
<svg id="Layer_2" data-name="Layer 2" xmlns="http://www.w3.org/2000/svg" viewBox="0 0 3240 1080">
  <defs>
    <style>
      .cls-1 {
        fill: #757373;
      }

      .cls-2 {
        fill: #fff;
      }

      .cls-3 {
        fill: #bcbab8;
      }

      .cls-4 {
        fill: #c9c9c9;
      }

      .cls-5 {
        fill: #aba9a8;
      }

      .cls-6 {
        fill: #ce6ee5;
      }

      .cls-7 {
        opacity: .3;
      }

      .cls-8 {
        fill: none;
      }
    </style>
  </defs>
  <rect x="2.5" width="3240" height="1080"/>
  <path class="cls-2" d="m535.5,684.94v-25.13c0-11.28,14.76-11.81,26.04-11.81h2058.64c11.28,0,28.51-1.17,28.51,10.11v25.13c0,11.28-17.23,19.91-28.51,19.91H561.55c-11.28,0-26.04-6.93-26.04-18.21Z"/>
  <path class="cls-2" d="m629.97,1080l179.23-376.85h81.96l-104.94,285.7s-26.81,43.66,14.55,91.15h-170.81Z"/>
  <path class="cls-2" d="m2556.99,1080l-179.23-376.85h-81.96s104.94,285.7,104.94,285.7c0,0,26.81,43.66-14.55,91.15h170.81Z"/>
  <g class="cls-7">
    <g>
      <path class="cls-4" d="m2246.63,256.46s-11.32-9.04-13.34-14.2c0,0-3.54-.7-5.04.31,0,0-3.7,1.76-6.8-3.39,0,0-1.91-9.03-11.36-8.83,0,0-3.96-.78-6.78-7.93,0,0-7.97-14.01-22.74-8.25,0,0-12.16,2.38-9.2,24.82,0,0-1.61,3.8,2.07,7.66l7.7,9.31s7.88,12.26,10.17,12.17c0,0,9.52,5.01,14.2-3.38,0,0,5.99-3.48,9.28-2.07,0,0,4.42.11,5.01,1.52l.08.12s1.29.04,1.75-.09c0,0,20.26,3.22,22.43,3.75.12-.08-2.25-.12,2.58-11.51Z"/>
      <path class="cls-3" d="m2428.52,595.93c-.68-5.02-1.03-7.75-1.59-11.54-.51-4-.44-7.91-2.2-11.61-.67-1.54-1.47-2.99-2.27-4.45-5.04-12.36-6.97-25.72-11.43-38.29-1.23-5.33-2.87-10.74-5.14-15.73-1.64-4.33-3.9-8.24-6.87-11.85-.34-.5-.75-1.12-1.09-1.62l-.25-.92s-14.29-24.78-13.44-31.87l-.08-.12c.04-.21,0-.54.04-.75-.09-1.21-.38-2.46-.8-3.62-.29-.71-.63-1.21-.92-1.91-.13-.46-.17-.79-.42-1.17-2.27-4.45-5.78-8.6-9-12.59-5.65-7.06-11.46-13.83-17.78-20.27-18.38-26.02-46.53-67.37-42.67-72.14,0,0,45.37-12.74,42.65-28.65,0,0,1.32-3.96-1.44-6.99,0,0,40.28,20.36,28.87,46.48,0,0-.9,4.59,11.6,29.12,0,0,18.74,9.85,22.73,52.96,0,0,8.13,14.8,14.28,20.45.46.96,1.05,1.83,1.63,2.7,1.55,3.66,5.21,11.52,7.09,13.52l.42.62c.55,1.08,1.3,2.2,1.84,3.29.63,1.21,1.13,2.5,1.76,3.7.63,1.21,1.26,2.41,1.76,3.7,1.47,4.08,2.4,8.16,3.29,12.45-.04.21.04.33.13.46,0,.54.21,1.12.21,1.67-.04.21.04.33,0,.54-.12.08-.04.21-.04.21,0,.54-.08.96-.08,1.5-.08.42.04.87.17,1.33,0,.54.04.87.05,1.42.07,6.83.67,13.66,1.95,20.41.3,2.87.73,5.66.82,8.5.14,3.17-.06,6.37-.13,9.5-.03,3.46-.43,7.17.08,10.62.3,2.33.97,4.41,1.52,6.58h0s.13,1,.55,2.16l.08.12c0,.54.42,1.17.76,1.66,1.26,2.41,3.94,5.32,8.73,6.26l.08.12.17.25.34.5.59.87.17.25c.17.25.13.46.29.71l.08.12c.04.33.21.58.17.79.08.12.04.33.13.46h0c-.08.42-.04.75-.12,1.17-.04.21-.08.42-.08.42q-.04.21-.08.42c-.08.42-.37.79-.45,1.21-.12.08-.04.21-.17.29-1.99,1.88-4.11,3.31-4.11,3.31,0,0,.08.12-.04.21-7.46,7.11-7.76,20.78-7.76,20.78-.44,3.92.19,7.83.83,11.75.34,2.12.77,4.37.98,6.58-.04.21,0,.54-.04.75l-.04.21h0c0,.54,0,1.08,0,1.62-.08.42-.08.96-.16,1.38-.04.21-.08.42-.08.42-.17.29-.21.5-.25.71-.04.21-.21.5-.25.71-1.04.88-2.45.93-4.67-.48-1.46-1.37-2.93-2.74-4.47-4.23-1.13-.87-2.01-1.91-2.97-3.07,0,0-12.86-27.26-13.45-34.03Z"/>
      <path class="cls-8" d="m2312.68,355.6s46.75-12.58,42.65-28.65c0,0,1.49-3.71-1.44-6.99,0,0-42.55-74.93-99.97-63.69"/>
      <path class="cls-2" d="m2353.81,319.83s-40.46-71.27-90.43-64.85l-12.83,1.92-3.92-.44s-5.13,11.23-2.17,11.59c0,0,11.12-.41,15.4-3.47,0,0,25.44-5.51,27.28,21.49,0,0-4.93,18.52-18.75,23.81,0,0-2,.8-3.92-.44,0,0-6.84-1.02-6.52-5.39,0,0-.13-2.08,2.74-2.93,0,0,2.08-.13,3.33-.97,0,0,4.16-1.89,4.41-2.6,0,0,1.37-2.55-1.18-2.83,0,0-12.91,2.34-17.58,1.31,0,0-13.13-.41-14.63-1.03l-5.67-.36-2.46-.16s.1,4.46,4.74,8.94c0,0,11.11,9,25.96,13.32l16.43,4.53s19.22,4.64,28.32,21.69c0,0,.05,1.96,3.94,6.4,0,0,2.75,1.41,4.4,6.28,0,0,1.42-.05,1.79-.3,0,0,31.43-7.36,41.34-22.52.54,0,4.13-9.47-.05-13Z"/>
      <path class="cls-3" d="m2093.71,289.87l.21.58s-7.31,6.36-12.62.88l-10.77-19s11.52,5.83,22.84,3.29c0,0,14.66-.8,20.15-3.95,0,0,21.13-10.57,52.15-4.27,0,0,13.72,3.99,19.42,2.51,1.08,0,2-.26,2.96-.72.87-.04,1.75-.09,2.54-.26,2.54-.26,4.91-1.31,7.49-1.78.12-.08.25-.17.33-.04,5.37-.89,11.53-1.96,15.36-3.26.42.08.75.04,1.21-.09.33-.04.67-.09,1-.13.75.04,1.29.04,1.92.16.96.08,2,.28,2.88.24.33-.04.54,0,.79-.17,7.46,1.14,19.84,3.14,22.8,4.04,0,0,8.62-.36,15.4-3.47,0,0,25.23-6.09,27.28,21.49,0,0-2.78,15.8-16.42,22.97,0,0-3.2,1.97-5.33.69,0,0-1.63-.54-1.88-.37,0,0-4.25-.94-5.26-3.52,0,0-1.26-2.41,1.03-4.13,0,0,1-.67,2-.8,0,0,1.87-.17,3.5-1.26l2.29-1.17s1.96-.59,1.78-2.46c0,0,.12-1.17-1.25-1.33,0,0-.17-.25-.87.04,0,0-12.37,2.34-16.7,1.27,0,0-13.75-.53-14.5-1.12l-8.46-.47s-16.29-.82-21.22-2.22c0,0-6.59-1.73-7.84-2.51,0,0-8.05-2.55-15.96-.86,0,0-18.86,4.52-25.57,3.96,0,0-36.2,2.42-50.47-2.66.17.25-6.17-1.1-12.21-.12Z"/>
      <path class="cls-1" d="m2176.16,216.75s.21-12.08,14.31-17.22c0,0,17.85-6.02,30.59,3.52,0,0,4.01-19.89,16.04-11.14,0,0,13.46-.17,13.09,14.91,0,0-.26,19.54-15.37,13.76l-3.5.18s3.01,3.41,1.61,8.33c0,0-2.09,10.63.55,13.21,0,0-3.67-.61-5.04.31,0,0-3.83,1.85-6.8-3.39,0,0-1.86-8.7-11.36-8.83,0,0-3.08-.28-6.11-6.39,0,0-3.61-7.53-11.2-10.21,0,0-6.05-2.27-12,.46l-.92.25c-.21-.04-2.54.8-3.91,2.26h0Z"/>
    </g>
  </g>
  <g id="Capa_5" data-name="Capa 5">
    <path class="cls-1" d="m2583.47,207.4s13.94-19.17,9.19-31.21c0,0,12.36-1.58,10.14-11.56-2.22-9.98-14.26-11.25-14.26-11.25,0,0-6.97-3.01-7.29,2.69,0,0-2.85,1.27-.63,4.59,0,0-1.9-1.58-2.85-1.27l.48,9.51s3.49,22.34,2.85,25.82l1.9,12.99.48-.32Z"/>
  </g>
  <path class="cls-3" d="m2540.38,403.85s-5.07,23.45,3.01,51.33c0,0,7.13,43.72,5.54,44.2,0,0,4.12,27.41,2.53,32.64,0,0-.88,3.66,3.72,24.41,0,0,6.18,58.46,2.06,65.59,0,0,3.96,17.74-15.37,22.97,0,0-16.63,8.24,2.69,8.87,0,0,25.82-4.44,30.89-12.04,0,0,5.23-1.58,5.23-10.46l-.79-29.47s-.95-17.11-2.53-19.33l-4.99-25.84-2.22-37.7-3.96-30.73s-12.99-53.23-10.14-62.26c0,.32-10.14-22.97-15.68-22.18Z"/>
  <path class="cls-5" d="m2564.84,658.78s-20.83,6.51-16.8-5.2c.41-1.2,1.45-2.08,2.69-2.29,6.79-1.18,29.96-6.32,29.01-21.2-1.11-17.43-1.43-35.17-5.23-56.4,0,0-4.04,4.1-7.36-39.46,0,0,0-22.65-3.33-34.54,0,0-15.53-55.29-12.2-81.11,0,0-6.97-54.34,34.54-42.46,0,0,20.75,3.01,18.22,24.4,0,0-.32,16.79-4.12,29.63,0,0-1.43,22.34-1.9,27.41,0,0-6.34,42.46.32,57.98,0,0,15.13,33.13,10.06,41.68,0,0-6.97,68.6-1.43,76.04,0,0,9.66,13.78-7.76,17.74,0,0-7.19,2.85-16.46,4.95,0,0-10.16,1.58-12.24,1.84-.16,0-3.94.17-6,.99Z"/>
  <path class="cls-6" d="m2551.16,416.05s-5.86-11.25-10.77-12.2c0,0-2.85-2.85-3.01-6.02,0,0,0-2.38-2.06-10.3,0,0-4.12-18.85-4.44-34.38,0,0-1.58-27.09-1.58-30.58,0,0-2.38-20.91-1.74-30.26,0,0-2.38-25.19,14.42-40.71,0,0,12.67-10.61,12.36-13.31,0,0,6.34-4.28,6.34-2.06,0,0-6.65,32.64,5.7,36.75,0,0,11.41,8.55,20.6-2.85,0,0,7.45-10.77,4.91-18.38,0,0-.48-3.17-2.38-7.92l-1.9-6.5-.63-2.06-.16-1.27-.48-1.74-.32-1.74s6.02,5.7,6.65,7.29c0,0,3.17,6.97,4.91,23.92,0,0,2.22,21.55,1.9,27.72,0,0-1.11,9.66-4.75,14.73,0,0-9.51,16.79-9.98,31.37,0,0-.48,6.5,3.01,11.25,0,0,8.4,7.45,10.61,15.84,0,0,7.92,28.52,6.18,37.07l-.48,5.23-.32,1.27-.16.16.32-3.8s.16-3.33.16-3.64c0,0,2.85-18.54-18.38-22.97,0,0-18.06-6.5-27.57,5.86.32.16-7.92,8.87-6.97,34.22Z"/>
  <path class="cls-3" d="m2560.66,236.39s-6.97,32.48,5.7,36.75c0,0,10.93,8.55,20.6-2.85,0,0,7.29-10.46,4.91-18.38,0,0-1.11-4.91-2.38-7.92l-2.53-8.4s-.16-1.11-.48-2.53l-.48-2.22s-2.85-18.69-2.69-21.39c0,0-1.27-19.64-2.38-25.98,0,0-1.27-27.72-.16-29.31,0,0,3.17-4.59-.79-45.31,0,0-4.44-32.48-10.46-49.11,0,0-3.17-14.42-2.22-18.38,0,0-2.22-9.82-4.75-2.53,0,0-3.64,11.09-3.01,14.26,0,0-1.11,2.53-3.49,1.27,0,0-4.12-3.17-3.01,2.38,0,0,6.18,16.79,5.7,21.55,0,0,1.43,15.05.48,20.28,0,0-4.12,38.02,1.58,55.29,0,0,1.43,21.23.16,23.29.48,0-2.38,54.34-.32,59.25Z"/>
  <path class="cls-3" d="m2562.72,160.83s-11.41.79-19.49,6.5c-3.64,2.53-6.65,6.18-7.76,11.09,0,0-2.22,7.76-1.58,12.99,0,0-1.11,11.56,1.43,15.53,0,0-.48,12.36,5.54,13.62,0,0,15.37,1.43,15.68,3.96,0,0,2.85,11.09-1.9,13.94,0,0,5.86-4.12,7.13-2.85,0,0-.95-12.83-.63-14.89l.48-22.5.63-17.9.63-13.78.63-5.07.16-.79-.95.16Z"/>
  <path class="cls-3" d="m2561.45,212.47c-5.39-15.53-1.43-34.38-8.71-49.9,0-.16-.16-.16-.16-.32-16.63,3.64-16.32,17.9-16.32,17.9.63,5.7-3.96,11.72-3.96,11.72-2.38,4.44-2.69,9.98-2.69,9.98.79.63.63,4.44.63,4.44-3.33,8.08,9.66,13.47,9.66,13.47,2.06-.32,3.49.16,4.59.79,5.07-3.49,11.09-5.39,16.95-8.08Z"/>
  <path class="cls-1" d="m2561.77,164.31v-4.12c-2.53,0-11.41.48-18.22,5.7,0,0,8.87.48,8.87,3.96,0,0,2.69,4.75,4.75,5.07,0,0,3.49,2.69,3.49,7.29,0,0,.63-10.93,1.27-17.43-.16,0-.16-.32-.16-.48Z"/>
</svg>