<?xml version="1.0" encoding="utf-8"?>
<!-- Generator: Adobe Illustrator 27.0.0, SVG Export Plug-In . SVG Version: 6.00 Build 0)  -->
<svg version="1.1" id="Capa_1" xmlns="http://www.w3.org/2000/svg" xmlns:xlink="http://www.w3.org/1999/xlink" x="0px" y="0px"
	 viewBox="0 0 1080 1080" style="enable-background:new 0 0 1080 1080;" xml:space="preserve">
<style type="text/css">
	.st0{stroke:#000000;stroke-miterlimit:10;}
	.st1{display:none;fill:#D43616;}
	.st2{opacity:0.3;}
	.st3{fill:#757373;}
	.st4{fill:#BCBAB8;}
	.st5{fill:#FFFFFF;}
	.st6{fill:#C9C9C9;}
	.st7{fill:none;}
	.st8{fill:#CE6EE5;}
</style>
<rect x="-18.6" y="-14.3" class="st0" width="1138.9" height="1141.6"/>
<g id="Layer_2">
	<g id="Capa_2_00000041977206964686540760000001219414656090201534_">
		<rect x="-128.2" y="-81.1" class="st1" width="1225.2" height="1178.7"/>
		<g>
			<g class="st2">
				<path class="st3" d="M647.4,698.7c0,0-3.7,18-28.2,9.9l-1.9-0.6c0,0-4.3,13.3-15.8,4.7c0,0-16.1-18.3,5.9-18.3
					c0,0,3.1,0.3,3.1-1.9c0,0-1.3-17.2,1.8-19.9L647.4,698.7z"/>
				<path class="st4" d="M564.5,601.4c0,0-25.2-20-10.1-34.1c0,0,16.8-13.1,25.2-13.9c0,0,5.5-4.6,6.7-8.1c0,0,20-24.2,27.5-25.2
					c0,0,0.8-4.6-4.6-9.3c0,0-21.4-12.7-26.4-56.1c0,0-1-5.9-7.7-9.9c0,0-11.3-10.9,1-14.1c0,0,13.9-3,14.7-5.4
					c0,0,18.2-10.7,23.8-5.4c0,0,6.3,2.6-2.6,9.3c0,0-17.4,6.7-15.1,14.9c0,0-1.4,9.5,9.7,19c0,0,33.7,41.8,33.1,53.5
					c0,0,2,8.7-5.9,21c0,0-22.6,29.1-37.7,38.1c0,0-7.7,5-5.7,11.1L564.5,601.4z"/>
				<path class="st5" d="M604,662.6c-12-0.3-19.9-17.4-19.9-17.4c-4.3-11.8-20.1-40-20.1-40c-2.1-3,2.4-5.9,2.4-5.9
					c3.8-3.5,12.9-7,12.9-7c6.7-0.5,9.9-12.1,9.9-12.1l3.2,18c0,8.9,11,11.3,11,11.3s12,3,17.1,10.3s0,0,0,0"/>
				<path class="st4" d="M631,666.8c0,0,5.1-7.9,12.7-4.6c0,0,4.6,3.1,5.3,8.4c0,0,1.9,7.9,3.4,9.9c0,0,3.6,12-1.7,15.6
					c0,0-4.1,7-14.9,1.4c0,0-3.8-6.3-10.6-8.9c0,0-4.6,0.2-5.8-6.3c0,0,0-2.6-4.3-2.2c0,0-2.6-3.1-3.6-6.7c0,0,0.2-6.5-1.4-8.4
					c0,0-1.3-2.4,3.1-4.5c0,0,8.2-3.2,9.8-4.9c0.1-0.1,0.2-0.2,0.2-0.3C624.1,653.9,630.9,663.1,631,666.8z"/>
				<path class="st4" d="M680.2,572.3l-0.3-19.7c0,0-9.6,15.2-12.5,14.3c0,0-23.3,14.3-26.9,32.9c0,0-3,7.7-8.6,9.1
					c-0.3,0.2-0.6,0.3-0.8,0.5c-0.2,0.1-0.4,0.3-0.6,0.4c-3.8,3.5-20.4,19.4-24.9,31.3c0,0-3,1.5-2.1-4.2c0,0-0.6-6.6-6.3-0.6
					c0,0-6.3,12.5,6.9,26.3c0,0,21.5-0.3,23-16.1c0,0,17.9-15.8,18.5-28.1c0-0.5,0-0.9,0.1-1.3c1.3-1.3,28.6-29.7,29.5-37
					L680.2,572.3z"/>
				<path class="st5" d="M604,662.6c0,0,13.1,1.3,20-6.9c0,0,3.1-4.1,1.1-3.8c-2,0.4-18.5,12.8-22.8,8.5c0,0-1.2-0.9-1.7-1.6
					s-0.5-0.7-0.5-0.7l2.6,4L604,662.6z"/>
			</g>
			<g>
				<path class="st6" d="M571.4,510.9c0,0,2.9,9.2,2.1,12.8c0,0,1.7,1.7,2.9,1.7c0,0,2.7,0.4,2.5,4.4c0,0-2.3,5.7,3,9.1
					c0,0,1.9,1.9,0.8,6.9c0,0-0.8,10.7,9.5,13c0,0,7.6,3.2,14.3-10.3c0,0,2.3-1.5,1.7-5l-0.8-8c0,0,0.2-9.7-1.1-10.5
					c0,0-3.4-6.3-9.1-3.4c0,0-4.6-0.3-5.9-2.3c0,0-2.4-1.7-2.2-2.7v-0.1c0,0-0.7-0.5-1-0.6c0,0-10-9.3-11-10.4
					C577,505.5,578.3,506.4,571.4,510.9z"/>
				<path class="st4" d="M601.6,229.2c-0.3-1.4-0.6-2.7-0.9-4c-0.7-1.6-1.5-2.1-2.4-2c-0.1,0.1-0.3,0.2-0.4,0.3
					c-0.1,0.1-0.2,0.2-0.4,0.3c0,0-0.1,0.1-0.2,0.2c-0.2,0.2-0.4,0.5-0.6,0.7c-0.2,0.3-0.4,0.6-0.6,0.9l0,0l-0.1,0.1
					c-0.1,0.1-0.2,0.3-0.3,0.4c-0.7,1.3-1.3,2.7-1.9,4c-1.1,2.4-2.2,4.8-3.9,6.8c-1.2,1.6-3,3.1-4.7,4.4c-0.2,0.5-0.5,0.8-1,1
					c-0.4,0.2-0.9,0.4-1.4,0.5c-0.5,0.3-0.9,0.6-1.4,0.8c-0.3,0.3-0.6,0.5-1,0.8c-0.7,0.5-1.6,1-2.5,1.1c-0.1,0-0.1,0.1-0.1,0.1
					s-1.7,0-3.5,0.3c-0.1,0-0.1,0.1-0.2,0.1c-0.2,0.2-0.5,0.3-0.7,0.5c-0.1,0.1-0.1,0.1-0.2,0.2c0,0-0.1,0.1-0.2,0.2
					c-0.2,0.2-0.3,0.4-0.5,0.6l0,0c0,0.1-0.1,0.2-0.1,0.3c-0.1,0.1-0.1,0.3-0.2,0.5v0.1c0,0.2-0.1,0.3-0.1,0.5v0.2
					c0,0.2,0,0.5,0,0.7c0,0.1,0,0.2,0,0.4c0,0.1,0,0.2,0,0.2v0.1c2.3,2.3,2.7,4.9,2.5,6.7c0,0.4,0,0.9-0.2,1.2c0,0,0,0,0,0.1
					c-0.2,0.8-0.5,1.4-0.5,1.4l0,0c-0.5,1.4-0.9,2.8-1.6,4.2c-1,2.1-2.6,4-3.9,5.9c-1.2,1.7-2.5,3.4-3.6,5.2c-1,1.6-1.8,3.3-2.7,5
					c-1.8,4.2-4,8.2-6.5,12c-0.2,0.3-0.3,0.5-0.5,0.8c-0.1,0.3-0.2,0.6-0.4,0.8c-0.2,0.3-0.4,0.5-0.6,0.8c0,0,0,0.1-0.1,0.1
					c-0.1,0.1-0.1,0.2-0.2,0.3c-0.2,0.3-0.3,0.7-0.5,1c0,0.1,0,0.2-0.1,0.3c-1.1,2.7-2.1,5.3-2.8,8.1c-0.2,0.9-0.3,1.8-0.4,2.7
					c-0.1,0.9-0.3,1.8-0.4,2.7c-0.1,0.8-0.1,1.7-0.2,2.5c0,0.2,0,0.3,0,0.5c0.3,1.8-0.6,7.5-1.1,10.1c0,0.7,0,1.4-0.1,2.1
					c1.3,5.4,0.3,16.6,0.3,16.6c-13.8,25.3-7.1,37.7-7.1,37.7c-2.2,18.2-4.4,20.4-4.4,20.4c-16,10.2-1.3,36.4-1.3,36.4
					c-0.4-2.7,1.8-4.4,1.8-4.4c4.4-9.8,34.2,0,34.2,0c3.9-1.2,3.7-34.5,3.2-55.7c-1.1-5.9-1.8-11.8-2.3-17.8
					c-0.3-3.4-0.7-7-0.3-10.3c0-0.3,0.1-0.5,0.2-0.8c0.1-0.5,0.1-0.9,0.2-1.4c0.2-0.8,0.5-1.6,0.9-2.3c0.1-0.1,0.2-0.3,0.3-0.4
					c0-0.1,0-0.1,0-0.1c3.1-3.6,4.4-22.6,4.4-22.6l0.2-0.6c0-0.4,0-0.9,0-1.3c-0.3-3.1-0.1-6.1,0.6-9.1c0.6-3.6,1.7-7.2,3-10.6
					c2.2-8.6,6.1-16.7,7.9-25.4c0.1-1.1,0.2-2.2,0.4-3.3c0.4-2.7,1.7-5,2.9-7.4c1.1-2.3,2.3-4.6,3.6-6.8c0.1-0.7,0.4-1.5,0.8-2.2
					c0.4-0.7,0.8-1.3,1.3-2c0.6-2.2,1.3-4.4,1.7-6.6c0.7-3.8,1-7.7,1-11.6c0-0.5,0.2-1,0.4-1.4C602,231,601.9,230.1,601.6,229.2z"/>
				<path class="st7" d="M571.7,431.6c0,0-30.5-10.4-34.2,0c0,0-2.2,1.5-1.8,4.4c0,0-4.3,57.2,31.6,72.3"/>
				<path class="st8" d="M535.7,436.1c0,0-4.1,54.4,25.9,69.4l7.8,3.7l2,1.7c0,0,7-4.3,5.5-5.6c0,0-6.3-3.9-9.8-3.8
					c0,0-16.1-6.4-7.1-22c0,0,9.6-8.4,19.2-6.2c0,0,1.4,0.3,2,1.7c0,0,3.4,3.1,1.6,5.4c0,0-0.7,1.2-2.6,0.6c0,0-1.2-0.7-2.2-0.7
					c0,0-3-0.5-3.4-0.2c0,0-1.7,0.9-0.4,2c0,0,8,3.5,10.2,5.8c0,0,7.1,5.1,7.7,6l3,2.3l1.3,1c0,0,1.6-2.5,0.7-6.7
					c0,0-2.8-9.1-9.4-17l-7.4-8.6c0,0-8.9-9.7-7.6-22.5c0,0,0.7-1.1,0.2-5c0,0-1-1.8-0.1-5.1c0,0-0.8-0.5-1.1-0.5
					c0,0-20.1-7.6-31.2-2.9C540.2,428.7,534.7,432.6,535.7,436.1z"/>
				<path class="st4" d="M668.3,549.2l0.1-0.4c0,0,6.4-0.8,7.3,4.2l-1.1,14.5c0,0-4.2-7.5-11.4-10.3c0,0-8.4-5-12.6-5.3
					c0,0-15.6-2-30.4-17c0,0-6.1-7.3-9.8-8.6c-0.6-0.4-1.2-0.6-1.9-0.7c-0.5-0.3-1-0.6-1.5-0.8c-1.5-0.8-3.2-1.1-4.8-1.8
					c-0.1,0-0.2,0-0.2-0.1c-3.3-1.5-7.1-3.2-9.7-3.9c-0.2-0.2-0.4-0.3-0.7-0.4c-0.2-0.1-0.4-0.2-0.6-0.3c-0.4-0.3-0.7-0.5-1-0.8
					c-0.5-0.4-1-0.9-1.5-1.2c-0.2-0.1-0.3-0.2-0.5-0.2c-3.7-3.4-9.8-9.1-11.1-10.7c0,0-4.9-3-9.8-3.8c0,0-16.2-6-7.1-22
					c0,0,7.4-7.7,17.6-6.6c0,0,2.5,0.1,3.2,1.6c0,0,0.7,0.9,0.9,0.9c0,0,2,2.1,1.6,3.9c0,0-0.2,1.8-2.1,1.9c0,0-0.8,0-1.4-0.3
					c0,0-1.1-0.6-2.4-0.6l-1.7-0.2c0,0-1.3-0.4-1.9,0.7c0,0-0.5,0.6,0.2,1.2c0,0,0,0.2,0.5,0.3c0,0,7.7,3.3,9.7,5.5
					c0,0,7.4,5.4,7.6,6l4.5,3.4c0,0,8.7,6.5,10.9,9.1c0,0,3,3.4,3.4,4.3c0,0,3.5,4.4,8.5,6.4c0,0,12.1,4.5,15.6,7.3
					c0,0,20.9,12.1,26.9,20.2C661.6,544.4,664.6,547.5,668.3,549.2z"/>
				<path class="st3" d="M595.6,559c0,0-4.6,6.6-14.3,4.2c0,0-12.1-3.3-15.6-13.3c0,0-9.6,9.5-13,0.2c0,0-7.5-4.9-1.7-13.1
					c0,0,7.4-10.7,13.6-1.9l2,1.2c0,0-0.4-3,2.2-5.2c0,0,5.1-5.1,4.6-7.5c0,0,1.8,1.7,2.9,1.7c0,0,2.8,0.4,2.5,4.4
					c0,0-2.2,5.5,3,9.1c0,0,1.6,1.3,1,5.8c0,0-0.8,5.5,2.4,9.8c0,0,2.5,3.5,6.8,4.2l0.6,0.2C592.7,558.9,594.3,559.3,595.6,559
					L595.6,559L595.6,559z"/>
			</g>
		</g>
		<g class="st2">
			<path class="st4" d="M382.3,418.3c0,0,10.1,8.9,14.9,1.2c0,0,0.7-2.1-0.9-2.4c0,0-8.3-1.4-7.6-6.9c0,0,1.8-23.3-2.4-44.7
				c0,0-4.2-16-1-32c0,0-0.5-16-1.3-22.4c0,0-0.5-4.5-0.5-7.9c0,0-1.2-10.6-13.1-10.8c0,0-10.8,0.7-8.4,10.1c0,0-2.4-0.2,0.5,8.9
				c0,0,2.4,15.3,3.9,21.4c0,0,2,13.3,4.7,24.2c0,0,7.9,29.6,7.1,35.9c0,0,0.8,12.8,2.4,18.7C380.3,411.7,379.2,415.7,382.3,418.3z"
				/>
			<path class="st5" d="M361.3,308.3c0,0-1.7-7.4,3.3-13.9c0,0,6.6-4.9,14.5,1.2c0,0,4,3.8,4.3,7.7c0,0,0.3,4.7,0.5,7.6l0.5,4.5
				c0,0,1.5-9.6,2.8-10.3c0,0,2.6-6.3,1.7-8.4c0,0-0.6-0.3-0.9-2.1c0,0-0.1-1.3-2-4.4c0,0-0.4-5.3-2.2-7.4c0,0-2.4-1.8-2.7-10.4
				c0,0,0.4-7.7,1.1-9.6l1.1-4.9l1.7-7.1c0,0,0.7-2,0.6-2.5c0-0.4,0-0.1,0-0.1s0.7-2,2-2.7c0,0,15.4-5.4,10.3-29.1
				c0,0-0.6-4.2-6.3-10.6c0,0-3.6-5.4-7.6-3.7l-0.3-0.7c0,0,7.7,20.4-4.7,28.4c0,0-10.1,6.7-17.2-5.1c0,0-2-2.8-3.1-8l-0.3-4
				c0,0-2.6,5.1-3.5,11c0,0-0.6,8.4-1.1,9.1c0,0-2.4,14.2-2.2,20.8c0,0-0.5,12.9-1,14.2c0,0-7.8,31.1,4.1,37.4
				C354.6,305,358.7,307.9,361.3,308.3z"/>
			<path class="st4" d="M388.3,202.2c0,0-1.6-1.1-2.2-4.2l-1-4.2c0,0-2-7.6-2-13.1c0,0,0.1-3.9-0.4-7.3l-0.6-8
				c0,0-1.6-21.6-0.8-26.8c0,0,3.8-23.9,3.5-27.9c0,0,0.6-10.9-1-18.2c0,0-2.5-27.8-3.8-31.5c0,0-3.6-10.2,3-15.8
				c0,0,3.5-2.7,0.7-5.5c0,0-1.7-1.8-2.7-1.9c0,0-9.7-5.7-11.9-16.7l-0.5-4.3c0,0,0.1-2.3-0.9-3.1c0,0-0.6-0.5-1.7,0.1
				c0,0-0.5,0.2-0.6,1.4c0,0-0.2,1.4-0.4,1.5c0,0-3.7,7.2-0.9,19.1c0,0,3.1,19.2,2.9,20.4c0,0,1.3,13.8-0.1,17.5
				c-1.3,3.7-6.1,33.1-4.7,55.4c0,0-1,12.9-0.4,17.8c0,0-0.6,10.9-1.7,12c0,0-6.7,32.1-6.1,45.2c0,0,2.6,9.6,2,10.8l-1.2,5.8
				c0,0,1.5-5,3.1-7.2c0,0-0.6,11.8,10.5,17.8c0,0,9.1,3.8,15.4-2.2c0,0,9-4.7,4.9-21.3c0,0-0.1-1-1.3-5.1L388.3,202.2z"/>
			<path class="st6" d="M384.9,311c0,0,14.1-4.1,14.5-1.3c0,0-0.8,7.2,5,6.4c0,0,12.9-1.9,3.8,17.3c0,0-5.3,7.9-19,2.8
				c0,0-4-1.4-4.1-3l-0.4-9.3l-0.5-8.9L384.9,311z"/>
			<path class="st3" d="M408.1,333.5c0,0,2.2,4.4,5.8-0.7c0,0,14-20.6,2.4-32.3l-5.2-3.3c0,0,11.8,2.8,8.7-8.8c0,0-0.4-7.1-6-6.8
				c0,0-10.1-8.8-15.2,1.2c0,0-3.8,10.1,3.7,11.7c0,0-5.4-0.5-10.4,3.2c0,0-2.1,1.8-2.6,0.4l-0.2-0.2c0,0-3.7,11.6-4.1,13.2
				c0,0,7.6-2.2,11.2-2.2c0,0,2.2-0.2,3,0.5c0,0,0.2,0.1,0.2,0.4v0.3c0,0-0.6,5.8,3.7,6.2c0,0,0.5,0.1,0.8,0c0,0,5.3-0.8,7,2.9
				c0,0,1.5,2.4-0.1,7.9C410.7,327,408.9,332.1,408.1,333.5z"/>
		</g>
		<path class="st5" d="M401.8,424.4c-0.2-0.2-0.4-0.5-0.7-0.7c-1.5-1.4-3.2-2.2-5-2.5c-1.9-0.4-3.8-0.6-5.7-0.5
			c-1.8,0.1-3.6,0.4-5.2,1.4c-0.7,0.5-1.3,1.1-1.8,1.8c-0.2,0.2-0.3,0.5-0.5,0.7c0,1.1,0,2.2,0,3.6v97c0,0,0,49.5,0,74.2v17.1
			c0,9.2,0,18.4,0,27.6l0,0v107.1l0.1,83.2l0.1,22.2c-0.2,5.6,0.1,184.1-0.7,189.7c-0.3,2,1,3,4.8,2.8c2.3-0.1,4.5,0,6.8-0.1
			c8.5,0,7.8,0.4,7.8-4.4C401.8,892.1,401.8,614.2,401.8,424.4L401.8,424.4z"/>
		<path class="st5" d="M692.7,548c-0.4-0.4-0.9-0.7-1.4-1c-1.8-0.9-3.9-1.3-5.9-1.4c-2.1-0.2-4.2,0-6.3,0.5
			c-1.7,0.5-3.5,1.3-4.8,2.9c0,0.7,0,1.3,0,2v77.9c0,0,0,39.7,0,59.6v13.7c0,7.4,0,14.8,0,22.1l0,0v86l0.1,66.8l0.1,17.9
			c-0.2,4.5,0.1,147.8-0.7,152.3c-0.3,1.6,1,2.4,4.7,2.3c2.2-0.1,4.4,0,6.7,0c8.2,0,7.6,0.3,7.6-3.6
			C692.7,923.4,692.7,700.5,692.7,548L692.7,548z"/>
	</g>
</g>
</svg>
