<?xml version="1.0" encoding="utf-8"?>
<!-- Generator: Adobe Illustrator 27.0.0, SVG Export Plug-In . SVG Version: 6.00 Build 0)  -->
<svg version="1.1" id="Layer_1" xmlns="http://www.w3.org/2000/svg" xmlns:xlink="http://www.w3.org/1999/xlink" x="0px" y="0px"
	 viewBox="0 0 3240 1080" style="enable-background:new 0 0 3240 1080;" xml:space="preserve">
<style type="text/css">
	.st0{fill:#FFFFFF;}
	.st1{opacity:0.3;}
	.st2{fill:#BCBAB8;}
	.st3{fill:#ABA9A8;}
	.st4{fill:#C9C9C9;}
	.st5{fill:#757373;}
	.st6{fill:none;}
	.st7{fill:#CE6EE5;}
</style>
<rect y="-0.09" width="3240" height="1080"/>
<g>
	<path class="st0" d="M2086.45,1084.59c0.07-0.32,0.17-0.63,0.24-1.11c0.48-2.38,0.76-5.08,0.87-7.94c0.14-3.02,0.21-6.03,0.17-9.05
		c-0.03-2.86-0.14-5.71-0.48-8.25c-0.17-1.11-0.38-2.06-0.62-2.86c-0.07-0.32-0.17-0.48-0.24-0.79h-113.1l-28.81,0.16l-7.69,0.16
		c-1.94-0.32-63.75,0.16-65.69-1.11c-0.69-0.48-1.04,1.59-0.97,7.62c0.03,3.65,0,7.14,0.03,10.79c0,13.49-0.14,12.38,1.52,12.38
		h214.76L2086.45,1084.59z"/>
	<path class="st0" d="M2010.58,755.91c-0.65-0.1-1.3-0.25-2.28-0.35c-4.89-0.7-10.43-1.1-16.29-1.25c-6.19-0.2-12.38-0.3-18.57-0.25
		c-5.86,0.05-11.73,0.2-16.94,0.7c-2.28,0.25-4.24,0.55-5.86,0.9c-0.65,0.1-0.98,0.25-1.63,0.35v110.07l0,0v53.7l0.33,41.72
		l0.33,11.13c-0.65,2.81,0.33,92.31-2.28,95.12c-0.98,1,3.26,1.5,15.64,1.4c7.49-0.05,14.66,0,22.15-0.05
		c27.69,0,25.41,0.2,25.41-2.21V755.9l0,0L2010.58,755.91z"/>
	<path class="st0" d="M1953.73,739.93c-14.83-0.01-29.52,2.91-43.39,8.51c-0.16,0.07-0.33,0.13-0.49,0.2
		c-13.59,5.46-23.83,17.65-27.43,25.96l-1.87,7.82c-0.94,11.36-2.98,39.27-2.98,39.27c3.57,3.27,6.64-6.55,6.64-6.55l3.06-25.64
		c3.57-35.46,53.11-34.91,53.11-34.91l137.36,4.36c8.11-4.61,11.33-20.18,1.46-18.99c-3.78,0.46-7.65,0.07-11.47,0.07
		L1953.73,739.93L1953.73,739.93z"/>
</g>
<g>
	<path class="st0" d="M1580.08,1080.32c0.13-0.3,0.33-0.59,0.46-1.04c0.93-2.23,1.45-4.76,1.65-7.43c0.26-2.82,0.4-5.65,0.33-8.47
		c-0.07-2.67-0.26-5.35-0.93-7.73c-0.33-1.04-0.73-1.93-1.19-2.67c-0.13-0.3-0.33-0.45-0.46-0.74h-215.95l-55.01,0.15l-14.68,0.15
		c-3.7-0.3-121.73,0.15-125.43-1.04c-1.32-0.45-1.98,1.49-1.85,7.13c0.07,3.42,0,6.69,0.07,10.11c0,12.63-0.26,11.59,2.91,11.59
		L1580.08,1080.32L1580.08,1080.32z"/>
	<path class="st0" d="M1578.12,975.27L1578.12,975.27c-1.4-3.6-5.17-5.68-8.96-4.94l-137.05,22.55l0,0l-69.46,13.79l-53.93,10.86
		l-14.37,3c-3.69,0.43-122.47,28.69-126.33,28.24c-1.38-0.18-1.66,1.84-0.43,7.36c0.73,3.34,1.3,6.56,2.03,9.9
		c2.46,12.39,112.72-12.83,109.65-13.61c-36-9.19,257.13-48.1,295.3-54.5c3.19-0.53,5.52-3.29,5.52-6.53v-5.62
		C1580.09,982.18,1579.42,978.62,1578.12,975.27L1578.12,975.27z"/>
</g>
<path class="st0" d="M0.2,1059.63c-0.66,6.76,0.54,13.52,0,20.28c433.72,0,873.51,0,1029.6,0c1.63,0,3.26-0.04,4.9-0.05
	c2.44,0,3.56-1.11,3.57-3.22c0.02-4.9,0.06-9.79,0.07-14.69c0-2.18-1.18-3.05-3.69-2.88"/>
<path class="st0" d="M2299.12,1059.63c-0.6,6.76,0.49,13.52,0,20.28c393.09,0,791.68,0,933.15,0c1.48,0,2.96-0.04,4.44-0.05
	c2.21,0,3.23-1.11,3.23-3.22c0.02-4.9,0.05-9.79,0.07-14.69c0-2.18-1.07-3.05-3.35-2.88"/>
<g class="st1">
	<path class="st2" d="M696.17,774.43c-11.49-3.03-12.2-7.27-12.2-7.27l-5.34-41.73c-0.57-4.49,0.39-9.05,2.75-12.91
		c14.24-23.27,29.4-44.81,29.4-44.81c10.55-8.42,24.68-14,32.15-16.58c3.1-1.07,6.08-2.47,8.83-4.26
		c9.67-6.29,25.77-13.51,25.77-13.51c12.08-11.01,20.54-10.63,20.54-10.63c12.38,1.13,15.89,14.72,15.89,14.72
		c8.19,18.65-11.31,22.08-11.31,22.08c-5.69,1.66-24.34,6.5-24.34,6.5c-9.38,5.82-27.18,13.23-27.18,13.23
		c-20.6,6.71-41.35,26.35-49.65,34.86c-2.45,2.51-3.89,5.82-4.06,9.32c-1.07,21.95-0.23,27.5-0.23,27.5l2.98,21.39l-1.3,1.35
		c-0.7,0.72-1.74,1.01-2.71,0.75L696.17,774.43z"/>
	<path class="st2" d="M625.66,1050.88c1.79-6.84,11.99-45.7,13.03-47.29c0,0,7.55-22.49,12.31-27.31
		c4.6-4.89,32.35-41.73,45.65-77.59c0,0,10.52-19.49,12.99-27.57c0,0,8.51-16.64,10.99-17.59c0,0,32.77-45.57,40.93-66.48
		c0,0,2.6-16.82,4.37-18.29l5.91-8.24c0,0-5.82,6.78-9.85,9.11c0,0,9.13-18.04-4.07-35.14c0,0-11.6-12.26-25.62-7.25
		c0,0-17.34,1.1-22.46,29.92c0,0-0.54,1.63-1.51,8.88l-1.76,0.16c0,0,1.74,2.83,0.53,8.1l-1.35,7.27c0,0-2.15,13.28-5.97,21.88
		c0,0-2.86,6.03-4.44,11.7l-4.62,12.93c0,0-12.5,34.9-17.36,42.48c0,0-22.54,34.75-24.85,41.22c0,0-8.51,16.64-11.07,29.17
		c0,0-15.22,39.41-15.75,46.1c0,0-0.46,8.57-14.67,12.75c0,0-7.35,1.79-4.91,8.12c0,0,0.85,2.42,1.94,3.89
		c0.8,1.09,1.48,2.27,1.92,3.55c1.94,5.64,6.13,19.84,5.64,36.12c0,0,0.4,7.17,2.47,9.59c0,0,1.98,2.21,6.05-0.53
		c0,0,3.05-4.13,4.72-7.46c0.35-0.7,0.62-1.44,0.82-2.2H625.66z"/>
	<path class="st0" d="M786.13,594l29.46,11.06c-1.72,4.67-25.01,10.97-25.01,10.97c-2.27,6.3-4.31,13.57-4.31,13.57
		c8.05,15.07,21.79,12.06,21.79,12.06c12.37-6.64,14.91-19.38,14.91-19.38c3.62,2.38,8.14,9.86,8.13,9.47
		c14.15,18.19-19.86,61.26-19.86,61.26c-1.69,1.68-11.53,21.46-11.53,21.46c-4.32,10.44-18.04,30.92-18.04,30.92
		c-1.27,0.74-8.11,13.43-8.11,13.43c-5.55,8.58-13.19,14.71-13.19,14.71l2.34-6.45c1.93-8.89,0.78-14.67,0.78-14.67
		c-2.8-23.41-23.27-20.04-23.27-20.04l-21.89,44.05c0,0-0.46-1.12-1.81-2.56c-1.07-1.15-2.5-1.88-4.02-2.25
		c-6.53-1.57-10.31-6.34-10.31-6.34c-0.97-1.13-1.78-2.64-2.45-4.26c-2.49-6.04-2.54-12.8-0.56-19.03
		c10.19-31.94,32.53-29.61,32.53-29.61c2.52-0.18,11.13-13.36,11.13-13.36s-0.12,0.69,0.07-0.16c0.2-0.85,2.69-3.48,2.69-3.48
		l7.64-9.89l5.16-6.88c2.43-2.47,8.46-14.21,8.46-14.21c3.98-9.74,3.85-14.82,3.45-16.92c-0.3-1.57-0.55-3.14-0.66-4.73
		c-0.41-5.86-0.86-17.42,1.58-21.99c0,0,5.1-23.07,14.89-26.78L786.13,594z"/>
	<path class="st3" d="M770.86,1025.79c0.75-1.16,0.89-2.62,0.33-3.88c-2.62-5.89-0.9-18.83-0.79-24.33
		c0.13-7.06,6.24-19.16,7.12-20.02c0,0,12.19-20.36,17.87-24.04c5.54-3.79,42.11-35.82,62.77-68.01c0,0,6.76-8.6-2.4-29.03
		c0,0-7.08-11.77-8.78-14.17l-18.23-24.63l-13.91-20.81c-3.13-4.27-21.44-25.14-21.44-25.14c-11.54-16.63-43.29-39.57-43.29-39.57
		c-17.74-5.73-29.96,9.41-29.96,9.41c-4.28,5.82-4.86,18.11-3.99,26.22c1.07,9.97,5.3,19.39,12.24,26.64
		c5.26,5.5,13.49,8.72,23.21,12.49c7.39,2.87,14.01,7.44,19.3,13.34l8.98,10.02c0,0,8.86,10.88,18.2,21.63
		c4.47,5.14,7.69,11.25,9.41,17.84c1.46,5.61,2.43,11.77,0.67,14.58c0,0-11.87,14.43-17.06,26.12c0,0-24.71,40.89-26.67,47.31
		c0,0-5.37,17.72-20.15,18.76c0,0-7.56,0.18-6.54,6.88c0,0,0.52,4.21,1.8,5.36c0,0,7.06,6.43,15.87,22.54c0,0,2.25,7.49,3.05,12.32
		c0.49,2.97,2.35,5.6,5.12,6.77c0.03,0.01,0.07,0.03,0.1,0.04c0.59,0.24,1.26,0.21,1.85-0.06l0,0c2.17-0.98,4.02-2.57,5.31-4.58l0,0
		H770.86z"/>
	<path class="st4" d="M813.85,604.64c0,0-9.61-25.55-4.48-26.69c0,0,13.46,0.45,11.15-10.18c0,0-5.36-23.64,31.52-9.51
		c0,0,1.48,6.24-3.32,25.66c-1.66,6.72-4.76,13.04-9.2,18.36c-0.04,0.05-0.08,0.1-0.12,0.14c-0.42,0.5-0.95,0.88-1.55,1.14
		l-4.85,2.12c-1.89,0.82-3.95,1.19-6,1.05l-4.68-0.3c-0.97-0.06-1.94-0.21-2.88-0.44l-5.58-1.36L813.85,604.64z"/>
	<path class="st5" d="M851.52,555.81c-8.42-6.64-35.91-25.76-56.35-10.3l-7.37,8.76c0,0,8.08-21.05-14.06-18.2
		c0,0-13.18-1.02-14.01,9.37c0,0-18.71,16.43-1.55,28.3c0,0,17.67,9.5,22.47-3.92c0,0-2.26,9.82,3.32,19.95c0,0,2.8,4.31,0.09,4.89
		l0,0c0.81,1.48,2.17,2.57,3.79,3.03c6.73,1.91,24.75,7.05,27.06,7.97c0,0-6.55-15.26-5.66-21.89c0,0,0.18-4.1,1.66-5.4
		c0,0,0.23-0.34,0.79-0.27l0.55,0.07c0,0,6.94,3.39,8.74-4.44c0,0,0.31-0.9,0.2-1.47c0,0-0.16-9.96,7.07-12.18c0,0,2-1.02,7.84-0.94
		c0,0,9.02,1.01,14.28,0.53c1.95-0.18,2.65-2.66,1.12-3.87L851.52,555.81z"/>
	<path class="st3" d="M966.96,741.45c-2.32,11.65-6.52,12.62-6.52,12.62l-70.85-13.56c-26.31-13.59-52.73-29.88-52.73-29.88
		c-9.04-10.02-15.48-23.78-18.51-31.09c-1.26-3.03-2.84-5.91-4.79-8.55c-6.86-9.27-15.05-24.9-15.05-24.9
		c-11.73-11.39-11.86-19.86-11.86-19.86c0.38-12.43,13.73-16.75,13.73-16.75c18.12-9.31,22.73,9.94,22.73,9.94
		c2,5.58,7.97,23.9,7.97,23.9c6.38,9.01,14.86,26.33,14.86,26.33c10.26,26.01,36.79,44.27,36.79,44.27
		c33.6,15.64,62.57,22.07,62.57,22.07l19.32,1.59l1.43,1.22c0.76,0.65,1.11,1.67,0.92,2.66L966.96,741.45z"/>
</g>
<g>
	<path class="st4" d="M1528.38,425.53c0,0-22.66,1.77-25.13,3.05c-0.18-0.06,2.69-0.8-6.48-13.17c0,0,11.06-14.24,11.99-21.07
		c0,0,4.08-1.87,6.19-1.1c0,0,4.99,1.05,7.24-6.09c0,0-0.33-11.48,11.17-14c0,0,4.56-2.1,5.88-11.57c0,0,5.55-19.27,25.09-16.61
		c0,0,8.32-4.58,11.29,23.43c0,0,1.61,13.65-1.72,19.39l-5.68,9.47c0,0-4.36,8.43-9.11,11.77c-2.7,1.9-7.62,1.96-10.61,0.57
		l-7.97-1.55l-12.16,17.46L1528.38,425.53z"/>
	<path class="st6" d="M1456.1,538.5c0,0-60.2-1.59-59.93-22.21c0,0-2.88-4.06-0.3-8.88c0,0,29.62-103.03,102.34-106.17"/>
	<path class="st7" d="M1471.01,443.89c-5.64-33.18,23.19-31.05,23.19-31.05c6.07,2.45,19.64-0.29,19.64-0.29
		c3.47-1.3-6-13.39-6-13.39l-4.61,1.68l-16.07,1.42c-62.32,6.8-90.47,104.79-90.47,104.79c-4.03,5.48,3.08,15.89,3.73,15.74
		c16.4,15.45,54.94,21.1,54.94,21.1c0.53,0.19,3.87-6.08,3.87-6.08c0.57-6.37,3.49-8.87,3.49-8.87c3.41-6.51,2.9-8.89,2.9-8.89
		c6.04-23.28,27.93-34.49,27.93-34.49l18.55-10.26c16.7-9.56,27.51-23.69,27.51-23.69c4.31-6.78,2.46-13.43,2.46-13.43l-2.93,0.91
		l-6.75,2.08c-1.64,1.19-16.72,6.74-16.72,6.74c-5.35,2.6-21.64,3.54-21.64,3.54l-23.03-7.56L1471.01,443.89z"/>
	<path class="st2" d="M1466.29,435.94c2.24-23.1,27.21-23.1,27.21-23.1c9.11,1.78,19.64-0.29,19.64-0.29
		c3.32-1.96,17.71-7.99,26.4-11.54c0.35,0.13,0.59,0.02,1.01-0.03c1.07-0.2,2.27-0.75,3.41-1.13c0.72-0.33,1.37-0.49,2.27-0.75
		l1.16-0.14c0.64,0.03,1.07-0.01,1.57-0.24c5.01,0.46,12.77-0.05,19.53-0.53c0.06-0.18,0.24-0.11,0.42-0.05
		c3.26-0.19,6.43,0.39,9.58-0.04c1.01-0.03,2.08-0.23,3.15-0.43c1.29,0.28,2.47,0.32,3.78,0c7.33,0.13,22.76-8.71,22.76-8.71
		c35.68-16.67,64.32-10.04,64.32-10.04c7.55,2.2,25.52-1.1,25.52-1.1c14.44-0.23,26.67-10.64,26.67-10.64l-7.49,26.12
		c-4.82,8.18-15.52,2.62-15.52,2.62l0.08-0.77c-7.59,0.58-14.86,4.06-14.73,3.71c-15.78,10.3-60.26,17.93-60.26,17.93
		c-7.95,2.63-32.08,2.66-32.08,2.66c-10.06,0.26-19.05,5.69-19.05,5.69c-1.29,1.32-8.75,5.33-8.75,5.33
		c-5.54,3.13-25.01,8.87-25.01,8.87l-10.09,3.04c-0.74,0.92-16.2,6.42-16.2,6.42c-4.93,2.56-21.13,2.77-21.13,2.77
		c-1.39,0.02-2.92-0.33-2.92-0.33l-15.72-2.83c-5.92-1.07-10.1-6.48-9.52-12.47L1466.29,435.94z"/>
	<path class="st5" d="M1570.42,346.85c0,0-3.77-14.55-22.33-16.65c0,0-23.35-2.08-35.98,13.17c0,0-10.65-22.88-22.65-8.79
		c0,0-16.33,3.72-11.49,21.85c0,0,6.02,23.56,22.6,12.16l4.28-0.8c0,0-2.65,5,0.48,10.54c0,0,5.62,12.25,3.19,16.13
		c0,0,4.26-1.81,6.19-1.1c0,0,5.17,1.12,7.24-6.09c0,0-0.28-11.07,11.17-14c0,0,3.65-1.24,5.52-9.51c0,0,2.17-10.16,10.57-15.61
		c0,0,6.65-4.51,14.64-2.94l1.18,0.04C1565.27,345.14,1568.33,345.48,1570.42,346.85L1570.42,346.85L1570.42,346.85z"/>
	<path class="st2" d="M1390.58,886.77c-0.09-7.87-0.54-52.75,0.11-54.76c0,0,1.51-26.44,5.22-33.03
		c3.52-6.62,22.55-54.46,26.31-96.99c0,0,5.59-24.08,5.87-33.51c0,0,4.26-20.42,6.66-22.18c0,0,21.88-58.72,24.51-83.64
		c0,0-2.15-18.88-0.68-20.98l0.46-6.99c0,0-0.8,5.39-4.45,9.09c0,0,4.52-22.12-14.72-36.64c0,0-26.73-8.15-41.29-1.3
		c-1.99,0.94-3.37,2.82-3.82,4.98c-0.94,4.49-1.87,14.36,0,34.88c0,0-0.1,1.92,0.99,10.01l-1.84,0.69c0,0,2.71,2.54,2.95,8.57
		l0.68,8.22c0,0,1.6,14.93,0.02,25.32c0,0-1.31,7.34-1.34,13.91l-1.16,15.29c0,0-3.18,41.26-6.19,50.86c0,0-14.04,44.06-14.63,51.7
		c0,0-4.26,20.42-3.34,34.67c0,0-4.79,46.92-3.39,54.28c0,0,2.03,9.36-12.05,18.04c0,0-7.39,4.1-2.9,10.19c0,0,1.63,2.35,3.23,3.62
		c1.19,0.94,2.26,2,3.11,3.25c3.75,5.5,12.44,19.55,16.71,37.24c0,0,2.54,7.6,5.48,9.59c0,0,2.78,1.79,6.36-2.35
		c0,0,2.05-5.3,2.88-9.38c0.18-0.87,0.25-1.76,0.24-2.65L1390.58,886.77z"/>
	<path class="st2" d="M1717.2,393.31l14.11-18.15c0,0,15.05-9.4,10.79-9.77l-17.4,1.79l-7.49,26.12L1717.2,393.31z"/>
</g>
<g class="st1">
	<path class="st3" d="M2091.83,111.3c2.48,3.85,5.45,7.36,8.81,10.47c10.22,9.46-2.19,18.49-2.19,18.49
		c-8.51,5.83-25.87,80.46-25.87,80.46c2.25,10.82-25.57,40.2-25.57,40.2c-12.58,13.93-21.2,60.84-21.2,60.84
		c-1.32,5.5-7.87,29.5-7.87,29.5c-0.62,14.86-6.33,32.63-6.33,32.63c-5.03,23.4-27.93,19.09-27.93,19.09
		c-47.91-2.45-21.03-57.07-21.03-57.07c5.8-28.34,42.02-80.88,42.02-80.88c7.77-11.29,15.93-35.11,15.93-35.11
		c19.18-44.6,21.94-38.84,21.94-38.84c11.64-20.95,27.43-39.86,34.87-57.78c5.12-12.34-7.46-36.35,2.16-48.72
		c5.64-7.26,8.65,5.62,8.61,7.57c-0.14,6.77-0.63,4.36,1.01,13.07l2.65,6.09L2091.83,111.3z"/>
	<path class="st0" d="M1958.63,356.19c-4.04,27.89,3.55,38.44,3.18,38.58c10.25,10.23,30.01,7.3,30.01,7.3
		c17.85-5.59,20.17-17.96,20.45-21.92c0.08-1.11,0.26-2.22,0.58-3.29c0.04-0.12,0.79-2.22,0.79-2.22l0.7-1.95l0.51,0.28l0.44,1.68
		l-0.09,5.83c0.92,9.66-11.2,40.23-11.2,40.23c-3.44,9.02-13.6,16.25-13.6,16.25c-4.41,4.84-4.65,12.07-4.65,12.07
		c-1.19,16.16,7.33,35.84,7.33,35.84c3.43,6.03,4.78,16.82,4.78,16.82c-0.38,6.86-6.63,30.42-6.63,30.42
		c-3.93,18.52-8.25,25.85-8.25,25.85c-0.89,1.68-8.21,7.27-8.21,7.27l0.56-1.89l0.73-1.87l0.32-1.38l0.94-2.2l2.87-6.95
		c2.66-5.03,1.8-7.76,1.8-7.76c3.7-8.1-1.5-21.6-1.5-21.6c-8.81-13.69-22.42-5.58-22.42-5.58c-14.14,3.09,0.51,35.43,0.51,35.43
		c-0.26,2.45-6.76,0.09-6.76,0.09c-4.23-2.44-23.23-14.76-23.23-14.76c-16.72-19.14-11.13-46.69-11.13-46.69
		c0.4-10.4,5.5-33.23,5.5-33.23c0.41-3.85,5.36-33.6,5.36-33.6c2.18-17.12,8.96-37.46,8.96-37.46S1950.47,365.25,1958.63,356.19
		L1958.63,356.19z"/>
	<path class="st2" d="M1956.03,552.13c0,0-12.3-29.98,1.02-36.15c0,0,10.79-9.99,23.04-0.64c0,0,9.5,8.82,8.02,16.8
		c0,0-0.52,4.89-1.48,7.98l-1.59,8.46c0,0-0.02,1.09-0.16,2.51l-0.21,2.2c0,0-0.46,18.38,0.1,20.93c0,0,1.41,19.03,1.1,25.28
		c0,0,2.57,26.77,4.01,28.11c0,0,4.14,3.88,5.6,43.54c0,0-0.22,30.02-4.11,47.26c-0.24,1.04-0.05,2.14,0.52,3.04
		c1.98,3.15,7.29,10.27,15.97,12.54c1.06,0.28,1.38,1.6,0.55,2.3c-1.67,1.41-4.46,3.11-8.13,2.97c0,0-17.52-0.2-20.42-2.55
		c0,0-2.43-0.07-4.86,1.53c0,0-4.07,3.71-3.65-1.78c0,0,6.37-28.06,5.17-32.54c0,0-0.58-14.65-2.38-19.51c0,0-9.96-35.76-6.16-53.24
		c0,0-1.47-20.57-3.15-22.34c0.52-0.08-10.38-51.68-8.82-56.72L1956.03,552.13z"/>
	<path class="st2" d="M2017.7,542.7c9.01-1.22,11.23-5.39,14.14-9.38c6.54-8.83,7.72-21.48,7.72-21.48l0.2-1.05l-0.88,0.16
		l-5.65,0.57l-2.32,5.94l-19.9,0.24l-25-0.05c-2.3,0.3-16.53-1.09-16.53-1.09c1.38,1.44-2.86,7.19-2.86,7.19
		c4.08-4,15.04-1.1,15.04-1.1c2.81,0.42,2.77,12.52,2.77,12.52c3.2,8.01,15.46,7.07,15.46,7.07L2017.7,542.7L2017.7,542.7z"/>
	<path class="st2" d="M1986.51,541.26c0.4-2.28-0.09-3.88-0.76-5.12c4-5.54,8.72-24.75,11.86-31.19
		c17.11,6.38,13.25-3.25,30.31,5.25c0.18,0,9.62,12.88,9.8,12.88"/>
	<path class="st5" d="M2025.54,535.41c0,0,2.02,6.21,7.75,0.23c0,0,19.73-24.56,6.83-42.2l-6.17-5.36c0,0,14.93,6.01,13.15-9.83
		c0,0,0.88-9.39-6.53-10.11c0,0-11.51-13.54-20.18-1.43c0,0-6.98,12.5,2.54,16.08c0,0-6.99-1.72-14.28,2.14
		c0,0-13.6,2.01-13.98,0.07l-0.22-0.3c0,0,3.35,20.11,2.51,22.13c0,0,8.5,0.09,13.22,0.8c0,0,2.93,0.17,3.84,1.25
		c0,0,0.24,0.17,0.18,0.56l-0.06,0.39c0,0-0.03,0.33,5.53,1.71c0,0,0.64,0.23,1.05,0.16c0,0,7.11,0,8.61,5.19
		c0,0,1.49,3.45-1.69,10.35c-0.24-0.17-0.77,6.48-2.1,8.16V535.41z"/>
</g>
</svg>
