<?xml version="1.0" encoding="utf-8"?>
<!-- Generator: Adobe Illustrator 27.0.0, SVG Export Plug-In . SVG Version: 6.00 Build 0)  -->
<svg version="1.1" id="Layer_1" xmlns="http://www.w3.org/2000/svg" xmlns:xlink="http://www.w3.org/1999/xlink" x="0px" y="0px"
	 viewBox="0 0 3240 1080" style="enable-background:new 0 0 3240 1080;" xml:space="preserve">
<style type="text/css">
	.st0{fill:#FFFFFF;}
	.st1{fill:#757373;}
	.st2{fill:#BCBAB8;}
	.st3{fill:#ABA9A8;}
	.st4{fill:#CE6EE5;}
	.st5{opacity:0.3;}
	.st6{fill:#C9C9C9;}
</style>
<rect y="0" width="3240" height="1080"/>
<path class="st0" d="M0,1089.53v-25.13c0-11.28,22.63-11.81,39.93-11.81h3156.36c17.3,0,43.71-1.17,43.71,10.11v25.13
	c0,11.28-26.42,19.91-43.71,19.91H39.93C22.63,1107.74,0,1100.81,0,1089.53z"/>
<g>
	<g id="Capa_5">
		<path class="st1" d="M441.33,515.01c0,0-16.69-22.94-11-37.35c0,0-14.79-1.9-12.14-13.84c2.65-11.95,17.07-13.46,17.07-13.46
			s8.34-3.6,8.72,3.22c0,0,3.41,1.52,0.76,5.5c0,0,2.28-1.9,3.41-1.52l-0.57,11.38c0,0-4.17,26.74-3.41,30.91l-2.28,15.55
			l-0.57-0.38L441.33,515.01z"/>
	</g>
	<path class="st2" d="M492.91,750.13c0,0,6.07,28.06-3.6,61.44c0,0-8.53,52.33-6.64,52.9c0,0-4.93,32.8-3.03,39.06
		c0,0,1.05,4.38-4.45,29.22c0,0-7.4,69.97-2.47,78.5c0,0-4.74,21.24,18.39,27.49c0,0,19.91,9.86-3.22,10.62
		c0,0-30.91-5.31-36.98-14.41c0,0-6.26-1.9-6.26-12.51l0.95-35.27c0,0,1.14-20.48,3.03-23.13l5.97-30.93l2.65-45.13l4.74-36.79
		c0,0,15.55-63.71,12.14-74.52c0,0.38,12.14-27.49,18.77-26.55L492.91,750.13z"/>
	<path class="st3" d="M463.63,1055.26c0,0,24.93,7.8,20.1-6.22c-0.49-1.43-1.73-2.48-3.22-2.74c-8.13-1.42-35.85-7.56-34.72-25.37
		c1.33-20.86,1.71-42.1,6.26-67.5c0,0,4.83,4.91,8.81-47.23c0,0,0-27.12,3.98-41.34c0,0,18.58-66.18,14.6-97.08
		c0,0,8.34-65.04-41.34-50.82c0,0-24.84,3.6-21.81,29.2c0,0,0.38,20.1,4.93,35.46c0,0,1.71,26.74,2.28,32.8
		c0,0,7.58,50.82-0.38,69.4c0,0-18.1,39.65-12.04,49.89c0,0,8.34,82.1,1.71,91.02c0,0-11.57,16.5,9.29,21.24
		c0,0,8.61,3.41,19.7,5.92c0,0,12.16,1.89,14.65,2.2c0.19,0,4.71,0.21,7.19,1.19L463.63,1055.26z"/>
	<path class="st4" d="M480.01,764.74c0,0,7.02-13.46,12.89-14.6c0,0,3.41-3.41,3.6-7.21c0,0,0-2.84,2.47-12.33
		c0,0,4.93-22.56,5.31-41.15c0,0,1.9-32.42,1.9-36.6c0,0,2.84-25.03,2.09-36.22c0,0,2.84-30.15-17.26-48.73
		c0,0-15.17-12.7-14.79-15.93c0,0-7.58-5.12-7.58-2.47c0,0,7.96,39.06-6.83,43.99c0,0-13.65,10.24-24.65-3.41
		c0,0-8.91-12.89-5.88-22c0,0,0.57-3.79,2.84-9.48l2.28-7.77l0.76-2.47l0.19-1.52l0.57-2.09l0.38-2.09c0,0-7.21,6.83-7.96,8.72
		c0,0-3.79,8.34-5.88,28.63c0,0-2.65,25.79-2.28,33.18c0,0,1.33,11.57,5.69,17.63c0,0,11.38,20.1,11.95,37.54
		c0,0,0.57,7.77-3.6,13.46c0,0-10.05,8.91-12.7,18.96c0,0-9.48,34.13-7.4,44.37l0.57,6.26l0.38,1.52l0.19,0.19l-0.38-4.55
		c0,0-0.19-3.98-0.19-4.36c0,0-3.41-22.19,22-27.49c0,0,21.62-7.77,32.99,7.02c-0.38,0.19,9.48,10.62,8.34,40.96L480.01,764.74z"/>
	<path class="st2" d="M468.63,549.71c0,0,8.34,38.87-6.83,43.99c0,0-13.08,10.24-24.65-3.41c0,0-8.72-12.51-5.88-22
		c0,0,1.33-5.88,2.84-9.48l3.03-10.05c0,0,0.19-1.33,0.57-3.03l0.57-2.65c0,0,3.41-22.37,3.22-25.6c0,0,1.52-23.51,2.84-31.1
		c0,0,1.52-33.18,0.19-35.08c0,0-3.79-5.5,0.95-54.23c0,0,5.31-38.87,12.51-58.78c0,0,3.79-17.26,2.65-22c0,0,2.65-11.76,5.69-3.03
		c0,0,4.36,13.27,3.6,17.07c0,0,1.33,3.03,4.17,1.52c0,0,4.93-3.79,3.6,2.84c0,0-7.4,20.1-6.83,25.79c0,0-1.71,18.01-0.57,24.27
		c0,0,4.93,45.51-1.9,66.18c0,0-1.71,25.41-0.19,27.87c-0.57,0,2.84,65.04,0.38,70.92L468.63,549.71z"/>
	<path class="st2" d="M466.17,459.26c0,0,13.65,0.95,23.32,7.77c4.36,3.03,7.96,7.4,9.29,13.27c0,0,2.65,9.29,1.9,15.55
		c0,0,1.33,13.84-1.71,18.58c0,0,0.57,14.79-6.64,16.31c0,0-18.39,1.71-18.77,4.74c0,0-3.41,13.27,2.28,16.69
		c0,0-7.02-4.93-8.53-3.41c0,0,1.14-15.36,0.76-17.82l-0.57-26.93l-0.76-21.43l-0.76-16.5l-0.76-6.07l-0.19-0.95l1.14,0.19V459.26z"
		/>
	<path class="st2" d="M467.69,521.08c6.45-18.58,1.71-41.15,10.43-59.73c0-0.19,0.19-0.19,0.19-0.38
		c19.91,4.36,19.53,21.43,19.53,21.43c-0.76,6.83,4.74,14.03,4.74,14.03c2.84,5.31,3.22,11.95,3.22,11.95
		c-0.95,0.76-0.76,5.31-0.76,5.31c3.98,9.67-11.57,16.12-11.57,16.12c-2.47-0.38-4.17,0.19-5.5,0.95
		c-6.07-4.17-13.27-6.45-20.29-9.67L467.69,521.08z"/>
	<path class="st1" d="M467.31,463.43v-3.41c0-0.19,0-0.38,0-0.76v-0.76c3.03,0,13.65,0.57,21.81,6.83c0,0-10.62,0.57-10.62,4.74
		c0,0-3.22,5.69-5.69,6.07c0,0-4.17,3.22-4.17,8.72c0,0-0.76-13.08-1.52-20.86C467.31,464,467.31,463.62,467.31,463.43
		L467.31,463.43z"/>
</g>
<g class="st5">
	<path class="st3" d="M1091.16,623.62c-0.72,12.37-3.85,15.47-3.85,15.47l-92.39,34.26c-4.01,1.33-8.34,1.38-12.39,0.16
		c-26.47-7.97-30.98-18.74-30.98-18.74c-12.47-8.6-23.06-21.96-28.26-29.16c-2.16-2.98-4.63-5.72-7.45-8.1
		c-9.9-8.34-22.89-23.3-22.89-23.3c-15.76-9.4-18.1-18.62-18.1-18.62c-2.81-13.67,10.65-21.85,10.65-21.85
		c17.38-14.86,31.76,4.38,31.76,4.38c3.63,5.57,10.53,24.63,10.53,24.63c9.3,8.19,23.05,24.91,23.05,24.91
		c10.57,15.17,19.15,23.47,24.42,27.73c3.33,2.69,7.34,4.38,11.57,4.99c39.94,5.79,77.29-9.27,77.29-9.27l23.46-11.13l1.88,0.96
		c1,0.51,1.75,1.54,1.69,2.66L1091.16,623.62z"/>
	<path class="st3" d="M876.94,784.61l-2.71-2.85c-6.14-6.44-13.72-11.35-22.11-14.32c-11.03-3.9-28.06-2.69-34.16-8.68
		c-8.03-7.89-13.1-18.32-14.64-29.47c-1.25-9.07-1.01-22.87,3.59-29.55c0,0,13.19-17.4,33.29-11.58c0,0,36.4,24.66,49.91,42.92
		c0,0,24.14,20.5,27.8,25.18l44.01,34.3c1.99,2.64,10.34,15.6,10.34,15.6c10.97,22.6,3.67,32.49,3.67,32.49
		c-22.08,36.81-80.92,65.01-87.01,69.45c-6.25,4.33-23.39,19.87-23.39,19.87c-0.96,0.99-7.4,14.78-7.31,22.71
		c0.07,6.14-1.4,20.58,1.66,27.15c0.67,1.45,0.64,3.12-0.18,4.49l0,0c-1.38,2.29-3.4,4.14-5.8,5.31l0,0
		c-0.65,0.32-1.4,0.38-2.07,0.13c-0.04-0.01-0.08-0.03-0.12-0.05c-3.15-1.22-5.32-4.1-5.97-7.42c-1.06-5.39-3.84-13.72-3.84-13.72
		c-10.43-17.78-18.57-24.75-18.57-24.75c-1.47-1.25-2.2-5.95-2.2-5.95c-1.38-7.48,7.1-7.94,7.1-7.94
		c16.55-1.67,29.79-18.64,29.79-18.64c1.97-7.27,32.47-46.27,32.47-46.27c3.43-8.42,15.12-14.65,23.23-18.08
		c6.09-2.58,10.51-7.99,11.91-14.45c0.99-4.56-0.39-4.11-3.03-6.98l-28.43-25c-6.33-3.87-12.12-8.55-17.24-13.92L876.94,784.61z"/>
	<polygon class="st6" points="910.82,540.05 909.36,543.38 896.12,543.38 896.79,531.97 905.39,529.8 	"/>
	<path class="st0" d="M918.99,560.69c0.37,0.66,0.79,1.29,1.25,1.89c3.09,3.97,7.46,10.62,7.43,10.22
		c16.5,19.93-20.2,69.41-20.2,69.41c-1.84,1.94-12.21,24.47-12.21,24.47c-4.49,11.86-19.19,35.31-19.19,35.31
		c-1.4,0.88-8.64,15.35-8.64,15.35c-5.93,9.81-14.3,16.96-14.3,16.96l2.41-7.32c1.87-10.04,0.38-16.48,0.38-16.48
		c-3.93-26.16-26.79-21.69-26.79-21.69l-23.06,50.16c0,0-0.56-1.24-2.12-2.81c-1.24-1.25-2.86-2.03-4.59-2.39
		c-7.37-1.54-11.78-6.77-11.78-6.77c-1.11-1.21-2.05-2.84-2.85-4.6c-3.01-6.66-3.36-14.25-1.36-21.28
		c10.32-36.33,35.53-34.47,35.53-34.47c2.82-0.29,12.03-15.36,12.03-15.36s-0.12,0.78,0.07-0.18s2.9-4,2.9-4l8.24-11.35l5.55-7.89
		c2.64-2.86,9.01-16.23,9.01-16.23c4.32-11.56,3.78-17.26,3.22-19.4c-0.28-1.1-0.53-2.2-0.65-3.33c-0.64-5.73-1.97-20.68,0.85-26.38
		c0,0,4.94-26.06,15.8-30.55l33.43,11.41l9.63,17.3L918.99,560.69z"/>
	<path class="st6" d="M901.12,539.75c0,0-15.71-26.3-10.27-28.59c0,0,14.96-2.18,10.28-13.47c0,0-10.63-25.04,32.92-16.79
		c0,0,2.88,6.6,1.45,29c-0.5,7.76-2.66,15.36-6.5,22.11c-0.03,0.06-0.07,0.12-0.11,0.18c-0.36,0.63-0.88,1.17-1.48,1.57l-4.94,3.31
		c-1.92,1.29-4.12,2.1-6.42,2.36l-5.23,0.6c-1.09,0.12-2.18,0.15-3.27,0.09l-6.43-0.39L901.12,539.75z"/>
	<path class="st1" d="M933.94,489.62c0,0,8.96-5-2-12.02c0,0-39.93-24.71-63.23,0.56l-6.39,11.15c0,0,4.73-24.86-19.16-17.31
		c0,0-14.76,1.5-13.61,13.14c0,0-17.39,21.88,3.93,31.57c0,0,21.41,6.97,24.04-8.81c0,0-0.54,11.3,7.65,21.38
		c0,0,3.95,4.21,1.08,5.38l0,0c1.19,1.48,2.91,2.41,4.79,2.6c7.82,0.77,28.75,2.86,31.48,3.41c0,0-10.27-15.55-10.61-23.06
		c0,0-0.62-4.57,0.76-6.3c0,0,0.19-0.43,0.81-0.45l0.63-0.03c0,0,8.35,2.36,8.78-6.64c0,0,0.16-1.05-0.08-1.67
		c0,0-2.16-10.97,5.39-14.86c0,0,4.86-3.35,16.47-0.53C924.48,487.56,930.95,488.08,933.94,489.62L933.94,489.62z"/>
	<path class="st3" d="M1087.23,639.09c0.01,0.26,24.06-32.54,19.98-31.28c-0.59,0.18-8.23,3.62-8.23,3.62l-11.47,8.57
		L1087.23,639.09z"/>
	<path class="st2" d="M716.26,671.26c-0.21-0.16,9.52,38.52,11.09,34.55c0.22-0.57,2.29-8.69,2.29-8.69l2.77-16.12l-16.15-9.73
		V671.26z"/>
	<path class="st2" d="M793.38,736.93c0,0-3.23,23.17-7.22,32.95c0,0-3.01,6.86-4.59,13.28l-4.74,14.67c0,0-12.83,39.58-18.03,48.25
		c0,0-24.11,39.76-26.48,47.09c0,0-8.98,18.95-11.43,33.1c0,0-15.73,44.73-16.11,52.26c0,0-0.22,9.63-16.03,14.8
		c0,0-8.19,2.26-5.24,9.28c0,0,1.04,2.68,2.3,4.3c0.94,1.2,1.74,2.49,2.28,3.91c2.37,6.26,7.55,22.05,7.55,40.34
		c0,0,0.69,8.03,3.1,10.67c0,0,2.29,2.41,6.77-0.8c0,0,3.28-4.73,5.05-8.53c0.37-0.8,0.64-1.64,0.84-2.5
		c1.78-7.74,11.9-51.68,13.01-53.49c0,0,7.71-25.49,12.88-31.06c5-5.64,34.88-47.92,48.58-88.6c0,0,11.14-22.22,13.63-31.37
		c0,0,8.98-18.95,11.74-20.11c0,0,28.45-49.83,36.89-73.57c0,0,9.12-21.37,11.05-23.07l4.45-5.83c0,0-4.4,4.19-8.85,6.94
		c0,0,9.63-20.56-5.76-39.29c0,0-13.43-13.37-28.99-7.27c0,0-19.42,1.83-24.18,34.33c0,0-0.55,1.85-1.39,10.02l-1.1,9.3
		L793.38,736.93z"/>
	<path class="st2" d="M727.49,683.45c-11.65-6.5-11.23-11.31-11.23-11.31l5.84-46.86c0.63-5.04,2.94-9.73,6.59-13.27
		c21.98-21.33,44.47-40.51,44.47-40.51c13.82-6.21,30.74-8.34,39.58-9.06c3.67-0.3,7.3-0.99,10.78-2.17
		c12.26-4.14,31.79-7.5,31.79-7.5c16.21-8.6,25.3-5.83,25.3-5.83c13.15,4.68,13.17,20.44,13.17,20.44
		c3.7,22.56-18.45,20.86-18.45,20.86c-6.65,0.22-28.27,0.28-28.27,0.28c-11.82,3.71-33.25,6.8-33.25,6.8
		c-24.26,1.55-52.3,17.11-63.71,24.05c-3.36,2.04-5.85,5.25-7.01,9c-7.28,23.57-7.92,29.83-7.92,29.83l-2.72,24.09l-1.79,1.11
		c-0.96,0.59-2.17,0.61-3.15,0.06L727.49,683.45z"/>
</g>
</svg>
