<?xml version="1.0" encoding="utf-8"?>
<!-- Generator: Adobe Illustrator 27.0.0, SVG Export Plug-In . SVG Version: 6.00 Build 0)  -->
<svg version="1.1" id="Capa_1" xmlns="http://www.w3.org/2000/svg" xmlns:xlink="http://www.w3.org/1999/xlink" x="0px" y="0px"
	 viewBox="0 0 1080 1080" style="enable-background:new 0 0 1080 1080;" xml:space="preserve">
<style type="text/css">
	.st0{stroke:#000000;stroke-miterlimit:10;}
	.st1{display:none;fill:#FFFFFF;}
	.st2{fill:#FFFFFF;}
	.st3{opacity:0.3;}
	.st4{fill:#BCBAB8;}
	.st5{fill:#C9C9C9;}
	.st6{fill:#757373;}
	.st7{fill:none;}
	.st8{fill:#CE6EE5;}
	.st9{fill:#ABA9A8;}
</style>
<rect x="-76.5" y="-68.7" class="st0" width="1253.1" height="1225.4"/>
<g id="Layer_2">
	<g id="Capa_2_00000041977206964686540760000001219414656090201534_">
		<rect x="-128.2" y="-81.1" class="st1" width="1225.2" height="1178.7"/>
		<path class="st2" d="M401.8,424.4c-0.2-0.2-0.4-0.5-0.7-0.7c-1.5-1.4-3.2-2.2-5-2.5c-1.9-0.4-3.8-0.6-5.7-0.5
			c-1.8,0.1-3.6,0.4-5.2,1.4c-0.7,0.5-1.3,1.1-1.8,1.8c-0.2,0.2-0.3,0.5-0.5,0.7c0,1.1,0,2.2,0,3.6v97c0,0,0,49.5,0,74.2v17.1
			c0,9.2,0,18.4,0,27.6l0,0v107.1l0.1,83.2l0.1,22.2c-0.2,5.6,0.1,184.1-0.7,189.7c-0.3,2,1,3,4.8,2.8c2.3-0.1,4.5,0,6.8-0.1
			c8.5,0,7.8,0.4,7.8-4.4C401.8,892.1,401.8,614.2,401.8,424.4L401.8,424.4z"/>
		<path class="st2" d="M692.7,548c-0.4-0.4-0.9-0.7-1.4-1c-1.8-0.9-3.9-1.3-5.9-1.4c-2.1-0.2-4.2,0-6.3,0.5
			c-1.7,0.5-3.5,1.3-4.8,2.9c0,0.7,0,1.3,0,2v77.9c0,0,0,39.7,0,59.6v13.7c0,7.4,0,14.8,0,22.1l0,0v86l0.1,66.8l0.1,17.9
			c-0.2,4.5,0.1,147.8-0.7,152.3c-0.3,1.6,1,2.4,4.7,2.3c2.2-0.1,4.4,0,6.7,0c8.2,0,7.6,0.3,7.6-3.6
			C692.7,923.4,692.7,700.5,692.7,548L692.7,548z"/>
	</g>
</g>
<g id="Capa_2_00000145022205691864439050000002432522063610068367_">
	<g class="st3">
		<path class="st4" d="M378.2,420.3c0,0,10.1,8.9,14.9,1.2c0,0,0.7-2.1-0.9-2.4c0,0-8.3-1.4-7.6-6.9c0,0,1.8-23.3-2.4-44.7
			c0,0-4.2-16-1-32c0,0-0.5-16-1.3-22.4c0,0-0.5-4.5-0.5-7.9c0,0-1.2-10.6-13.1-10.8c0,0-10.8,0.7-8.4,10.1c0,0-2.4-0.2,0.5,8.9
			c0,0,2.4,15.3,3.9,21.4c0,0,2,13.3,4.7,24.2c0,0,7.9,29.6,7.1,35.9c0,0,0.8,12.8,2.4,18.7C376.2,413.6,375,417.7,378.2,420.3z"/>
		<path class="st2" d="M357.2,310.2c0,0-1.7-7.4,3.3-13.9c0,0,6.6-4.9,14.5,1.2c0,0,4,3.8,4.3,7.7c0,0,0.3,4.7,0.5,7.6l0.5,4.5
			c0,0,1.5-9.6,2.8-10.3c0,0,2.6-6.3,1.7-8.4c0,0-0.6-0.3-0.9-2.1c0,0-0.1-1.3-2-4.4c0,0-0.4-5.3-2.2-7.4c0,0-2.4-1.8-2.7-10.4
			c0,0,0.4-7.7,1.1-9.6l1.1-4.9l1.7-7.1c0,0,0.7-2,0.6-2.5c0-0.4,0-0.1,0-0.1s0.7-2,2-2.7c0,0,15.4-5.4,10.3-29.1
			c0,0-0.6-4.2-6.3-10.6c0,0-3.6-5.4-7.6-3.7l-0.3-0.7c0,0,7.7,20.4-4.7,28.4c0,0-10.1,6.7-17.2-5.1c0,0-2-2.8-3.1-8l-0.3-4
			c0,0-2.6,5.1-3.5,11c0,0-0.6,8.4-1.1,9.1c0,0-2.4,14.2-2.2,20.8c0,0-0.5,12.9-1,14.2c0,0-7.8,31.1,4.1,37.4
			C350.5,307,354.6,309.9,357.2,310.2z"/>
		<path class="st4" d="M384.2,204.1c0,0-1.6-1.1-2.2-4.2l-1-4.2c0,0-2-7.6-2-13.1c0,0,0.1-3.9-0.4-7.3l-0.6-8c0,0-1.6-21.6-0.8-26.8
			c0,0,3.8-23.9,3.5-27.9c0,0,0.6-10.9-1-18.2c0,0-2.5-27.8-3.8-31.5c0,0-3.6-10.2,3-15.8c0,0,3.5-2.7,0.7-5.5c0,0-1.7-1.8-2.7-1.9
			c0,0-9.7-5.7-11.9-16.7l-0.5-4.3c0,0,0.1-2.3-0.9-3.1c0,0-0.6-0.5-1.7,0.1c0,0-0.5,0.2-0.6,1.4c0,0-0.2,1.4-0.4,1.5
			c0,0-3.7,7.2-0.9,19.1c0,0,3.1,19.2,2.9,20.4c0,0,1.3,13.8-0.1,17.5c-1.3,3.7-6.1,33.1-4.7,55.4c0,0-1,12.9-0.4,17.8
			c0,0-0.6,10.9-1.7,12c0,0-6.7,32.1-6.1,45.2c0,0,2.6,9.6,2,10.8l-1.2,5.8c0,0,1.5-5,3.1-7.2c0,0-0.6,11.8,10.5,17.8
			c0,0,9.1,3.8,15.4-2.2c0,0,9-4.7,4.9-21.3c0,0-0.1-1-1.3-5.1L384.2,204.1z"/>
		<path class="st5" d="M380.8,313c0,0,14.1-4.1,14.5-1.3c0,0-0.8,7.2,5,6.4c0,0,12.9-1.9,3.8,17.3c0,0-5.3,7.9-19,2.8
			c0,0-4-1.4-4.1-3l-0.4-9.3l-0.5-8.9L380.8,313z"/>
		<path class="st6" d="M404,335.5c0,0,2.2,4.4,5.8-0.7c0,0,14-20.6,2.4-32.3l-5.2-3.3c0,0,11.8,2.8,8.7-8.8c0,0-0.4-7.1-6-6.8
			c0,0-10.1-8.8-15.2,1.2c0,0-3.8,10.1,3.7,11.7c0,0-5.4-0.5-10.4,3.2c0,0-2.1,1.8-2.6,0.4l-0.2-0.2c0,0-3.7,11.6-4.1,13.2
			c0,0,7.6-2.2,11.2-2.2c0,0,2.2-0.2,3,0.5c0,0,0.2,0.1,0.2,0.4v0.3c0,0-0.6,5.8,3.7,6.2c0,0,0.5,0.1,0.8,0c0,0,5.3-0.8,7,2.9
			c0,0,1.5,2.4-0.1,7.9C406.5,329,404.8,334.1,404,335.5z"/>
	</g>
	<g>
		<path class="st4" d="M385.2,424.2c0,0-3.3,4.6,0.5,6.2c0,0,10.6,4.1,9.6,6.1c0,0-16-3.5-26.4-2.3c0,0-11-0.4-14.8,1.2
			c0,0-13.5,2.2-18-0.9c0,0-13.4-7-20.4-8c0,0-2.2-1.2-12.3,0.4c0,0-6.4,0.4-16.8-5.1c0,0-4.3-2.8-7,2.8l-1.2,12.4
			c0,0-1.8,3.9,2.4,5.5c0,0,5.7,6.9,1.4,10.4c0,0-1.2,2-1,2.6c0,0-1.9,3.1-4.5,4.8c0,0-4.4,1.9-5.7,5.3c0,0-5.2,10.2-18.8,3.4
			c0,0-4.3-9.5-0.2-15.7c0,0,2.6-4.7,2.1-8.7c0,0-2.5-5.9,3-7.6c0,0,1.1,0.2,0.9-2.1c0,0-2.5-5.1,3.4-7.2c0,0,5.7-4.7,6.2-6.6
			c0,0,0.1-20.9,14.5-22.8c0,0,5.4-2.9,8,4.5c0,0,1.1,2.9-1.8,3.4c0,0-3.2-0.2-2.3,0.4c0,0,8.9,1.4,16.5-0.2c0,0,7.9,0,13,3.5
			c0,0,2.4,4,10,3.1c0,0,20.9-1.6,32.1,6.7c0,0,11.8,8.1,21.7,5C379.3,424.8,385.3,422,385.2,424.2z"/>
		<path class="st6" d="M252.1,469c0,0-20.8,0-17.7-20c0,0-9,3.9-14.3-2.3c0,0-9-12.4,5.6-20.4c0,0,15.2-2.2,14.2,7.4
			c0,0,9.4-5.3,12-2.6c0,0,3.9,0.1,5.3-1.2c0.2-0.2,0.3-0.4,0.4-0.7c0,0,1.7-1,1.4-0.2l0,0l0,0l0,0c0,0-2.5,1.9-1.2,5.6
			c0,0,0.3,0.7,0.1,1.5c0,0-0.1,0.9-0.8,0.9h-0.2c0,0-4.5,1-3.3,6.3l0.3,1.1c0,0,0.2,1,0.1,2.2c0,0,0.1,2-1.9,6.3
			C252.2,452.9,247.8,458,252.1,469z"/>
		<path class="st4" d="M310,338c4.4-7.5,14.3-5.3,14.3-5.3c9.5-0.8,13.4,24.3,13.4,24.3c2.1,11.9,12.8,11.7,12.8,11.7
			c23.3,3.7,32.5,10.1,32.5,10.1c5.5,5.4,6.1-1.1,6.1-1.1l3.2-6.8c7.1-22.4,33.8-41.1,33.8-41.1c4.5-4.5,7.8-10.3,7.8-10.3
			c0.5-7.2,4.7-6.5,4.7-6.5c8.2-5.3,12,5,12,5c0.7,1.5,9.7,9,9.7,9c11,5.7,12,12.2,12,12.2c0.2,4.2-8.7,0.7-8.7,0.7
			c-2.7-3.3-13.2-5.3-13.2-5.3c-11.7-3.7-18,13.5-18,13.5l-20.7,35.7c-3.2,8.2-11.8,17.5-11.8,17.5c-4.8,7.8-15.8,5-15.8,5
			c-20.7-1-40.7-10.2-40.7-10.2c-11.8-3.8-17.9-9.2-17.9-9.2c-0.1-2.1-10.5-10.7-10.5-10.7c-2.8-2.7-9.2-13.9-9.2-13.9
			c-3.2-5.4-2.6-6.8-2.6-6.8c-0.9-2,5.1-15.6,5.1-15.6L310,338z"/>
		<path class="st7" d="M267.9,418.6c0,0-4.7-7.7-1.4-17l5.9-8.7c0,0,11.5-16,13.7-18.1"/>
		<path class="st8" d="M286.1,374.5c0,0,9.6-10.4,13.1-18.9c0,0,5.4-13.5,11.6-18.6c0,0-1.3,1.9-2.4,2.9c0,0-5.5,12.4-5.1,16.4
			c0,0,1.1,3.8,2.1,4.9l5,8.3l3.5,5.2c0,0-1.1,2.9-1,3.8c0,0-0.3,2.9-0.5,3.3c0,0-0.6,2.3-0.5,2.6c0,0-1.2,3.5-0.4,6.6
			c0,0,1.8,8.4,0.7,10.8c0,0-0.5,4.2-2.3,4.1c0,0-3.1,0.6-5.1,0.7c0,0-0.9-0.1-2.1-0.1c0,0-3.9,0.7-6.8,0.7c0,0-5.3,0-8.1-0.3
			l-1.6-0.2c0,0-0.5-0.1,0-0.3c0,0,1.1-0.1,2.2,0c0,0,2.3-0.1,1.9-3c0,0-0.8-3.8-3.9-5.1c0,0-1.8-0.9-4.2,0.2c0,0-9.1-0.4-13.2,14.2
			l-0.8,4c0,0,0.3,7.1-2.2-0.4s-0.1-0.3-0.1-0.3s-4-10.2,3.1-17.9l9.7-13.5L286.1,374.5z"/>
	</g>
	<g id="Capa_5_00000081620176719404911570000018322161311969726904_">
		<g class="st3">
			<path class="st6" d="M172.3,716.8c0,0,8.8-12.1,5.8-19.7c0,0,7.8-1,6.4-7.3c-1.4-6.3-9-7.1-9-7.1s-4.4-1.9-4.6,1.7
				c0,0-1.8,0.8-0.4,2.9c0,0-1.2-1-1.8-0.8l0.3,6c0,0,2.2,14.1,1.8,16.3l1.2,8.2L172.3,716.8z"/>
			<path class="st4" d="M145.1,840.8c0,0-3.2,14.8,1.9,32.4c0,0,4.5,27.6,3.5,27.9c0,0,2.6,17.3,1.6,20.6c0,0-0.3,16.1,2.6,29.2
				c0,0,3.9,36.9,1.3,41.4c0,0,2.5,11.2-9.7,14.5c0,0-10.5,5.2,1.7,5.6c0,0,16.3-2.8,19.5-7.6c0,0,3.3-1,3.3-6.6l-0.5-18.6
				c0,0-0.6-10.8-1.6-12.2l-3.4-30.1l-1.4-23.8l-2.5-19.4c0,0-8.2-33.6-6.4-39.3C154.9,854.9,148.6,840.2,145.1,840.8z"/>
			<path class="st9" d="M168.4,1024.5c0,0-14.3,5.4-9.8-3.7c0,0,12.2-12.5,11.5-23.5s-0.9-22.2-3.3-35.6c0,0-2.8-11.2-4.9-38.7
				c0,0,0-14.3-2.1-21.8c0,0-9.8-34.9-7.7-51.2c0,0-4.4-34.3,21.8-26.8c0,0,13.1,1.9,11.5,15.4c0,0-0.2,10.6-2.6,18.7
				c0,0-0.9,14.1-1.2,17.3c0,0-4,26.8,0.2,36.6c0,0,9.8,34.7,6.6,40.1c0,0-4.4,43.3-0.9,48c0,0,6.1,8.7-4.9,11.2c0,0-8,3.5-10.3,9.4
				c0,0-2.1,3.1-2.7,3.1C169.5,1023,168.6,1023.9,168.4,1024.5z"/>
			<path class="st2" d="M151.8,848.5c0,0-3.7-7.1-6.8-7.7c0,0-1.8-1.8-1.9-3.8c0,0,0-1.5-1.3-6.5c0,0-2.6-11.9-2.8-21.7
				c0,0-1-17.1-1-19.3c0,0-1.5-13.2-1.1-19.1c0,0-1.5-15.9,9.1-25.7c0,0,8-6.7,7.8-8.4c0,0,4-2.7,4-1.3c0,0-4.2,20.6,3.6,23.2
				c0,0,7.2,5.4,13-1.8c0,0,4.7-6.8,3.1-11.6c0,0-0.3-2-1.5-5l-1.2-4.1l-0.4-1.3l-0.1-0.8l-0.3-1.1l-0.2-1.1c0,0,3.8,3.6,4.2,4.6
				c0,0,2,4.4,3.1,15.1c0,0,1.4,13.6,1.2,17.5c0,0-0.7,6.1-3,9.3c0,0-6,10.6-6.3,19.8c0,0-0.3,4.1,1.9,7.1c0,0,5.3,4.7,6.7,10
				c0,0,5,18,3.9,23.4l-0.3,3.3l-0.2,0.8l-0.1,0.1l0.2-2.4c0,0,0.1-2.1,0.1-2.3c0,0,1.8-11.7-11.6-14.5c0,0-11.4-4.1-17.4,3.7
				C156.4,826.9,151.2,832.4,151.8,848.5z"/>
			<path class="st4" d="M157.9,735c0,0-4.4,20.5,3.6,23.2c0,0,6.9,5.4,13-1.8c0,0,4.6-6.6,3.1-11.6c0,0-0.7-3.1-1.5-5l-1.6-5.3
				c0,0-0.1-0.7-0.3-1.6l-0.3-1.4c0,0-1.8-11.8-1.7-13.5c0,0-0.8-12.4-1.5-16.4c0,0-0.8-17.5-0.1-18.5c0,0,2-2.9-0.5-28.6
				c0,0-2.8-20.5-6.6-31c0,0-2-9.1-1.4-11.6c0,0-1.4-6.2-3-1.6c0,0-2.3,7-1.9,9c0,0-0.7,1.6-2.2,0.8c0,0-2.6-2-1.9,1.5
				c0,0,3.9,10.6,3.6,13.6c0,0,0.9,9.5,0.3,12.8c0,0-2.6,24,1,34.9c0,0,0.9,13.4,0.1,14.7C158.4,697.7,156.6,731.9,157.9,735z"/>
			<path class="st4" d="M159.1,687.4c0,0-7.2,0.5-12.3,4.1c-2.3,1.6-4.2,3.9-4.9,7c0,0-1.4,4.9-1,8.2c0,0-0.7,7.3,0.9,9.8
				c0,0-0.3,7.8,3.5,8.6c0,0,9.7,0.9,9.9,2.5c0,0,1.8,7-1.2,8.8c0,0,3.7-2.6,4.5-1.8c0,0-0.6-8.1-0.4-9.4l0.3-14.2l0.4-11.3l0.4-8.7
				l0.4-3.2l0.1-0.5L159.1,687.4z"/>
			<g>
				<path class="st4" d="M158.3,719.9c-3.4-9.8-0.9-21.7-5.5-31.5c0-0.1-0.1-0.1-0.1-0.2c-10.5,2.3-10.3,11.3-10.3,11.3
					c0.4,3.6-2.5,7.4-2.5,7.4c-1.5,2.8-1.7,6.3-1.7,6.3c0.5,0.4,0.4,2.8,0.4,2.8c-2.1,5.1,6.1,8.5,6.1,8.5c1.3-0.2,2.2,0.1,2.9,0.5
					C150.9,722.9,154.7,721.6,158.3,719.9z"/>
			</g>
			<path class="st6" d="M158.6,689.6c0-0.6,0-1.2,0-1.8c0-0.1,0-0.2,0-0.4c0-0.1,0-0.3,0-0.4c-1.6,0-7.2,0.3-11.5,3.6
				c0,0,5.6,0.3,5.6,2.5c0,0,1.7,3,3,3.2c0,0,2.2,1.7,2.2,4.6c0,0,0.4-6.9,0.8-11C158.6,689.8,158.6,689.7,158.6,689.6z"/>
		</g>
	</g>
</g>
</svg>
