<?xml version="1.0" encoding="utf-8"?>
<!-- Generator: Adobe Illustrator 27.0.0, SVG Export Plug-In . SVG Version: 6.00 Build 0)  -->
<svg version="1.1" id="Layer_1" xmlns="http://www.w3.org/2000/svg" xmlns:xlink="http://www.w3.org/1999/xlink" x="0px" y="0px"
	 viewBox="0 0 3240 1080" style="enable-background:new 0 0 3240 1080;" xml:space="preserve">
<style type="text/css">
	.st0{fill:#FFFFFF;}
	.st1{opacity:0.3;}
	.st2{fill:#ABA9A8;}
	.st3{fill:#C9C9C9;}
	.st4{fill:#757373;}
	.st5{fill:#BCBAB8;}
	.st6{fill:#CE6EE5;}
	.st7{fill:none;}
</style>
<rect y="-3.16" width="3240" height="1080"/>
<path class="st0" d="M0,1086.37v-25.13c0-11.28,22.63-11.81,39.93-11.81h3156.36c17.3,0,43.71-1.17,43.71,10.11v25.13
	c0,11.28-26.42,19.91-43.71,19.91H39.93C22.63,1104.58,0,1097.65,0,1086.37z"/>
<g class="st1">
	<path class="st2" d="M1091.16,620.46c-0.72,12.37-3.85,15.47-3.85,15.47l-92.39,34.26c-4.01,1.33-8.34,1.38-12.39,0.16
		c-26.47-7.97-30.98-18.74-30.98-18.74c-12.47-8.6-23.06-21.96-28.26-29.16c-2.16-2.98-4.63-5.72-7.45-8.1
		c-9.9-8.34-22.89-23.3-22.89-23.3c-15.76-9.4-18.1-18.62-18.1-18.62c-2.81-13.67,10.65-21.85,10.65-21.85
		c17.38-14.86,31.76,4.38,31.76,4.38c3.63,5.57,10.53,24.63,10.53,24.63c9.3,8.19,23.05,24.91,23.05,24.91
		c10.57,15.17,19.15,23.47,24.42,27.73c3.33,2.69,7.34,4.38,11.57,4.99c39.94,5.79,77.29-9.27,77.29-9.27l23.46-11.13l1.88,0.96
		c1,0.51,1.75,1.54,1.69,2.66L1091.16,620.46z"/>
	<path class="st2" d="M876.94,781.45l-2.71-2.85c-6.14-6.44-13.72-11.35-22.11-14.32c-11.03-3.9-28.06-2.69-34.16-8.68
		c-8.03-7.89-13.1-18.32-14.64-29.47c-1.25-9.07-1.01-22.87,3.59-29.55c0,0,13.19-17.4,33.29-11.58c0,0,36.4,24.66,49.91,42.92
		c0,0,24.14,20.5,27.8,25.18l44.01,34.3c1.99,2.64,10.34,15.6,10.34,15.6c10.97,22.6,3.67,32.49,3.67,32.49
		c-22.08,36.81-80.92,65.01-87.01,69.45c-6.25,4.33-23.39,19.87-23.39,19.87c-0.96,0.99-7.4,14.78-7.31,22.71
		c0.07,6.14-1.4,20.58,1.66,27.15c0.67,1.45,0.64,3.12-0.18,4.49l0,0c-1.38,2.29-3.4,4.14-5.8,5.31l0,0
		c-0.65,0.32-1.4,0.38-2.07,0.13c-0.04-0.01-0.08-0.03-0.12-0.05c-3.15-1.22-5.32-4.1-5.97-7.42c-1.06-5.39-3.84-13.72-3.84-13.72
		c-10.43-17.78-18.57-24.75-18.57-24.75c-1.47-1.25-2.2-5.95-2.2-5.95c-1.38-7.48,7.1-7.94,7.1-7.94
		c16.55-1.67,29.79-18.64,29.79-18.64c1.97-7.27,32.47-46.27,32.47-46.27c3.43-8.42,15.12-14.65,23.23-18.08
		c6.09-2.58,10.51-7.99,11.91-14.45c0.99-4.56-0.39-4.11-3.03-6.98l-28.43-25c-6.33-3.87-12.12-8.55-17.24-13.92L876.94,781.45z"/>
	<polygon class="st3" points="910.82,536.88 909.36,540.22 896.12,540.22 896.79,528.81 905.39,526.64 	"/>
	<path class="st0" d="M918.99,557.52c0.37,0.66,0.79,1.29,1.25,1.89c3.09,3.97,7.46,10.62,7.43,10.22
		c16.5,19.93-20.2,69.41-20.2,69.41c-1.84,1.94-12.21,24.47-12.21,24.47c-4.49,11.86-19.19,35.31-19.19,35.31
		c-1.4,0.88-8.64,15.35-8.64,15.35c-5.93,9.81-14.3,16.96-14.3,16.96l2.41-7.32c1.87-10.04,0.38-16.48,0.38-16.48
		c-3.93-26.16-26.79-21.69-26.79-21.69l-23.06,50.16c0,0-0.56-1.24-2.12-2.81c-1.24-1.25-2.86-2.03-4.59-2.39
		c-7.37-1.54-11.78-6.77-11.78-6.77c-1.11-1.21-2.05-2.84-2.85-4.6c-3.01-6.66-3.36-14.25-1.36-21.28
		c10.32-36.33,35.53-34.47,35.53-34.47c2.82-0.29,12.03-15.36,12.03-15.36s-0.12,0.78,0.07-0.18s2.9-4,2.9-4l8.24-11.35l5.55-7.89
		c2.64-2.86,9.01-16.23,9.01-16.23c4.32-11.56,3.78-17.26,3.22-19.4c-0.28-1.1-0.53-2.2-0.65-3.33c-0.64-5.73-1.97-20.68,0.85-26.38
		c0,0,4.94-26.06,15.8-30.55l33.43,11.41l9.63,17.3L918.99,557.52z"/>
	<path class="st3" d="M901.12,536.59c0,0-15.71-26.3-10.27-28.59c0,0,14.96-2.18,10.28-13.47c0,0-10.63-25.04,32.92-16.79
		c0,0,2.88,6.6,1.45,29c-0.5,7.76-2.66,15.36-6.5,22.11c-0.03,0.06-0.07,0.12-0.11,0.18c-0.36,0.63-0.88,1.17-1.48,1.57l-4.94,3.31
		c-1.92,1.29-4.12,2.1-6.42,2.36l-5.23,0.6c-1.09,0.12-2.18,0.15-3.27,0.09l-6.43-0.39L901.12,536.59z"/>
	<path class="st4" d="M933.94,486.45c0,0,8.96-5-2-12.02c0,0-39.93-24.71-63.23,0.56l-6.39,11.15c0,0,4.73-24.86-19.16-17.31
		c0,0-14.76,1.5-13.61,13.14c0,0-17.39,21.88,3.93,31.57c0,0,21.41,6.97,24.04-8.81c0,0-0.54,11.3,7.65,21.38
		c0,0,3.95,4.21,1.08,5.38l0,0c1.19,1.48,2.91,2.41,4.79,2.6c7.82,0.77,28.75,2.86,31.48,3.41c0,0-10.27-15.55-10.61-23.06
		c0,0-0.62-4.57,0.76-6.3c0,0,0.19-0.43,0.81-0.45l0.63-0.03c0,0,8.35,2.36,8.78-6.64c0,0,0.16-1.05-0.08-1.67
		c0,0-2.16-10.97,5.39-14.86c0,0,4.86-3.35,16.47-0.53C924.48,484.39,930.95,484.91,933.94,486.45L933.94,486.45z"/>
	<path class="st2" d="M1087.23,635.93c0.01,0.26,24.06-32.54,19.98-31.28c-0.59,0.18-8.23,3.62-8.23,3.62l-11.47,8.57
		L1087.23,635.93z"/>
	<path class="st5" d="M716.26,668.1c-0.21-0.16,9.52,38.52,11.09,34.55c0.22-0.57,2.29-8.69,2.29-8.69l2.77-16.12l-16.15-9.73V668.1
		z"/>
	<path class="st5" d="M793.38,733.77c0,0-3.23,23.17-7.22,32.95c0,0-3.01,6.86-4.59,13.28l-4.74,14.67c0,0-12.83,39.58-18.03,48.25
		c0,0-24.11,39.76-26.48,47.09c0,0-8.98,18.95-11.43,33.1c0,0-15.73,44.73-16.11,52.26c0,0-0.22,9.63-16.03,14.8
		c0,0-8.19,2.26-5.24,9.28c0,0,1.04,2.68,2.3,4.3c0.94,1.2,1.74,2.49,2.28,3.91c2.37,6.26,7.55,22.05,7.55,40.34
		c0,0,0.69,8.03,3.1,10.67c0,0,2.29,2.41,6.77-0.8c0,0,3.28-4.73,5.05-8.53c0.37-0.8,0.64-1.64,0.84-2.5
		c1.78-7.74,11.9-51.68,13.01-53.49c0,0,7.71-25.49,12.88-31.06c5-5.64,34.88-47.92,48.58-88.6c0,0,11.14-22.22,13.63-31.37
		c0,0,8.98-18.95,11.74-20.11c0,0,28.45-49.83,36.89-73.57c0,0,9.12-21.37,11.05-23.07l4.45-5.83c0,0-4.4,4.19-8.85,6.94
		c0,0,9.63-20.56-5.76-39.29c0,0-13.43-13.37-28.99-7.27c0,0-19.42,1.83-24.18,34.33c0,0-0.55,1.85-1.39,10.02l-1.1,9.3H793.38z"/>
	<path class="st5" d="M727.49,680.29c-11.65-6.5-11.23-11.31-11.23-11.31l5.84-46.86c0.63-5.04,2.94-9.73,6.59-13.27
		c21.98-21.33,44.47-40.51,44.47-40.51c13.82-6.21,30.74-8.34,39.58-9.06c3.67-0.3,7.3-0.99,10.78-2.17
		c12.26-4.14,31.79-7.5,31.79-7.5c16.21-8.6,25.3-5.83,25.3-5.83c13.15,4.68,13.17,20.44,13.17,20.44
		c3.7,22.56-18.45,20.86-18.45,20.86c-6.65,0.22-28.27,0.28-28.27,0.28c-11.82,3.71-33.25,6.8-33.25,6.8
		c-24.26,1.55-52.3,17.11-63.71,24.05c-3.36,2.04-5.85,5.25-7.01,9c-7.28,23.57-7.92,29.83-7.92,29.83l-2.72,24.09l-1.79,1.11
		c-0.96,0.59-2.17,0.61-3.15,0.06L727.49,680.29z"/>
</g>
<g>
	<polygon class="st3" points="1322.86,529.18 1321.39,532.51 1308.16,532.51 1308.83,521.1 1317.43,518.93 	"/>
	<path class="st5" d="M1143.56,636.75c-9.64-9.22-8.03-13.77-8.03-13.77l17.45-43.88c1.88-4.72,5.3-8.68,9.72-11.18
		c26.64-15.11,53.23-28.02,53.23-28.02c14.94-2.53,31.85-0.34,40.59,1.2c3.63,0.64,7.31,0.88,10.98,0.61
		c12.91-0.92,32.65,0.75,32.65,0.75c17.85-4.24,25.95,0.73,25.95,0.73c11.55,7.84,7.6,23.09,7.6,23.09
		c-2.1,22.77-23.11,15.54-23.11,15.54c-6.49-1.46-27.43-6.85-27.43-6.85c-12.38,0.61-33.89-1.79-33.89-1.79
		c-23.87-4.61-54.93,3.4-67.71,7.24c-3.77,1.13-6.98,3.6-9.05,6.95c-12.98,20.98-15.17,26.87-15.17,26.87l-8.7,22.63l-2.02,0.62
		c-1.08,0.33-2.25,0.05-3.07-0.73L1143.56,636.75z"/>
	<path class="st5" d="M1123.44,1039.13c1.78-7.74,11.9-51.68,13.01-53.49c0,0,7.71-25.49,12.88-31.06c5-5.64,34.88-47.92,48.58-88.6
		c0,0,11.14-22.22,13.63-31.37c0,0,8.98-18.95,11.74-20.11c0,0,35.22-52.24,43.66-75.98c0,0,2.34-18.96,4.28-20.66l6.34-9.45
		c0,0-6.3,7.81-10.74,10.56c0,0,9.63-20.56-5.76-39.29c0,0-13.43-13.37-28.99-7.27c0,0-19.42,1.83-24.18,34.33
		c0,0-0.55,1.85-1.39,10.02l-1.96,0.24c0,0,2.05,3.12,0.86,9.07l-1.27,8.2c0,0-1.96,14.97-5.95,24.75c0,0-3.01,6.86-4.59,13.28
		l-4.74,14.67c0,0-12.83,39.58-18.03,48.25c0,0-24.11,39.76-26.48,47.09c0,0-8.98,18.95-11.43,33.1c0,0-15.73,44.73-16.11,52.26
		c0,0-0.22,9.63-16.03,14.8c0,0-8.19,2.26-5.24,9.28c0,0,1.04,2.68,2.3,4.3c0.94,1.2,1.74,2.49,2.28,3.91
		c2.37,6.26,7.55,22.05,7.55,40.34c0,0,0.69,8.03,3.1,10.67c0,0,2.29,2.41,6.77-0.8c0,0,3.28-4.73,5.05-8.53
		c0.37-0.8,0.64-1.64,0.84-2.5L1123.44,1039.13z"/>
	<path class="st6" d="M1287.96,521.1l33.43,11.41c-1.78,5.3-27.69,13.16-27.69,13.16c-2.33,7.14-4.37,15.37-4.37,15.37
		c9.54,16.63,24.86,12.79,24.86,12.79c13.65-7.86,16.07-22.25,16.07-22.25c4.14,2.55,9.47,10.78,9.44,10.35
		c16.5,19.93-20.2,69.41-20.2,69.41c-1.84,1.94-12.21,24.47-12.21,24.47c-4.49,11.86-19.19,35.31-19.19,35.31
		c-1.4,0.88-8.64,15.35-8.64,15.35c-5.93,9.81-14.3,16.96-14.3,16.96l2.41-7.32c1.87-10.04,0.38-16.48,0.38-16.48
		c-3.93-26.16-26.79-21.69-26.79-21.69l-23.06,50.16c0,0-0.56-1.24-2.12-2.81c-1.24-1.25-2.86-2.03-4.59-2.39
		c-7.37-1.54-11.78-6.77-11.78-6.77c-1.13-1.24-2.09-2.9-2.89-4.7c-3-6.69-3.29-14.28-1.28-21.33
		c10.34-36.18,35.49-34.33,35.49-34.33c2.82-0.29,12.03-15.36,12.03-15.36s-0.12,0.78,0.07-0.18s2.9-4,2.9-4l8.24-11.35l5.55-7.89
		c2.64-2.86,9.01-16.23,9.01-16.23c4.13-11.06,3.82-16.75,3.3-19.1c-0.39-1.75-0.72-3.5-0.9-5.28c-0.66-6.56-1.56-19.51,1.03-24.72
		C1272.16,551.66,1277.1,525.6,1287.96,521.1L1287.96,521.1z"/>
	<path class="st2" d="M1281.28,778.29l-2.71-2.85c-6.14-6.44-13.72-11.35-22.11-14.32c-11.03-3.9-20.37-7.23-26.47-13.22
		c-8.03-7.89-13.1-18.32-14.64-29.47c-1.25-9.07-1.01-22.87,3.59-29.55c0,0,13.19-17.4,33.29-11.58c0,0,36.4,24.66,49.91,42.92
		c0,0,24.14,20.5,27.8,25.18l44.01,34.3c1.99,2.64,10.34,15.6,10.34,15.6c10.97,22.6,3.67,32.49,3.67,32.49
		c-22.08,36.81-80.92,65.01-87.01,69.45c-6.25,4.33-23.39,19.87-23.39,19.87c-0.96,0.99-7.4,14.78-7.31,22.71
		c0.07,6.18-1.42,20.76,1.72,27.27c0.67,1.4,0.56,3.04-0.24,4.37l0,0c-1.38,2.29-3.4,4.14-5.8,5.31l0,0
		c-0.65,0.32-1.4,0.38-2.07,0.13c-0.04-0.01-0.08-0.03-0.12-0.05c-3.15-1.22-5.32-4.1-5.97-7.42c-1.06-5.39-3.84-13.72-3.84-13.72
		c-10.43-17.78-18.57-24.75-18.57-24.75c-1.47-1.25-2.2-5.95-2.2-5.95c-1.38-7.48,7.1-7.94,7.1-7.94
		c16.55-1.67,21.96-21.73,21.96-21.73c1.97-7.27,32.47-46.27,32.47-46.27c5.42-13.29,37.15-20.91,37.15-20.91
		c1.88-3.22,0.59-10.09-1.24-16.34l-32.09-19.64c-6.33-3.87-12.12-8.55-17.24-13.92L1281.28,778.29z"/>
	<path class="st3" d="M1313.16,528.88c0,0-15.71-26.3-10.27-28.59c0,0,14.96-2.18,10.28-13.47c0,0-10.63-25.04,32.92-16.79
		c0,0,2.88,6.6,1.45,29c-0.5,7.76-2.66,15.36-6.5,22.11c-0.03,0.06-0.07,0.12-0.11,0.18c-0.36,0.63-0.88,1.17-1.48,1.57l-4.94,3.31
		c-1.92,1.29-4.12,2.1-6.42,2.36l-5.23,0.6c-1.09,0.12-2.18,0.15-3.27,0.09l-6.43-0.39V528.88z"/>
	<path class="st2" d="M1504.05,611.22c-0.72,12.37-3.85,15.47-3.85,15.47l-92.39,34.26c-4.01,1.33-8.34,1.38-12.39,0.16
		c-26.47-7.97-30.98-18.74-30.98-18.74c-12.47-8.6-23.06-21.96-28.26-29.16c-2.16-2.98-4.63-5.72-7.45-8.1
		c-9.9-8.34-22.89-23.3-22.89-23.3c-15.76-9.4-18.1-18.62-18.1-18.62c-2.81-13.67,10.65-21.85,10.65-21.85
		c17.38-14.86,31.76,4.38,31.76,4.38c3.63,5.57,10.53,24.63,10.53,24.63c9.3,8.19,23.05,24.91,23.05,24.91
		c10.57,15.17,19.15,23.47,24.42,27.73c3.33,2.69,7.34,4.38,11.57,4.99c39.94,5.79,77.29-9.27,77.29-9.27l23.46-11.13l1.88,0.96
		c1,0.51,1.75,1.54,1.69,2.66L1504.05,611.22z"/>
	<path class="st4" d="M1345.97,478.75c0,0,8.96-5-2-12.02c0,0-39.93-24.71-63.23,0.56l-6.39,11.15c0,0,4.73-24.86-19.16-17.31
		c0,0-14.76,1.5-13.61,13.14c0,0-17.39,21.88,3.93,31.57c0,0,21.41,6.97,24.04-8.81c0,0-0.54,11.3,7.65,21.38
		c0,0,3.95,4.21,1.08,5.38l0,0c1.19,1.48,2.91,2.41,4.79,2.6c7.82,0.77,28.75,2.86,31.48,3.41c0,0-10.27-15.55-10.61-23.06
		c0,0-0.62-4.57,0.76-6.3c0,0,0.19-0.43,0.81-0.45l0.63-0.03c0,0,8.35,2.36,8.78-6.64c0,0,0.16-1.05-0.08-1.67
		c0,0-2.16-10.97,5.39-14.86c0,0,4.86-3.35,16.47-0.53C1336.51,476.69,1342.98,477.21,1345.97,478.75L1345.97,478.75z"/>
	<path class="st2" d="M1500.2,626.69c0.01,0.26,24.06-32.54,19.98-31.28c-0.59,0.18-8.23,3.62-8.23,3.62l-11.47,8.57L1500.2,626.69z
		"/>
	<path class="st5" d="M1135.46,623.38c-0.17-0.2-0.48,39.68,2.03,36.22c0.36-0.49,4.41-7.84,4.41-7.84l6.74-14.9l-13.18-13.49
		V623.38z"/>
</g>
<g class="st1">
	<path class="st3" d="M1877.49,423.38c0,0,17.54-7.39,21.93-13.19c0,0,4.73,0.39,6.26,2.19c0,0,4.05,3.55,9.81-1.86
		c0,0,5.63-10.74,17.52-7.11c0,0,5.28,0.43,11.4-7.61c0,0,15.07-14.87,31.68-2.31c0,0,11.89,2.85,0.14,30.16
		c0,0-0.37,3.6-5.81,12.19l-9.97,10.26c0,0-13.88,7.71-16.74,6.78c0,0-8.27-0.58-17.19-4.37c0,0-6.32-6.53-10.99-5.94
		c0,0-5.62-1.44-6.87,0.14l-0.15,0.13c0,0-1.65-0.41-2.18-0.74c0,0-26.75-3.16-29.69-3.26
		C1876.51,438.69,1879.53,439.5,1877.49,423.38L1877.49,423.38z"/>
	<path class="st5" d="M1641.64,801.68c0.3-0.73,0.67-1.65,0.52-2.34l0.07-0.18c0.23-1.61,0.12-2.93,0.12-2.93l0,0"/>
	<path class="st5" d="M1632.75,817.92l2.34,3.49l8.34,8.88c2.34,2.48,4,5.51,4.85,8.82c1.82,7.12,4.16,18,4.34,21.97
		c0.14,2.82,0.48,6.34,0.8,9.23c0.11,0.26,0.14,0.7,0.25,0.95l0.11,0.26l0,0c0.14,0.7,0.29,1.39,0.43,2.09
		c0.22,0.51,0.36,1.21,0.58,1.72c0.11,0.26,0.22,0.51,0.22,0.51c0.29,0.33,0.4,0.59,0.51,0.84c0.11,0.26,0.4,0.59,0.51,0.84
		c1.57,0.85,3.41,0.52,5.87-1.88c1.51-2.16,3.02-4.31,4.6-6.65c1.21-1.42,2.06-3,2.98-4.75c0,0,9.16-38.51,8.08-47.38
		c-0.48-6.63-0.77-10.24-1.08-15.27c-0.42-5.28-1.57-10.28-0.31-15.51c0.45-2.16,1.08-4.25,1.71-6.33c0,0,7.26-55.52,8.81-71.52
		l10.32-51.1l20.91-43.73c5.35-10.61,7.58-20.37,13.95-30.35c16.58-38.41,35.46-52.13,29.21-57.21c0,0-39.14-31.56-39.95-52.73
		c0,0-2.77-4.74-0.04-9.38c0,0-46.8,26.3-39.66,62.11c0,0,10.03,3.47,0.6,38.38c0,0-10.95,14.52-16.83,33.32
		c0,0-3.38,25.93-0.97,45.14c0.63,5.05-0.49,10.16-3.12,14.52l-25.01,41.47c-11.85,19.65-4.16,47.83-4.16,47.83
		c0.39,3.77,0.6,7.48,1.24,11.14c0.68,4.11,1.8,8.18,2.74,12.17c0,0,4.91,17.09,6.02,26.57c0.21,1.76-0.32,3.52-1.45,4.89
		c-3.33,4.03-10.27,13.17-7.75,16.63L1632.75,817.92z"/>
	<path class="st7" d="M1758.62,525.09c0,0-54.59-32.59-43.67-51.43c0,0-0.55-5.22,4.32-8.33c0,0,80.53-79.51,149.08-44.8"/>
	<path class="st0" d="M1719.42,465.21c0,0,76.57-75.63,137.44-49.67l15.52,7.01l5.11,0.84c0,0,2.47,16.02-1.4,15.42
		c0,0-13.91-4.49-18.23-9.89c0,0-30.18-16.04-42.15,17.42c0,0-0.37,25.16,15.19,36.79c0,0,1.87,1.07,4.85,1.11
		c0,0,9.26,0.88,10.42-4.77c0,0,0.91-2.59-2.42-4.68c0,0-2.59-0.91-3.86-2.41c0,0-4.58-3.87-4.64-4.86c0,0-0.82-3.71,2.5-3.16
		c0,0,15.48,7.56,21.75,7.93c0,0,16.74,4.16,18.86,3.92l7.29,1.57l3.16,0.68c0,0-1.72,5.6-9.18,9.61c0,0-17.26,7.41-37.57,7.57
		l-22.38-0.15c0,0-25.95-1-43.54,17.3c0,0-0.76,2.46-7.26,6.69c0,0-3.98,0.79-7.8,6.36c0,0-1.77-0.56-2.16-1.02
		c0,0-37.1-20.52-44.2-43.22c-0.68-0.2-1.84-13.45,4.7-16.41L1719.42,465.21z"/>
	<path class="st5" d="M1859.25,472c0,0,17.57,4.23,18.73,3.77l10.86,2.43c0,0,20.88,4.78,27.6,4.77c0,0,8.94,0.17,10.81-0.38
		c0,0,11.09-0.36,20.48,4.61c0,0,22.22,12.45,30.9,14.14c0,0,44.88,15.98,64.73,14.66c-0.3,0.26,8.19,0.81,15.47,4.2l-0.47,0.66
		c0,0,6.97,10.65,15.64,5.61l20.4-20.17c0,0-16.64,3.26-30.05-3.99c0,0-18.25-6.25-24.06-12.18c0,0-22.93-20.91-64.38-24.01
		c0,0-18.77,0.15-25.45-3.76c-1.37-0.39-2.43-1.04-3.48-1.96c-1.09-0.37-2.18-0.74-3.12-1.23c-3.12-1.23-5.74-3.41-8.84-4.92
		c-0.13-0.15-0.26-0.3-0.41-0.17c-6.47-3.05-13.88-6.59-18.25-9.61c-0.56-0.05-0.96-0.22-1.5-0.54c-0.41-0.17-0.81-0.35-1.22-0.52
		c-0.96-0.22-1.65-0.41-2.48-0.48c-1.24-0.24-2.63-0.35-3.72-0.72c-0.41-0.17-0.68-0.2-0.94-0.5c-9.84-1.22-26.2-3.12-30.26-3.03
		c0,0-10.77-3.54-18.23-9.89c0,0-29.71-16.7-42.15,17.42c0,0-2.13,20.96,12.55,34.9c0,0,3.33,3.67,6.48,3.09
		c0,0,1.98,0.29,2.61,0.09c0,0,2.16,0.46,6.34-1.25l15.4-11.04L1859.25,472z"/>
	<path class="st4" d="M1982.62,399.95c0,0,2.16-16.94-13.83-28.46c0,0-20.41-13.98-39.92-6.48c0,0,2.03-26.57-16.3-19.81
		c0,0-16.95-5.02-21.87,14.17c0,0-6.64,24.79,14.51,22.88l4.36,1.48c0,0-5.02,3.23-5.01,9.95c0,0-1.16,14.18-5.4,16.49
		c0,0,4.86,0.54,6.26,2.19c0,0,4.18,3.7,9.81-1.86c0,0,5.93-10,17.98-6.78c0,0,4.64,0.58,10.65-6.06c0,0,3.96-5.32,14.52-6
		c0,0,1.84-0.57,4.81,0.36c3.6,1.12,8.65,0.77,10.21,4.21l3.53,7.79c0.28,0.02,3.01,3.1,4.51,0.84l0.91-3.45l0.29-1.45
		L1982.62,399.95z"/>
</g>
</svg>
