<?xml version="1.0" encoding="utf-8"?>
<!-- Generator: Adobe Illustrator 27.0.0, SVG Export Plug-In . SVG Version: 6.00 Build 0)  -->
<svg version="1.1" id="Layer_1" xmlns="http://www.w3.org/2000/svg" xmlns:xlink="http://www.w3.org/1999/xlink" x="0px" y="0px"
	 viewBox="0 0 3240 1080" style="enable-background:new 0 0 3240 1080;" xml:space="preserve">
<style type="text/css">
	.st0{fill:#FFFFFF;}
	.st1{opacity:0.3;}
	.st2{fill:#C9C9C9;}
	.st3{fill:none;}
	.st4{fill:#BCBAB8;}
	.st5{fill:#757373;}
	.st6{fill:#ABA9A8;}
	.st7{fill:#CE6EE5;}
</style>
<rect y="-1.89" width="3240" height="1080"/>
<g>
	<path class="st0" d="M2086.45,1082.8c0.07-0.32,0.17-0.63,0.24-1.11c0.48-2.38,0.76-5.08,0.87-7.94c0.14-3.02,0.21-6.03,0.17-9.05
		c-0.03-2.86-0.14-5.71-0.48-8.25c-0.17-1.11-0.38-2.06-0.62-2.86c-0.07-0.32-0.17-0.48-0.24-0.79h-113.1l-28.81,0.16l-7.69,0.16
		c-1.94-0.32-63.75,0.16-65.69-1.11c-0.69-0.48-1.04,1.59-0.97,7.62c0.03,3.65,0,7.14,0.03,10.79c0,13.49-0.14,12.38,1.52,12.38
		h214.76L2086.45,1082.8z"/>
	<path class="st0" d="M2010.58,754.12c-0.65-0.1-1.3-0.25-2.28-0.35c-4.89-0.7-10.43-1.1-16.29-1.25c-6.19-0.2-12.38-0.3-18.57-0.25
		c-5.86,0.05-11.73,0.2-16.94,0.7c-2.28,0.25-4.24,0.55-5.86,0.9c-0.65,0.1-0.98,0.25-1.63,0.35v110.07l0,0v53.7l0.33,41.72
		l0.33,11.13c-0.65,2.81,0.33,92.31-2.28,95.12c-0.98,1,3.26,1.5,15.64,1.4c7.49-0.05,14.66,0,22.15-0.05
		c27.69,0,25.41,0.2,25.41-2.21V754.11l0,0L2010.58,754.12z"/>
	<path class="st0" d="M1953.73,738.14c-14.83-0.01-29.52,2.91-43.39,8.51c-0.16,0.07-0.33,0.13-0.49,0.2
		c-13.59,5.46-23.83,17.65-27.43,25.96l-1.87,7.82c-0.94,11.36-2.98,39.27-2.98,39.27c3.57,3.27,6.64-6.55,6.64-6.55l3.06-25.64
		c3.57-35.46,53.11-34.91,53.11-34.91l137.36,4.36c8.11-4.61,11.33-20.18,1.46-18.99c-3.78,0.46-7.65,0.07-11.47,0.07
		L1953.73,738.14L1953.73,738.14z"/>
</g>
<g>
	<path class="st0" d="M1580.08,1078.53c0.13-0.3,0.33-0.59,0.46-1.04c0.93-2.23,1.45-4.76,1.65-7.43c0.26-2.82,0.4-5.65,0.33-8.47
		c-0.07-2.67-0.26-5.35-0.93-7.73c-0.33-1.04-0.73-1.93-1.19-2.67c-0.13-0.3-0.33-0.45-0.46-0.74h-215.95l-55.01,0.15l-14.68,0.15
		c-3.7-0.3-121.73,0.15-125.43-1.04c-1.32-0.45-1.98,1.49-1.85,7.13c0.07,3.42,0,6.69,0.07,10.11c0,12.63-0.26,11.59,2.91,11.59
		L1580.08,1078.53L1580.08,1078.53z"/>
	<path class="st0" d="M1578.12,973.48L1578.12,973.48c-1.4-3.6-5.17-5.68-8.96-4.94l-137.05,22.55l0,0l-69.46,13.79l-53.93,10.86
		l-14.37,3c-3.69,0.43-122.47,28.69-126.33,28.24c-1.38-0.18-1.66,1.84-0.43,7.36c0.73,3.34,1.3,6.56,2.03,9.9
		c2.46,12.39,112.72-12.83,109.65-13.61c-36-9.19,257.13-48.1,295.3-54.5c3.19-0.53,5.52-3.29,5.52-6.53v-5.62
		C1580.09,980.39,1579.42,976.83,1578.12,973.48L1578.12,973.48z"/>
</g>
<path class="st0" d="M0.2,1057.83c-0.66,6.76,0.54,13.52,0,20.28c433.72,0,873.51,0,1029.6,0c1.63,0,3.26-0.04,4.9-0.05
	c2.44,0,3.56-1.11,3.57-3.22c0.02-4.9,0.06-9.79,0.07-14.69c0-2.18-1.18-3.05-3.69-2.88"/>
<path class="st0" d="M2299.12,1057.83c-0.6,6.76,0.49,13.52,0,20.28c393.09,0,791.68,0,933.15,0c1.48,0,2.96-0.04,4.44-0.05
	c2.21,0,3.23-1.11,3.23-3.22c0.02-4.9,0.05-9.79,0.07-14.69c0-2.18-1.07-3.05-3.35-2.88"/>
<g class="st1">
	<path class="st2" d="M1528.38,423.74c0,0-22.66,1.77-25.13,3.05c-0.18-0.06,2.69-0.8-6.48-13.17c0,0,11.06-14.24,11.99-21.07
		c0,0,4.08-1.87,6.19-1.1c0,0,4.99,1.05,7.24-6.09c0,0-0.33-11.48,11.17-14c0,0,4.56-2.1,5.88-11.57c0,0,5.55-19.27,25.09-16.61
		c0,0,8.32-4.58,11.29,23.43c0,0,1.61,13.65-1.72,19.39l-5.68,9.47c0,0-4.36,8.43-9.11,11.77c-2.7,1.9-7.62,1.96-10.61,0.57
		l-7.97-1.55l-12.16,17.46L1528.38,423.74z"/>
	<path class="st3" d="M1456.1,536.71c0,0-60.2-1.59-59.93-22.21c0,0-2.88-4.06-0.3-8.88c0,0,29.62-103.03,102.34-106.17"/>
	<path class="st0" d="M1471.01,442.1c-5.64-33.18,23.19-31.05,23.19-31.05c6.07,2.45,19.64-0.29,19.64-0.29
		c3.47-1.3-6-13.39-6-13.39l-4.61,1.68l-16.07,1.42c-62.32,6.8-90.47,104.79-90.47,104.79c-4.03,5.48,3.08,15.89,3.73,15.74
		c16.4,15.45,54.94,21.1,54.94,21.1c0.53,0.19,3.87-6.08,3.87-6.08c0.57-6.37,3.49-8.87,3.49-8.87c3.41-6.51,2.9-8.89,2.9-8.89
		c6.04-23.28,27.93-34.49,27.93-34.49l18.55-10.26c16.7-9.56,27.51-23.69,27.51-23.69c4.31-6.78,2.46-13.43,2.46-13.43l-2.93,0.91
		l-6.75,2.08c-1.64,1.19-16.72,6.74-16.72,6.74c-5.35,2.6-21.64,3.54-21.64,3.54L1471,442.1L1471.01,442.1z"/>
	<path class="st4" d="M1466.29,434.15c2.24-23.1,27.21-23.1,27.21-23.1c9.11,1.78,19.64-0.29,19.64-0.29
		c3.32-1.96,17.71-7.99,26.4-11.54c0.35,0.13,0.59,0.02,1.01-0.03c1.07-0.2,2.27-0.75,3.41-1.13c0.72-0.33,1.37-0.49,2.27-0.75
		l1.16-0.14c0.64,0.03,1.07-0.01,1.57-0.24c5.01,0.46,12.77-0.05,19.53-0.53c0.06-0.18,0.24-0.11,0.42-0.05
		c3.26-0.19,6.43,0.39,9.58-0.04c1.01-0.03,2.08-0.23,3.15-0.43c1.29,0.28,2.47,0.32,3.78,0c7.33,0.13,22.76-8.71,22.76-8.71
		c35.68-16.67,64.32-10.04,64.32-10.04c7.55,2.2,25.52-1.1,25.52-1.1c14.44-0.23,26.67-10.64,26.67-10.64l-7.49,26.12
		c-4.82,8.18-15.52,2.62-15.52,2.62l0.08-0.77c-7.59,0.58-14.86,4.06-14.73,3.71c-15.78,10.3-60.26,17.93-60.26,17.93
		c-7.95,2.63-32.08,2.66-32.08,2.66c-10.06,0.26-19.05,5.69-19.05,5.69c-1.29,1.32-8.75,5.33-8.75,5.33
		c-5.54,3.13-25.01,8.87-25.01,8.87l-10.09,3.04c-0.74,0.92-16.2,6.42-16.2,6.42c-4.93,2.56-21.13,2.77-21.13,2.77
		c-1.39,0.02-2.92-0.33-2.92-0.33l-15.72-2.83c-5.92-1.07-10.1-6.48-9.52-12.47L1466.29,434.15z"/>
	<path class="st5" d="M1570.42,345.06c0,0-3.77-14.55-22.33-16.65c0,0-23.35-2.08-35.98,13.17c0,0-10.65-22.88-22.65-8.79
		c0,0-16.33,3.72-11.49,21.85c0,0,6.02,23.56,22.6,12.16l4.28-0.8c0,0-2.65,5,0.48,10.54c0,0,5.62,12.25,3.19,16.13
		c0,0,4.26-1.81,6.19-1.1c0,0,5.17,1.12,7.24-6.09c0,0-0.28-11.07,11.17-14c0,0,3.65-1.24,5.52-9.51c0,0,2.17-10.16,10.57-15.61
		c0,0,6.65-4.51,14.64-2.94l1.18,0.04C1565.27,343.35,1568.33,343.69,1570.42,345.06L1570.42,345.06L1570.42,345.06z"/>
	<path class="st4" d="M1390.58,884.98c-0.09-7.87-0.54-52.75,0.11-54.76c0,0,1.51-26.44,5.22-33.03
		c3.52-6.62,22.55-54.46,26.31-96.99c0,0,5.59-24.08,5.87-33.51c0,0,4.26-20.42,6.66-22.18c0,0,21.88-58.72,24.51-83.64
		c0,0-2.15-18.88-0.68-20.98l0.46-6.99c0,0-0.8,5.39-4.45,9.09c0,0,4.52-22.12-14.72-36.64c0,0-26.73-8.15-41.29-1.3
		c-1.99,0.94-3.37,2.82-3.82,4.98c-0.94,4.49-1.87,14.36,0,34.88c0,0-0.1,1.92,0.99,10.01l-1.84,0.69c0,0,2.71,2.54,2.95,8.57
		l0.68,8.22c0,0,1.6,14.93,0.02,25.32c0,0-1.31,7.34-1.34,13.91l-1.16,15.29c0,0-3.18,41.26-6.19,50.86c0,0-14.04,44.06-14.63,51.7
		c0,0-4.26,20.42-3.34,34.67c0,0-4.79,46.92-3.39,54.28c0,0,2.03,9.36-12.05,18.04c0,0-7.39,4.1-2.9,10.19c0,0,1.63,2.35,3.23,3.62
		c1.19,0.94,2.26,2,3.11,3.25c3.75,5.5,12.44,19.55,16.71,37.24c0,0,2.54,7.6,5.48,9.59c0,0,2.78,1.79,6.36-2.35
		c0,0,2.05-5.3,2.88-9.38c0.18-0.87,0.25-1.76,0.24-2.65L1390.58,884.98z"/>
	<path class="st4" d="M1717.2,391.52l14.11-18.15c0,0,15.05-9.4,10.79-9.77l-17.4,1.79l-7.49,26.12L1717.2,391.52z"/>
</g>
<g>
	<path class="st6" d="M2091.83,109.51c2.48,3.85,5.45,7.36,8.81,10.47c10.22,9.46-2.19,18.49-2.19,18.49
		c-8.51,5.83-25.87,80.46-25.87,80.46c2.25,10.82-25.57,40.2-25.57,40.2c-12.58,13.93-21.2,60.84-21.2,60.84
		c-1.32,5.5-7.87,29.5-7.87,29.5c-0.62,14.86-6.33,32.63-6.33,32.63c-5.03,23.4-27.93,19.09-27.93,19.09
		c-47.91-2.45-21.03-57.07-21.03-57.07c5.8-28.34,42.02-80.88,42.02-80.88c7.77-11.29,15.93-35.11,15.93-35.11
		c19.18-44.6,21.94-38.84,21.94-38.84c11.64-20.95,27.43-39.86,34.87-57.78c5.12-12.34-7.46-36.35,2.16-48.72
		c5.64-7.26,8.65,5.62,8.61,7.57c-0.14,6.77-0.63,4.36,1.01,13.07l2.65,6.09L2091.83,109.51z"/>
	<path class="st7" d="M1958.63,354.39c-4.04,27.89,3.55,38.44,3.18,38.58c10.25,10.23,30.01,7.3,30.01,7.3
		c17.85-5.59,20.17-17.96,20.45-21.92c0.08-1.11,0.26-2.22,0.58-3.29c0.04-0.12,0.79-2.22,0.79-2.22l0.7-1.95l0.51,0.28l0.44,1.68
		l-0.09,5.83c0.92,9.66-11.2,40.23-11.2,40.23c-3.44,9.02-13.6,16.25-13.6,16.25c-4.41,4.84-4.65,12.07-4.65,12.07
		c-1.19,16.16,7.33,35.84,7.33,35.84c3.43,6.03,4.78,16.82,4.78,16.82c-0.38,6.86-6.63,30.42-6.63,30.42
		c-3.93,18.52-8.25,25.85-8.25,25.85c-0.89,1.68-8.21,7.27-8.21,7.27l0.56-1.89l0.73-1.87l0.32-1.38l0.94-2.2l2.87-6.95
		c2.66-5.03,1.8-7.76,1.8-7.76c3.7-8.1-1.5-21.6-1.5-21.6c-8.81-13.69-22.42-5.58-22.42-5.58c-14.14,3.09,0.51,35.43,0.51,35.43
		c-0.26,2.45-6.76,0.09-6.76,0.09c-4.23-2.44-23.23-14.76-23.23-14.76c-16.72-19.14-11.13-46.69-11.13-46.69
		c0.4-10.4,5.5-33.23,5.5-33.23c0.41-3.85,5.36-33.6,5.36-33.6c2.18-17.12,8.96-37.46,8.96-37.46S1950.47,363.45,1958.63,354.39
		L1958.63,354.39z"/>
	<path class="st4" d="M1956.03,550.34c0,0-12.3-29.98,1.02-36.15c0,0,10.79-9.99,23.04-0.64c0,0,9.5,8.82,8.02,16.8
		c0,0-0.52,4.89-1.48,7.98l-1.59,8.46c0,0-0.02,1.09-0.16,2.51l-0.21,2.2c0,0-0.46,18.38,0.1,20.93c0,0,1.41,19.03,1.1,25.28
		c0,0,2.57,26.77,4.01,28.11c0,0,4.14,3.88,5.6,43.54c0,0-0.22,30.02-4.11,47.26c-0.24,1.04-0.05,2.14,0.52,3.04
		c1.98,3.15,7.29,10.27,15.97,12.54c1.06,0.28,1.38,1.6,0.55,2.3c-1.67,1.41-4.46,3.11-8.13,2.97c0,0-17.52-0.2-20.42-2.55
		c0,0-2.43-0.07-4.86,1.53c0,0-4.07,3.71-3.65-1.78c0,0,6.37-28.06,5.17-32.54c0,0-0.58-14.65-2.38-19.51c0,0-9.96-35.76-6.16-53.24
		c0,0-1.47-20.57-3.15-22.34c0.52-0.08-10.38-51.68-8.82-56.72L1956.03,550.34z"/>
	<path class="st4" d="M2017.7,540.91c9.01-1.22,11.23-5.39,14.14-9.38c6.54-8.83,7.72-21.48,7.72-21.48l0.2-1.05l-0.88,0.16
		l-5.65,0.57l-2.32,5.94l-19.9,0.24l-25-0.05c-2.3,0.3-16.53-1.09-16.53-1.09c1.38,1.44-2.86,7.19-2.86,7.19
		c4.08-4,15.04-1.1,15.04-1.1c2.81,0.42,2.77,12.52,2.77,12.52c3.2,8.01,15.46,7.07,15.46,7.07L2017.7,540.91L2017.7,540.91z"/>
	<path class="st4" d="M1986.51,539.47c0.4-2.28-0.09-3.88-0.76-5.12c4-5.54,8.72-24.75,11.86-31.19
		c17.11,6.38,13.25-3.25,30.31,5.25c0.18,0,9.62,12.88,9.8,12.88"/>
	<path class="st5" d="M2025.54,533.61c0,0,2.02,6.21,7.75,0.23c0,0,19.73-24.56,6.83-42.2l-6.17-5.36c0,0,14.93,6.01,13.15-9.83
		c0,0,0.88-9.39-6.53-10.11c0,0-11.51-13.54-20.18-1.43c0,0-6.98,12.5,2.54,16.08c0,0-6.99-1.72-14.28,2.14
		c0,0-13.6,2.01-13.98,0.07l-0.22-0.3c0,0,3.35,20.11,2.51,22.13c0,0,8.5,0.09,13.22,0.8c0,0,2.93,0.17,3.84,1.25
		c0,0,0.24,0.17,0.18,0.56l-0.06,0.39c0,0-0.03,0.33,5.53,1.71c0,0,0.64,0.23,1.05,0.16c0,0,7.11,0,8.61,5.19
		c0,0,1.49,3.45-1.69,10.35c-0.24-0.17-0.77,6.48-2.1,8.16V533.61z"/>
</g>
<g class="st1">
	<path class="st2" d="M2410.31,444.54c0,0-7.73-14.78-13.11-18.19c0,0,0-4.16,1.46-5.63c0,0,2.81-3.79-2.34-8.43
		c0,0-9.79-4.14-7.48-14.78c0,0,0-4.65-7.47-9.4c0,0-14.08-12.08-4.33-27.5c0,0-4.35-9.71,20.36-1.44c0,0,3.51,1.42,8.2,7.38
		l6.04,7.38c0,0,4.04,4.99,5.3,9.25c0,0,3.8,7.98,0.52,16.19c0,0-1.72,4.4-4.03,8.2c0,0,10.03,7.36,11.5,8.33l0.12,0.12
		c0,0-0.24,1.47-0.49,1.96c0,0-0.82,23.6-0.69,26.17c-0.12,0.12,0.36-2.57-13.57,0.39L2410.31,444.54z"/>
	<path class="st3" d="M2534.89,486.01c0,0-1.75,55.69-20.84,55.34c0,0-3.77,2.65-8.22,0.23c0,0-95.18-27.89-97.74-95.18"/>
	<path class="st0" d="M2424.23,428.58c0,0,43.85-9.48,52.61,6.01l9.41,17.21c0,0,10.27,20.31,31.78,26.01c0,0,2.21-0.46,8.21,2.72
		c0,0,2.3,2.71,8.19,3.27c0,0,0.32,1.6,0.14,2.08c0,0,0.05,37.15-14.32,52.25c0.14,0.61-9.52,7.13-14.58,3.38
		c0,0-90.52-26.51-96.52-84.19l-1.24-14.88l-1.53-4.27l17.84-9.6L2424.23,428.58z"/>
	<path class="st5" d="M2382.2,354.44c0,0-14.95-0.66-23.85,14.15c0,0-10.21,17.31-2.23,33.8c0,0-10,2.13-8.02,14.28
		c0,0,2.01,5.82,10.59,9.7c0,0,13.49,4.89,13.65-3.51l1.01-3.44c0,0,3.19,4.15,9.05,3.65c0,0,12.47-0.02,14.8,3.52
		c0,0,0.11-4.28,1.46-5.63c0,0,2.93-3.92-2.34-8.43c0,0-9.17-4.45-7.23-15.21c0,0,0.17-4.1-6.07-8.86c0,0-4.94-3.07-6.3-12.24
		c0,0-0.64-1.56-0.04-4.23c0.72-3.22,0.05-7.61,2.93-9.22l6.55-3.65c0-0.24,2.49-2.85,0.4-4l-3.08-0.55l-1.29-0.15L2382.2,354.44z"
		/>
	<g>
		<path class="st2" d="M2661.8,458.17c-6.33,5.47-15.6,6.4-15.6,6.4c-13.83,0.95-15.02-3.74-22.51-9.53
			c-7.5-5.79-25.61-24.57-25.61-24.57l-30.12-36.66c-0.28,0.55-0.55,1.11-0.82,1.66c-3.74,7.42-7.63,14.76-11.64,22.03
			c-1.89,3.43-3.81,6.85-5.76,10.26c2.29,3.3,4.06,6.61,4.78,7.93c0,0,6.29,12.76,17.46,18.56c0,0,24.18,15.52,30.36,17.83
			c0,0,15.97,3.96,30.98,12.16c3.05,1.66,5.15,4.5,6.55,7.67c0.96,2.17,4.24,3.79,7.12,2c0,0,3.11-2.27,5.18-5.9l17.46-26.76
			c6.16-10.88,2.79-10.65,2.79-10.65c-2.34-1.08-10.63,7.56-10.63,7.56L2661.8,458.17z"/>
		<path class="st2" d="M2568.12,394.11c-4.84-5.89-25.13-4.17-25.13-4.17c-11.73-0.15-18.9,7.62-18.9,7.62
			c-6.16,6.57-9.72,48.65-9.72,48.65c-0.54,5.18-14.7,58.7-14.7,58.7c-2.57,19.74,6.7,27.07,6.7,27.07
			c9.15,15.9,28.06,12.93,28.06,12.93c6.96-1.42,16.22-8.63,17.67-16.52c1.65-8.99,0.09-14.26-0.18-24.12l0.7-29.35
			c0.13-5.43-0.29-10.86-1.26-16.21c-1.88-10.33-4.7-27.69-3-30.36l1.53-0.29L2568.12,394.11L2568.12,394.11z"/>
	</g>
	<path class="st6" d="M2466.13,481.41c0,0,7.75-3.06,14.34-5.76s13.44-4.45,20.48-5.29l9.58-1.13c0,0,10.45,2.14,14.17-0.17
		l24.22-49.75c2.59-5.32,6.5-9.88,11.35-13.26l7.73-5.38c1.2-0.84,1.78-2.32,1.45-3.75l-1.41-6.25c-0.62-2.76-3.06-4.74-5.89-4.77
		l-8.56-0.12c-5.36-0.07-10.3,2.88-12.78,7.63l-13.38,25.61l-12.21,24.78c-0.52,1.06-1.77,1.53-2.86,1.09l0,0
		c-3.34-1.35-6.9-2.11-10.5-2.23l-18.39-0.63l-29.1-2.79c0,0-29.07-3.4-28.55,28.42c0,0,1.77,24.02,40.33,13.76L2466.13,481.41z"/>
</g>
</svg>
