<?xml version="1.0" encoding="UTF-8"?>
<svg id="Layer_2" data-name="Layer 2" xmlns="http://www.w3.org/2000/svg" viewBox="0 0 3240 1080">
  <defs>
    <style>
      .cls-1 {
        fill: #757373;
      }

      .cls-2 {
        fill: #fff;
      }

      .cls-3 {
        fill: #bcbab8;
      }

      .cls-4 {
        fill: #c9c9c9;
      }

      .cls-5 {
        fill: #aba9a8;
      }

      .cls-6 {
        fill: #ce6ee5;
      }

      .cls-7 {
        opacity: .3;
      }
    </style>
  </defs>
  <rect width="3240" height="1080"/>
  <path class="cls-2" d="m533,684.94v-25.13c0-11.28,14.76-11.81,26.04-11.81h2058.64c11.28,0,28.51-1.17,28.51,10.11v25.13c0,11.28-17.23,19.91-28.51,19.91H559.04c-11.28,0-26.04-6.93-26.04-18.21Z"/>
  <path class="cls-2" d="m627.47,1080l179.23-376.85h81.96l-104.94,285.7s-26.81,43.66,14.55,91.15h-170.81Z"/>
  <path class="cls-2" d="m2554.49,1080l-179.23-376.85h-81.96s104.94,285.7,104.94,285.7c0,0,26.81,43.66-14.55,91.15h170.81Z"/>
  <path class="cls-3" d="m943.04,149.54s22.82-12.54,13.06-15.37c-.98-.28-2.03-.14-2.92.37l-19.32,11.04s-29.02,12.62-51.09,32.55c0,0-15.67,16.42-37.14,22.28,0,0-18.57,11.14-25.53,16.45,0,0-4.94,3.65-8.97,5.86,0,0-11.62,8.62-2.53,25.72,0,0,9.3,14.94,18.56,5.4,0,0,1.64,3.55,10.16-6.51,0,0,16.25-13.39,22.3-19.51,0,0,14.19-11.52,24.99-22.47,0,0,24.22-28.59,31.58-33.55l26.85-22.26Z"/>
  <path class="cls-3" d="m661.92,637.21c1.5-6.55,10.08-43.77,11.02-45.31,0,0,6.53-21.59,10.91-26.31,4.23-4.78,29.54-40.59,41.14-75.05,0,0,9.44-18.82,11.55-26.57,0,0,7.61-16.05,9.94-17.04,0,0,29.83-44.25,36.98-64.35,0,0,1.99-16.06,3.63-17.5l5.37-8s-5.33,6.61-9.1,8.94c0,0,8.16-17.41-4.88-33.27,0,0-11.37-11.32-24.56-6.15,0,0-16.45,1.55-20.48,29.08,0,0-.46,1.57-1.18,8.48l-1.66.2s1.73,2.64.73,7.68l-1.08,6.94s-1.66,12.68-5.04,20.97c0,0-2.55,5.81-3.89,11.24l-4.01,12.42s-10.87,33.53-15.27,40.87c0,0-20.42,33.67-22.43,39.88,0,0-7.61,16.05-9.68,28.04,0,0-13.33,37.89-13.64,44.26,0,0-.19,8.16-13.57,12.53,0,0-6.93,1.92-4.44,7.86,0,0,.88,2.27,1.95,3.64.79,1.02,1.47,2.11,1.93,3.31,2.01,5.3,6.4,18.67,6.4,34.17,0,0,.58,6.8,2.62,9.04,0,0,1.94,2.04,5.73-.68,0,0,2.78-4.01,4.28-7.22.32-.68.54-1.39.71-2.12Z"/>
  <path class="cls-6" d="m787.89,224.32c-.05-3.72,13.74-17.72,13.74-17.72,2.39-.24,5.16-7.39,5.16-7.39l17.41,10.05c-1.5,4.48-18.06,10-18.06,10-1.98,6.05-3.7,13.02-3.7,13.02,8.08,14.09,21.06,10.83,21.06,10.83,11.56-6.66,13.61-18.85,13.61-18.85,3.51,2.16,8.02,9.13,7.99,8.77,13.97,16.88-17.11,58.79-17.11,58.79-1.56,1.64-10.34,20.73-10.34,20.73-3.81,10.05-16.25,29.91-16.25,29.91-1.19.74-7.32,13-7.32,13-5.03,8.31-12.11,14.36-12.11,14.36l2.04-6.2c1.58-8.5.32-13.96.32-13.96-3.33-22.16-22.69-18.37-22.69-18.37l-19.53,42.49s-.47-1.05-1.79-2.38c-1.05-1.06-2.43-1.72-3.89-2.02-6.25-1.31-9.98-5.73-9.98-5.73-.96-1.05-1.77-2.46-2.45-3.98-2.54-5.67-2.79-12.09-1.08-18.06,8.76-30.65,30.06-29.07,30.06-29.07,2.39-.24,10.19-13.01,10.19-13.01,0,0-.1.66.06-.15s2.46-3.39,2.46-3.39l6.98-9.62,4.7-6.68c2.24-2.42,7.63-13.75,7.63-13.75,3.5-9.37,3.23-14.19,2.79-16.18-.33-1.48-.61-2.97-.76-4.47-.56-5.56-1.32-16.53.87-20.94Z"/>
  <path class="cls-5" d="m880.31,554.55c.1-1.35-.52-2.62-1.59-3.46-4.84-3.78-9.29-15.24-11.7-19.85-3.12-5.95-3.57-18.83-3.23-19.94,0,0,.84-22.54,3.89-28.21,2.89-5.69,18.7-49.12,21.2-85.39,0,0,1.7-10.26-15.28-23.1,0,0-11.28-6.57-13.8-7.79l-26.46-12.19-21.11-10.98c-4.56-2.12-29.36-11.14-29.36-11.14-17.23-8.58-27.47-7.16-27.47-7.16-17.41,3.34-20.66,21.55-20.66,21.55-1.41,10.67-2.23,13.5,1.21,19.15,0,0,3.96,18.01,27.94,14.93,7.57-.97,15.25-.27,22.45,2.26l12.07,4.24s12.38,5.03,25.09,9.71c6.05,2.23,11.5,5.82,15.93,10.51,3.8,4.02,7.45,8.74,7.27,11.9,0,0-3.29,17.46-2.26,29.58,0,0-1.89,45.38-.58,51.63,0,0,3.63,17.22-8.21,24.85,0,0-6.22,3.61-2.3,8.72,0,0,2.36,3.27,3.95,3.64,0,0,8.83,2.13,23.54,11.53,0,0,5.3,5.21,8.18,8.87,1.76,2.25,4.52,3.59,7.36,3.3.04,0,.07,0,.11-.01.6-.07,1.15-.41,1.51-.89h0c1.36-1.81,2.17-3.98,2.33-6.24h0Z"/>
  <path class="cls-4" d="m829.25,209.37s-12.88-20.13-8.69-22.04c0,0,11.61-2.06,7.69-10.75,0,0-8.89-19.27,25.26-13.88,0,0,5.78,3.12,4.11,26.85,0,0-5.74,16.87-8.2,17.76l-6.63,2.25-6.99-.93-6.57.75Z"/>
  <path class="cls-1" d="m857.06,171.37s6.87-4.11-1.85-9.33c0,0-35.15-20.18-52.71.09l-4.71,8.84s3.09-19.49-15.35-13.03c0,0-11.47,1.52-10.29,10.57,0,0-13.03,17.47,3.82,24.52,0,0,16.86,4.92,18.53-7.45,0,0-.15,8.82,6.47,16.48,0,0,3.18,3.19.97,4.17l-.3.35s26.08,3.01,28.72,3.46c0,0-8.38-11.88-8.83-17.72,0,0-.6-3.55.44-4.93,0,0,.14-.34.62-.37l.49-.04s6.56,1.64,6.68-5.39c0,0,.1-.82-.1-1.3,0,0-1.95-8.5,3.84-11.72,0,0,3.71-2.73,12.83-.81-.14.34,8.35,2.47,10.72,3.59Z"/>
  <path class="cls-5" d="m954.03,89.06c11.35.15-9.71,21.41-9.71,21.41l-21.33,24.43c-8.82,5.38-38.43,45.49-38.43,45.49-11.12,14.5-25.99,30.56-25.99,30.56-6.23,8.1-23.25,26.69-23.25,26.69-8.62,12.93-10.81,9.68-10.81,9.68-9.51,12.6-23.74-5.09-23.74-5.09-11.83-15.33,5.37-22.97,5.37-22.97,4.87-2.84,20.97-11.58,20.97-11.58,7.32-7.52,22.05-18.44,22.05-18.44,22.55-14.09,39.33-34.26,39.33-34.26,22.94-27.08,45.83-51,45.83-51l16.55-12.06.89-1.55c.47-.81,1.33-1.33,2.27-1.32Z"/>
  <g class="cls-7">
    <path class="cls-3" d="m1249.71,222.54s25.65-6.32,16.83-11.65c-.88-.53-1.96-.67-2.96-.4l-21.83,5.77s-31.75,4.77-58.6,18.53c0,0-19.66,11.99-42.24,12.11,0,0-21.12,6.06-29.33,9.44,0,0-5.8,2.28-10.33,3.4,0,0-13.65,5.41-9.21,24.55,0,0,5.2,17.08,16.78,10.15,0,0,.68,3.91,11.66-3.73,0,0,19.43-8.87,26.97-13.28,0,0,16.93-7.57,30.38-15.48,0,0,31.22-21.68,39.74-24.61l32.14-14.79Z"/>
    <path class="cls-3" d="m977.86,369s.81,3.1-1.8,7.62l-3.3,6.32s-5.72,11.64-11.67,18.5c0,0-4.34,4.76-7.4,9.54l-7.9,10.63s-21.37,28.67-27.99,34.3c0,0-30.59,25.7-34.54,31.02,0,0-12.54,12.95-18.44,23.78,0,0-26.95,37.38-29.33,43.4,0,0-6.54,16.62-20.83,16.46,0,0-7.29-.42-6.82,6.1,0,0,.17,4.08,1.31,5.29,0,0,5.65,12.32,11.02,30.63l2.19,21.41s-.57,9.03-.18,11.11c0,0,.21,1.27,2.23,1.71,0,0,.57.08,2.31-.82.08-.04.15-.09.21-.14.24-.2.86-.75,1.37-1.18.38-.32.7-.69.96-1.11,1.25-2.02,4.83-8.76,9.01-25.05,0,0,6.7-43.09,8.25-44.38,0,0,13.3-18.62,19.05-21.72,5.62-3.21,43.41-34.69,65.78-64.02,0,0,15.2-15.01,19.75-21.77,0,0,12.54-12.95,15.1-13.13,0,0,43.08-32.8,56.5-49.79,0,0,7.14-14.79,9.19-15.64l7.77-5.94s-7.28,4.61-11.65,5.63c0,0,13.51-14.07,6.15-33.56,0,0-7.24-14.58-21.59-13.91,0,0-16.31-3.87-29.15,21.27,0,0-.96,1.36-3.89,7.77l-1.66-.35Z"/>
    <path class="cls-2" d="m984.88,378.9c-.67-1.36-1.77-2.44-3.07-3.21-5.58-3.29-7.72-8.76-7.72-8.76-.58-1.32-.9-2.94-1.06-4.62-.59-6.27,1.26-12.53,4.85-17.71,18.4-26.6,38.35-18.15,38.35-18.15,2.38.54,14.03-9.18,14.03-9.18,0,0-.31.61.11-.12s3.46-2.45,3.46-2.45l9.83-6.97,6.7-4.89c2.94-1.6,11.81-10.73,11.81-10.73,8.98-11.01,7.96-15.85,7.96-15.85.05-4.57,5.32-11.58,5.32-11.58,1.01-5.92,2.3-7.64,2.3-7.64,1.59-2.56,1.17-3.59,1.17-3.59,1.17-3.59,11.25-8.58,11.25-8.58,2.38.54,14.68-9.75,14.68-9.75l-4.27,6.13c-2.91,3.82-7.65,9.98-7.65,9.98-3.87,5.17-3.04,14.24-3.04,14.24,3.18,16.17,16.7,17.26,16.7,17.26,13.28-2.63,19.22-13.67,19.22-13.67,2.67,3.22,4.73,11.39,4.83,11.03,7.93,20.77-35.59,50.91-35.59,50.91-2.04,1.07-16.69,16.55-16.69,16.55-6.93,8.41-25.36,23.44-25.36,23.44-1.38.33-11.27,10.11-11.27,10.11-7.54,6.35-16.31,9.85-16.31,9.85l3.98-5.29c4.29-7.65,4.85-13.31,4.85-13.31,4.02-22.38-15.81-25.04-15.81-25.04l-32.61,34.46s-.11-1.16-.95-2.87Z"/>
    <path class="cls-5" d="m994.33,389.57c6.86,3.25,12.79,8.17,17.4,14.19l7.89,10.31s11.16,16.12,20.9,28.79c0,0,6.2,19.97,2.27,25.3,0,0-12.49,12.99-18.35,23.85,0,0-26.81,37.48-29.17,43.51,0,0-6.48,16.64-20.77,16.54,0,0-7.29-.39-6.8,6.13,0,0,.19,4.08,1.33,5.29,0,0,13.02,14.85,26.02,26.88,3.03,2.8,6.68,4.82,10.67,5.87l7.4,1.93c1.16-.11,2.32-1.09,3.15-1.98.66-.71.46-1.84-.4-2.28l-3.05-1.55c-1.04-.37-2.69-2.2-4.33-4.34-3.61-4.69-5.25-10.6-4.68-16.48.66-6.78,1.64-15.23,2.56-15.99,0,0,13.24-18.67,18.97-21.79,5.61-3.23,43.17-31.31,65.43-60.72,0,0,7.14-7.77-.14-28.1,0,0-5.93-11.84-7.39-14.28l-15.7-25.04-11.83-21.05c-2.69-4.34-18.74-25.77-18.74-25.77-9.86-16.85-19.35-21.34-19.35-21.34-16.64-6.83-29.51,6.82-29.51,6.82-7.13,8.28-9.39,10.22-9.61,16.93,0,0-6.72,17.7,15.83,28.39Z"/>
    <path class="cls-4" d="m1123.11,252.21s-5.82-23.53-1.17-24.01c0,0,11.82,1.8,10.89-7.82,0,0-2.27-21.41,28.79-5.11,0,0,4.54,4.88-4.79,27.14,0,0-11.01,14.33-13.66,14.39h-7.1l-6.41-3.17-6.55-1.42Z"/>
    <path class="cls-1" d="m1162.21,224.75s7.94-1.71,1.26-9.56c0,0-27.2-30.84-50.67-17.09l-7.41,6.96s9.32-17.72-10.51-17.52c0,0-11.52-2.27-13.34,6.81,0,0-18.22,12.54-4.31,24.8,0,0,14.59,10.22,20.23-1.12,0,0-3.01,8.43.85,17.94,0,0,2.02,4.1-.43,4.32l-.4.24s24.08,11.39,26.47,12.68c0,0-4.19-14.14-2.71-19.9,0,0,.58-3.6,2.03-4.59,0,0,.24-.28.72-.16l.48.12s5.77,3.71,8.18-3c0,0,.36-.76.33-1.28,0,0,.89-8.8,7.51-10.01,0,0,4.45-1.41,12.59,3.4-.24.28,7.22,5.09,9.13,6.94Z"/>
    <path class="cls-5" d="m1307.13,294.27c6.52,9.49-23.43,4.47-23.43,4.47l-32.73-3.39c-9.62-4.17-60.19-5.25-60.19-5.25-18.53-.73-40.53-3.68-40.53-3.68-10.36-.43-35.73-3.66-35.73-3.66-15.76.41-14.34-3.3-14.34-3.3-16.01-.52-9.66-22.66-9.66-22.66,5.79-18.78,22.18-8.98,22.18-8.98,5.2,2.38,21.86,10.61,21.86,10.61,10.52,1.68,28.18,7.49,28.18,7.49,24.86,10.45,51.41,12.57,51.41,12.57,35.86,3.18,69.09,8.17,69.09,8.17l19.68,6.67,1.8-.17c.94-.09,1.88.33,2.42,1.11Z"/>
  </g>
</svg>