<?xml version="1.0" encoding="utf-8"?>
<!-- Generator: Adobe Illustrator 27.0.0, SVG Export Plug-In . SVG Version: 6.00 Build 0)  -->
<svg version="1.1" id="Layer_1" xmlns="http://www.w3.org/2000/svg" xmlns:xlink="http://www.w3.org/1999/xlink" x="0px" y="0px"
	 viewBox="0 0 3240 1080" style="enable-background:new 0 0 3240 1080;" xml:space="preserve">
<style type="text/css">
	.st0{fill:#FFFFFF;}
	.st1{opacity:0.3;}
	.st2{fill:#C9C9C9;}
	.st3{fill:none;}
	.st4{fill:#757373;}
	.st5{fill:#ABA9A8;}
	.st6{fill:#BCBAB8;}
	.st7{fill:#CE6EE5;}
</style>
<rect y="0" width="3240" height="1080"/>
<g>
	<path class="st0" d="M2086.45,1084.69c0.07-0.32,0.17-0.63,0.24-1.11c0.48-2.38,0.76-5.08,0.87-7.94c0.14-3.02,0.21-6.03,0.17-9.05
		c-0.03-2.86-0.14-5.71-0.48-8.25c-0.17-1.11-0.38-2.06-0.62-2.86c-0.07-0.32-0.17-0.48-0.24-0.79h-113.1l-28.81,0.16l-7.69,0.16
		c-1.94-0.32-63.75,0.16-65.69-1.11c-0.69-0.48-1.04,1.59-0.97,7.62c0.03,3.65,0,7.14,0.03,10.79c0,13.49-0.14,12.38,1.52,12.38
		h214.76L2086.45,1084.69z"/>
	<path class="st0" d="M2010.58,756.01c-0.65-0.1-1.3-0.25-2.28-0.35c-4.89-0.7-10.43-1.1-16.29-1.25c-6.19-0.2-12.38-0.3-18.57-0.25
		c-5.86,0.05-11.73,0.2-16.94,0.7c-2.28,0.25-4.24,0.55-5.86,0.9c-0.65,0.1-0.98,0.25-1.63,0.35v110.07l0,0v53.7l0.33,41.72
		l0.33,11.13c-0.65,2.81,0.33,92.31-2.28,95.12c-0.98,1,3.26,1.5,15.64,1.4c7.49-0.05,14.66,0,22.15-0.05
		c27.69,0,25.41,0.2,25.41-2.21V756l0,0L2010.58,756.01z"/>
	<path class="st0" d="M1953.73,740.03c-14.83-0.01-29.52,2.91-43.39,8.51c-0.16,0.07-0.33,0.13-0.49,0.2
		c-13.59,5.46-23.83,17.65-27.43,25.96l-1.87,7.82c-0.94,11.36-2.98,39.27-2.98,39.27c3.57,3.27,6.64-6.55,6.64-6.55l3.06-25.64
		c3.57-35.46,53.11-34.91,53.11-34.91l137.36,4.36c8.11-4.61,11.33-20.18,1.46-18.99c-3.78,0.46-7.65,0.07-11.47,0.07
		L1953.73,740.03L1953.73,740.03z"/>
</g>
<g>
	<path class="st0" d="M1580.08,1080.41c0.13-0.3,0.33-0.59,0.46-1.04c0.93-2.23,1.45-4.76,1.65-7.43c0.26-2.82,0.4-5.65,0.33-8.47
		c-0.07-2.67-0.26-5.35-0.93-7.73c-0.33-1.04-0.73-1.93-1.19-2.67c-0.13-0.3-0.33-0.45-0.46-0.74h-215.95l-55.01,0.15l-14.68,0.15
		c-3.7-0.3-121.73,0.15-125.43-1.04c-1.32-0.45-1.98,1.49-1.85,7.13c0.07,3.42,0,6.69,0.07,10.11c0,12.63-0.26,11.59,2.91,11.59
		L1580.08,1080.41L1580.08,1080.41z"/>
	<path class="st0" d="M1578.12,975.37L1578.12,975.37c-1.4-3.6-5.17-5.68-8.96-4.94l-137.05,22.55l0,0l-69.46,13.79l-53.93,10.86
		l-14.37,3c-3.69,0.43-122.47,28.69-126.33,28.24c-1.38-0.18-1.66,1.84-0.43,7.36c0.73,3.34,1.3,6.56,2.03,9.9
		c2.46,12.39,112.72-12.83,109.65-13.61c-36-9.19,257.13-48.1,295.3-54.5c3.19-0.53,5.52-3.29,5.52-6.53v-5.62
		C1580.09,982.28,1579.42,978.72,1578.12,975.37L1578.12,975.37z"/>
</g>
<path class="st0" d="M0.2,1059.72c-0.66,6.76,0.54,13.52,0,20.28c433.72,0,873.51,0,1029.6,0c1.63,0,3.26-0.04,4.9-0.05
	c2.44,0,3.56-1.11,3.57-3.22c0.02-4.9,0.06-9.79,0.07-14.69c0-2.18-1.18-3.05-3.69-2.88"/>
<path class="st0" d="M2299.12,1059.72c-0.6,6.76,0.49,13.52,0,20.28c393.09,0,791.68,0,933.15,0c1.48,0,2.96-0.04,4.44-0.05
	c2.21,0,3.23-1.11,3.23-3.22c0.02-4.9,0.05-9.79,0.07-14.69c0-2.18-1.07-3.05-3.35-2.88"/>
<g class="st1">
	<path class="st2" d="M2410.31,446.43c0,0-7.73-14.78-13.11-18.19c0,0,0-4.16,1.46-5.63c0,0,2.81-3.79-2.34-8.43
		c0,0-9.79-4.14-7.48-14.78c0,0,0-4.65-7.47-9.4c0,0-14.08-12.08-4.33-27.5c0,0-4.35-9.71,20.36-1.44c0,0,3.51,1.42,8.2,7.38
		l6.04,7.38c0,0,4.04,4.99,5.3,9.25c0,0,3.8,7.98,0.52,16.19c0,0-1.72,4.4-4.03,8.2c0,0,10.03,7.36,11.5,8.33l0.12,0.12
		c0,0-0.24,1.47-0.49,1.96c0,0-0.82,23.6-0.69,26.17c-0.12,0.12,0.36-2.57-13.57,0.39L2410.31,446.43z"/>
	<path class="st3" d="M2534.89,487.9c0,0-1.75,55.69-20.84,55.34c0,0-3.77,2.65-8.22,0.23c0,0-95.18-27.89-97.74-95.18"/>
	<path class="st0" d="M2424.23,430.47c0,0,43.85-9.48,52.61,6.01l9.41,17.21c0,0,10.27,20.31,31.78,26.01c0,0,2.21-0.46,8.21,2.72
		c0,0,2.3,2.71,8.19,3.27c0,0,0.32,1.6,0.14,2.08c0,0,0.05,37.15-14.32,52.25c0.14,0.61-9.52,7.13-14.58,3.38
		c0,0-90.52-26.51-96.52-84.19l-1.24-14.88l-1.53-4.27l17.84-9.6L2424.23,430.47z"/>
	<path class="st4" d="M2382.2,356.32c0,0-14.95-0.66-23.85,14.15c0,0-10.21,17.31-2.23,33.8c0,0-10,2.13-8.02,14.28
		c0,0,2.01,5.82,10.59,9.7c0,0,13.49,4.89,13.65-3.51l1.01-3.44c0,0,3.19,4.15,9.05,3.65c0,0,12.47-0.02,14.8,3.52
		c0,0,0.11-4.28,1.46-5.63c0,0,2.93-3.92-2.34-8.43c0,0-9.17-4.45-7.23-15.21c0,0,0.17-4.1-6.07-8.86c0,0-4.94-3.07-6.3-12.24
		c0,0-0.64-1.56-0.04-4.23c0.72-3.22,0.05-7.61,2.93-9.22l6.55-3.65c0-0.24,2.49-2.85,0.4-4l-3.08-0.55l-1.29-0.15L2382.2,356.32z"
		/>
	<g>
		<path class="st2" d="M2661.8,460.06c-6.33,5.47-15.6,6.4-15.6,6.4c-13.83,0.95-15.02-3.74-22.51-9.53
			c-7.5-5.79-25.61-24.57-25.61-24.57l-30.12-36.66c-0.28,0.55-0.55,1.11-0.82,1.66c-3.74,7.42-7.63,14.76-11.64,22.03
			c-1.89,3.43-3.81,6.85-5.76,10.26c2.29,3.3,4.06,6.61,4.78,7.93c0,0,6.29,12.76,17.46,18.56c0,0,24.18,15.52,30.36,17.83
			c0,0,15.97,3.96,30.98,12.16c3.05,1.66,5.15,4.5,6.55,7.67c0.96,2.17,4.24,3.79,7.12,2c0,0,3.11-2.27,5.18-5.9l17.46-26.76
			c6.16-10.88,2.79-10.65,2.79-10.65c-2.34-1.08-10.63,7.56-10.63,7.56L2661.8,460.06z"/>
		<path class="st2" d="M2568.12,396c-4.84-5.89-25.13-4.17-25.13-4.17c-11.73-0.15-18.9,7.62-18.9,7.62
			c-6.16,6.57-9.72,48.65-9.72,48.65c-0.54,5.18-14.7,58.7-14.7,58.7c-2.57,19.74,6.7,27.07,6.7,27.07
			c9.15,15.9,28.06,12.93,28.06,12.93c6.96-1.42,16.22-8.63,17.67-16.52c1.65-8.99,0.09-14.26-0.18-24.12l0.7-29.35
			c0.13-5.43-0.29-10.86-1.26-16.21c-1.88-10.33-4.7-27.69-3-30.36l1.53-0.29L2568.12,396L2568.12,396z"/>
	</g>
	<path class="st5" d="M2466.13,483.3c0,0,7.75-3.06,14.34-5.76s13.44-4.45,20.48-5.29l9.58-1.13c0,0,10.45,2.14,14.17-0.17
		l24.22-49.75c2.59-5.32,6.5-9.88,11.35-13.26l7.73-5.38c1.2-0.84,1.78-2.32,1.45-3.75l-1.41-6.25c-0.62-2.76-3.06-4.74-5.89-4.77
		l-8.56-0.12c-5.36-0.07-10.3,2.88-12.78,7.63l-13.38,25.61l-12.21,24.78c-0.52,1.06-1.77,1.53-2.86,1.09l0,0
		c-3.34-1.35-6.9-2.11-10.5-2.23l-18.39-0.63l-29.1-2.79c0,0-29.07-3.4-28.55,28.42c0,0,1.77,24.02,40.33,13.76L2466.13,483.3z"/>
</g>
<g>
	<path class="st6" d="M3073.61,794.13c0,0,5.34,24.68-3.17,54.02c0,0-7.5,46.02-5.84,46.52c0,0-4.33,28.84-2.67,34.35
		c0,0,0.92,3.85-3.91,25.69c0,0-3.85,57.82-4.71,68.02c0,0-1.63,19.68,18.71,25.18c0,0,17.51,8.67-2.83,9.34
		c0,0-27.18-4.67-32.51-12.67c0,0-5.5-1.67-5.5-11l0.83-31.01c0,0,1-18.01,2.67-20.34l5.25-27.19l2.33-39.68l4.17-32.34
		c0,0,13.67-56.02,10.67-65.52c0,0.33,10.67-24.18,16.51-23.34V794.13z"/>
	<path class="st5" d="M3011.95,1061.42c-3.28,0.5-6.7,0-9.24-2.13c-8.74-7.37,0.47-23.73,0.47-23.73c5.84-7.84-1.5-80.03-1.5-80.03
		c-5.34-9,10.58-43.86,10.58-43.86c7-16.34,0.33-61.02,0.33-61.02c-0.5-5.34-2-28.84-2-28.84c-4-13.5-4.33-31.18-4.33-31.18
		c-2.67-22.51,19.17-25.68,19.17-25.68c43.68-12.5,36.35,44.68,36.35,44.68c3.5,27.18-12.84,85.36-12.84,85.36
		c-3.5,12.5-3.5,36.35-3.5,36.35c-3.5,45.85-7.75,41.53-7.75,41.53c-4,22.34-4.33,41.01-5.5,59.35c-1,15.66,23.38,21.06,30.53,22.31
		c1.3,0.23,2.39,1.13,2.82,2.38c4.3,12.37-17.66,5.51-17.66,5.51s-22.15-3.1-35.92-0.99L3011.95,1061.42z"/>
	<path class="st7" d="M3062.28,806.96c0,0,6.17-11.84,11.34-12.84c0,0,3-3,3.17-6.34c0,0,0-2.5,2.17-10.84
		c0,0,4.33-19.84,4.67-36.18c0,0,1.67-28.51,1.67-32.18c0,0,2.5-22.01,1.83-31.84c0,0,2.5-26.51-15.17-42.85
		c0,0-19.13-9.69-23.36-11.57c0,0-6.35-1.57-6.35,0.77c0,0,17.04,28.98,4.04,33.31c0,0-12,9-21.67-3c0,0-6.25-12.19-3.58-20.19
		c0,0-1.08-2.49,0.92-7.49l2-6.84l0.67-2.17l0.17-1.33l0.5-1.83l0.33-1.83c0,0-6.34,6-7,7.67c0,0-3.33,7.34-5.17,25.18
		c0,0-2.33,22.67-2,29.18c0,0,1.17,10.17,5,15.51c0,0,10,17.67,10.5,33.01c0,0,0.5,6.84-3.17,11.84c0,0-8.84,7.84-11.17,16.67
		c0,0-8.34,30.01-6.5,39.01l0.5,5.5l0.33,1.33l0.17,0.17l-0.33-4c0,0-0.17-3.5-0.17-3.83c0,0-3-19.51,19.34-24.17
		c0,0,19.01-6.84,29.01,6.17c-0.33,0.17,8.34,9.34,7.34,36.01L3062.28,806.96z"/>
	<g>
		<g id="Capa_5">
			<path class="st4" d="M3006.01,611.69c0,0-23.34-8.81-26.12-22.14c0,0-11.78,5.75-15.6-4.31s6.04-18.13,6.04-18.13
				s4.39-6.68,7.97-1.84c0,0,3.24-0.53,3.21,3.67c0,0,0.76-2.49,1.78-2.76l5.07,8.64c0,0,9.84,21.66,12.41,24.36l5.83,12.52h-0.6
				L3006.01,611.69z"/>
		</g>
		<path class="st6" d="M3042.82,624.01c0,0,24.9,24.54,16.22,35.62c0,0-4.67,13.84-19.76,9.39c0,0-12.45-4.99-14.94-13.33
			c0,0-1.86-4.96-2.49-8.34l-2.62-8.85c0,0-0.5-1.07-1.05-2.5l-0.86-2.23c0,0-8.29-18.09-9.99-20.37c0,0-10.24-18.01-12.92-24.23
			c0,0-14.9-25.12-16.8-25.87c0,0-5.44-2.21-25.48-40.31c0,0-14.86-31.13-19.18-49.24c0,0-5.54-14.51-8.67-17.45
			c0,0-3.72-9.92,2.72-4.98c0,0,9.61,7.65,10.89,10.8c0,0,2.44,1.59,3.8-0.9c0,0,1.79-5.17,4.02,0.35c0,0,4.27,18.34,7.43,22.25
			c0,0,7.44,14.06,11.3,18.11c0,0,25.59,31.06,30.55,49.55c0,0,11.01,19.5,13.32,20.58c-0.42,0.27,33.49,46.42,34.51,51.93V624.01z"
			/>
		<path class="st6" d="M2997.35,558.73c0,0,10.49-5.89,20.89-5.55c4.67,0.12,9.42,1.59,13.24,5.27c0,0,6.44,5.55,8.9,10.51
			c0,0,7.66,9.53,7.72,14.48c0,0,7.56,10.59,3,15.19c0,0-12.69,10.13-11.51,12.55c0,0,3.64,10.1,8.95,11.13c0,0-6.76-0.2-7.14,1.65
			c0,0-6.58-11.84-8.05-13.46l-13.42-19.51l-10.9-15.38l-8.52-11.76l-3.49-4.09l-0.6-0.61l0.93-0.41L2997.35,558.73z"/>
		<path class="st6" d="M3028.31,603.43c-4.23-16.77-18.61-31.06-21.17-48.93c-0.09-0.14,0.05-0.23-0.04-0.37
			c16.74-6.41,24.7,6.32,24.7,6.32c2.74,5.38,10.26,8.02,10.26,8.02c4.65,2.53,8.14,7.22,8.14,7.22c-0.33,1.02,2.01,4.27,2.01,4.27
			c7.59,5.18-0.72,17.43-0.72,17.43c-1.99,0.91-2.97,2.15-3.58,3.35c-6.47-0.14-12.87,1.67-19.58,2.69H3028.31z"/>
		<path class="st4" d="M3000.2,561.25c-0.55-0.84-1.1-1.67-1.65-2.51l-0.37-0.56l-0.37-0.56c2.23-1.46,10.31-6.17,19.32-5.51
			c0,0-7.53,5.54-5.51,8.61c0,0,0.38,5.74-1.25,7.21c0,0-1.51,4.38,1.15,8.42c0,0-6.87-9.25-11.18-14.6
			c0.14-0.09-0.04-0.37-0.14-0.51V561.25z"/>
	</g>
</g>
</svg>
