<?xml version="1.0" encoding="utf-8"?>
<!-- Generator: Adobe Illustrator 27.0.0, SVG Export Plug-In . SVG Version: 6.00 Build 0)  -->
<svg version="1.1" id="Layer_1" xmlns="http://www.w3.org/2000/svg" xmlns:xlink="http://www.w3.org/1999/xlink" x="0px" y="0px"
	 viewBox="0 0 3240 1080" style="enable-background:new 0 0 3240 1080;" xml:space="preserve">
<style type="text/css">
	.st0{fill:#FFFFFF;}
	.st1{fill:#BCBAB8;}
	.st2{fill:#757373;}
	.st3{fill:#ABA9A8;}
	.st4{fill:#CE6EE5;}
	.st5{opacity:0.3;}
	.st6{fill:#C9C9C9;}
</style>
<rect y="0" width="3240" height="1080"/>
<g>
	<path class="st0" d="M2086.45,1084.69c0.07-0.32,0.17-0.63,0.24-1.11c0.48-2.38,0.76-5.08,0.87-7.94c0.14-3.02,0.21-6.03,0.17-9.05
		c-0.03-2.86-0.14-5.71-0.48-8.25c-0.17-1.11-0.38-2.06-0.62-2.86c-0.07-0.32-0.17-0.48-0.24-0.79h-113.1l-28.81,0.16l-7.69,0.16
		c-1.94-0.32-63.75,0.16-65.69-1.11c-0.69-0.48-1.04,1.59-0.97,7.62c0.03,3.65,0,7.14,0.03,10.79c0,13.49-0.14,12.38,1.52,12.38
		h214.76L2086.45,1084.69z"/>
	<path class="st0" d="M2010.58,756.01c-0.65-0.1-1.3-0.25-2.28-0.35c-4.89-0.7-10.43-1.1-16.29-1.25c-6.19-0.2-12.38-0.3-18.57-0.25
		c-5.86,0.05-11.73,0.2-16.94,0.7c-2.28,0.25-4.24,0.55-5.86,0.9c-0.65,0.1-0.98,0.25-1.63,0.35v110.07l0,0v53.7l0.33,41.72
		l0.33,11.13c-0.65,2.81,0.33,92.31-2.28,95.12c-0.98,1,3.26,1.5,15.64,1.4c7.49-0.05,14.66,0,22.15-0.05
		c27.69,0,25.41,0.2,25.41-2.21V756l0,0L2010.58,756.01z"/>
	<path class="st0" d="M1953.73,740.03c-14.83-0.01-29.52,2.91-43.39,8.51c-0.16,0.07-0.33,0.13-0.49,0.2
		c-13.59,5.46-23.83,17.65-27.43,25.96l-1.87,7.82c-0.94,11.36-2.98,39.27-2.98,39.27c3.57,3.27,6.64-6.55,6.64-6.55l3.06-25.64
		c3.57-35.46,53.11-34.91,53.11-34.91l137.36,4.36c8.11-4.61,11.33-20.18,1.46-18.99c-3.78,0.46-7.65,0.07-11.47,0.07
		L1953.73,740.03L1953.73,740.03z"/>
</g>
<g>
	<path class="st0" d="M1580.08,1080.41c0.13-0.3,0.33-0.59,0.46-1.04c0.93-2.23,1.45-4.76,1.65-7.43c0.26-2.82,0.4-5.65,0.33-8.47
		c-0.07-2.67-0.26-5.35-0.93-7.73c-0.33-1.04-0.73-1.93-1.19-2.67c-0.13-0.3-0.33-0.45-0.46-0.74h-215.95l-55.01,0.15l-14.68,0.15
		c-3.7-0.3-121.73,0.15-125.43-1.04c-1.32-0.45-1.98,1.49-1.85,7.13c0.07,3.42,0,6.69,0.07,10.11c0,12.63-0.26,11.59,2.91,11.59
		L1580.08,1080.41L1580.08,1080.41z"/>
	<path class="st0" d="M1578.12,975.37L1578.12,975.37c-1.4-3.6-5.17-5.68-8.96-4.94l-137.05,22.55l0,0l-69.46,13.79l-53.93,10.86
		l-14.37,3c-3.69,0.43-122.47,28.69-126.33,28.24c-1.38-0.18-1.66,1.84-0.43,7.36c0.73,3.34,1.3,6.56,2.03,9.9
		c2.46,12.39,112.72-12.83,109.65-13.61c-36-9.19,257.13-48.1,295.3-54.5c3.19-0.53,5.52-3.29,5.52-6.53v-5.62
		C1580.09,982.28,1579.42,978.72,1578.12,975.37L1578.12,975.37z"/>
</g>
<path class="st0" d="M0.2,1059.72c-0.66,6.76,0.54,13.52,0,20.28c433.72,0,873.51,0,1029.6,0c1.63,0,3.26-0.04,4.9-0.05
	c2.44,0,3.56-1.11,3.57-3.22c0.02-4.9,0.06-9.79,0.07-14.69c0-2.18-1.18-3.05-3.69-2.88"/>
<path class="st0" d="M2299.12,1059.72c-0.6,6.76,0.49,13.52,0,20.28c393.09,0,791.68,0,933.15,0c1.48,0,2.96-0.04,4.44-0.05
	c2.21,0,3.23-1.11,3.23-3.22c0.02-4.9,0.05-9.79,0.07-14.69c0-2.18-1.07-3.05-3.35-2.88"/>
<g>
	<path class="st1" d="M175.55,1060.4c0,0,13.57,0,13.57-3.61c0-5.14-11.43-5.08-12.68-5.33c-4.6-0.89-17.68-1.21-19.77-12.33
		c-3.24-17.22,1.49-35.29,5.34-56.59c0,0,4.04,4.13,7.46-39.59c0,0,0.04-22.73,3.4-34.65c0,0,15.68-55.46,12.38-81.38
		c0,0,7.09-54.52-34.59-42.67c0,0-20.83,2.99-18.33,24.45c0,0,0.29,16.85,4.08,29.74c0,0,1.39,22.42,1.86,27.51
		c0,0,6.29,42.62-0.42,58.19c0,0-15.24,33.22-10.16,41.81c0,0,6.88,68.85,1.3,76.32c0,0-9.8,12.32,3.57,17.12
		c1.59,0.57,3.29,0.75,4.98,0.63c3.28-0.24,9.86-0.52,16.37,0.34c0,0,10.42-0.28,12.51-0.02
		C166.58,1060.34,173.44,1060.66,175.55,1060.4z"/>
	<g id="Capa_5">
		<path class="st2" d="M133.88,591.91c0,0-15.04-20.68-9.91-33.66c0,0-13.33-1.71-10.94-12.47c2.39-10.77,15.38-12.13,15.38-12.13
			s7.52-3.25,7.86,2.91c0,0,3.08,1.37,0.68,4.96c0,0,2.05-1.71,3.08-1.37l-0.51,10.25c0,0-3.76,24.09-3.08,27.85l-2.05,14.01
			l-0.51-0.34V591.91z"/>
	</g>
	<path class="st3" d="M223.9,1060.99c-15.1,1.97-8.96-16.74-8.96-16.74c2.21-9.77-34.66-74.36-34.66-74.36
		c-8.74-6.22-8.31-45.5-8.31-45.5c-0.23-18.22-25.04-57.31-25.04-57.31c-2.69-4.79-13.86-26.19-13.86-26.19
		c-9.36-10.99-17.02-27.41-17.02-27.41c-11.85-19.98,7.29-32.02,7.29-32.02c35.73-29.87,52.62,26.76,52.62,26.76
		c14.57,24.01,23.44,85.31,23.44,85.31c1.92,13.17,11.82,35.51,11.82,35.51c15.77,44.41,10,42.13,10,42.13
		c5.53,22.59,6.86,54.25,13.88,72.12c0,0,7.58,5.35,29.36,9.7c5.74,1.15,2.14,6.4-0.09,6.6c-6.64,0.6-14.33,0.46-17.28,0.43
		c-3.69-0.04-10.63,0.19-15.4-0.34L223.9,1060.99L223.9,1060.99z"/>
	<path class="st4" d="M175.58,807.04c0,0,0.85-0.3,4.78-3.23c0,0,3.08-3.08,3.25-6.49c0,0,0-2.56,2.22-11.11
		c0,0,4.44-20.34,4.78-37.08c0,0,1.71-29.22,1.71-32.98c0,0,2.56-22.56,1.88-32.64c0,0,2.56-27.17-15.55-43.92
		c0,0-13.67-11.45-13.33-14.35c0,0-6.84-4.61-6.84-2.22c0,0,7.18,35.2-6.15,39.64c0,0-12.3,9.23-22.21-3.08
		c0,0-8.03-11.62-5.3-19.82c0,0,0.51-3.42,2.56-8.54l2.05-7.01l0.68-2.22l0.17-1.37l0.51-1.88l0.34-1.88c0,0-6.49,6.15-7.18,7.86
		c0,0-3.42,7.52-5.3,25.8c0,0-2.39,23.24-2.05,29.9c0,0,1.2,10.42,5.13,15.89c0,0,10.25,18.11,10.77,33.83c0,0,0.51,7.01-3.25,12.13
		c0,0-9.06,8.03-11.45,17.09c0,0-8.54,30.76-6.66,39.99l0.51,5.64l1.09,1.05l0.17,0.17l-0.72-4.38c0,0,0.13-3.34,0.13-3.69
		c0,0-0.37-11.14,19.35-22.34c0,0,10.52-7.98,26.46,3.37c-0.34,0.17,4.77,0.52,17.42,27.85L175.58,807.04z"/>
	<path class="st1" d="M158.49,623.18c0,0,7.52,35.03-6.15,39.64c0,0-11.79,9.23-22.21-3.08c0,0-7.86-11.28-5.3-19.82
		c0,0,1.2-5.3,2.56-8.54l2.73-9.06c0,0,0.17-1.2,0.51-2.73l0.51-2.39c0,0,3.08-20.16,2.91-23.07c0,0,1.37-21.19,2.56-28.02
		c0,0,1.37-29.9,0.17-31.61c0,0-3.42-4.96,0.85-48.87c0,0,4.78-35.03,11.28-52.97c0,0,3.42-15.55,2.39-19.82
		c0,0,2.39-10.59,5.13-2.73c0,0,3.93,11.96,3.25,15.38c0,0,1.2,2.73,3.76,1.37c0,0,4.44-3.42,3.25,2.56c0,0-6.66,18.11-6.15,23.24
		c0,0-1.54,16.23-0.51,21.87c0,0,4.44,41.01-1.71,59.64c0,0-1.54,22.9-0.17,25.12c-0.51,0,2.56,58.61,0.34,63.91L158.49,623.18z"/>
	<path class="st1" d="M156.27,541.67c0,0,12.3,0.85,21.02,7.01c3.93,2.73,7.18,6.66,8.37,11.96c0,0,2.39,8.37,1.71,14.01
		c0,0,1.2,12.47-1.54,16.75c0,0,0.51,13.33-5.98,14.7c0,0-16.58,1.54-16.92,4.27c0,0-3.08,11.96,2.05,15.04c0,0-6.32-4.44-7.69-3.08
		c0,0,1.03-13.84,0.68-16.06L157.46,582l-0.68-19.31l-0.68-14.87l-0.68-5.47l-0.17-0.85l1.03,0.17L156.27,541.67z"/>
	<path class="st1" d="M157.64,597.38c5.81-16.75,1.54-37.08,9.4-53.83c0-0.17,0.17-0.17,0.17-0.34c17.94,3.93,17.6,19.31,17.6,19.31
		c-0.68,6.15,4.27,12.65,4.27,12.65c2.56,4.78,2.91,10.77,2.91,10.77c-0.85,0.68-0.68,4.78-0.68,4.78
		c3.59,8.72-10.42,14.53-10.42,14.53c-2.22-0.34-3.76,0.17-4.96,0.85c-5.47-3.76-11.96-5.81-18.28-8.72L157.64,597.38z"/>
	<path class="st2" d="M157.29,545.43v-3.08c0-0.17,0-0.34,0-0.68v-0.68c2.73,0,12.3,0.51,19.65,6.15c0,0-9.57,0.51-9.57,4.27
		c0,0-2.91,5.13-5.13,5.47c0,0-3.76,2.91-3.76,7.86c0,0-0.68-11.79-1.37-18.8C157.28,545.94,157.28,545.6,157.29,545.43
		L157.29,545.43z"/>
</g>
<g class="st5">
	<path class="st1" d="M696.17,774.52c-11.49-3.03-12.2-7.27-12.2-7.27l-5.34-41.73c-0.57-4.49,0.39-9.05,2.75-12.91
		c14.24-23.27,29.4-44.81,29.4-44.81c10.55-8.42,24.68-14,32.15-16.58c3.1-1.07,6.08-2.47,8.83-4.26
		c9.67-6.29,25.77-13.51,25.77-13.51c12.08-11.01,20.54-10.63,20.54-10.63c12.38,1.13,15.89,14.72,15.89,14.72
		c8.19,18.65-11.31,22.08-11.31,22.08c-5.69,1.66-24.34,6.5-24.34,6.5c-9.38,5.82-27.18,13.23-27.18,13.23
		c-20.6,6.71-41.35,26.35-49.65,34.86c-2.45,2.51-3.89,5.82-4.06,9.32c-1.07,21.95-0.23,27.5-0.23,27.5l2.98,21.39l-1.3,1.35
		c-0.7,0.72-1.74,1.01-2.71,0.75L696.17,774.52z"/>
	<path class="st1" d="M625.66,1050.97c1.79-6.84,11.99-45.7,13.03-47.29c0,0,7.55-22.49,12.31-27.31
		c4.6-4.89,32.35-41.73,45.65-77.59c0,0,10.52-19.49,12.99-27.57c0,0,8.51-16.64,10.99-17.59c0,0,32.77-45.57,40.93-66.48
		c0,0,2.6-16.82,4.37-18.29l5.91-8.24c0,0-5.82,6.78-9.85,9.11c0,0,9.13-18.04-4.07-35.14c0,0-11.6-12.26-25.62-7.25
		c0,0-17.34,1.1-22.46,29.92c0,0-0.54,1.63-1.51,8.88l-1.76,0.16c0,0,1.74,2.83,0.53,8.1l-1.35,7.27c0,0-2.15,13.28-5.97,21.88
		c0,0-2.86,6.03-4.44,11.7l-4.62,12.93c0,0-12.5,34.9-17.36,42.48c0,0-22.54,34.75-24.85,41.22c0,0-8.51,16.64-11.07,29.17
		c0,0-15.22,39.41-15.75,46.1c0,0-0.46,8.57-14.67,12.75c0,0-7.35,1.79-4.91,8.12c0,0,0.85,2.42,1.94,3.89
		c0.8,1.09,1.48,2.27,1.92,3.55c1.94,5.64,6.13,19.84,5.64,36.12c0,0,0.4,7.17,2.47,9.59c0,0,1.98,2.21,6.05-0.53
		c0,0,3.05-4.13,4.72-7.46c0.35-0.7,0.62-1.44,0.82-2.2H625.66z"/>
	<path class="st0" d="M786.13,594.1l29.46,11.06c-1.72,4.67-25.01,10.97-25.01,10.97c-2.27,6.3-4.31,13.57-4.31,13.57
		c8.05,15.07,21.79,12.06,21.79,12.06c12.37-6.64,14.91-19.38,14.91-19.38c3.62,2.38,8.14,9.86,8.13,9.47
		c14.15,18.19-19.86,61.26-19.86,61.26c-1.69,1.68-11.53,21.46-11.53,21.46c-4.32,10.44-18.04,30.92-18.04,30.92
		c-1.27,0.74-8.11,13.43-8.11,13.43c-5.55,8.58-13.19,14.71-13.19,14.71l2.34-6.45c1.93-8.89,0.78-14.67,0.78-14.67
		c-2.8-23.41-23.27-20.04-23.27-20.04l-21.89,44.05c0,0-0.46-1.12-1.81-2.56c-1.07-1.15-2.5-1.88-4.02-2.25
		c-6.53-1.57-10.31-6.34-10.31-6.34c-0.97-1.13-1.78-2.64-2.45-4.26c-2.49-6.04-2.54-12.8-0.56-19.03
		c10.19-31.94,32.53-29.61,32.53-29.61c2.52-0.18,11.13-13.36,11.13-13.36s-0.12,0.69,0.07-0.16c0.2-0.85,2.69-3.48,2.69-3.48
		l7.64-9.89l5.16-6.88c2.43-2.47,8.46-14.21,8.46-14.21c3.98-9.74,3.85-14.82,3.45-16.92c-0.3-1.57-0.55-3.14-0.66-4.73
		c-0.41-5.86-0.86-17.42,1.58-21.99c0,0,5.1-23.07,14.89-26.78L786.13,594.1z"/>
	<path class="st3" d="M770.86,1025.88c0.75-1.16,0.89-2.62,0.33-3.88c-2.62-5.89-0.9-18.83-0.79-24.33
		c0.13-7.06,6.24-19.16,7.12-20.02c0,0,12.19-20.36,17.87-24.04c5.54-3.79,42.11-35.82,62.77-68.01c0,0,6.76-8.6-2.4-29.03
		c0,0-7.08-11.77-8.78-14.17l-18.23-24.63l-13.91-20.81c-3.13-4.27-21.44-25.14-21.44-25.14c-11.54-16.63-43.29-39.57-43.29-39.57
		c-17.74-5.73-29.96,9.41-29.96,9.41c-4.28,5.82-4.86,18.11-3.99,26.22c1.07,9.97,5.3,19.39,12.24,26.64
		c5.26,5.5,13.49,8.72,23.21,12.49c7.39,2.87,14.01,7.44,19.3,13.34l8.98,10.02c0,0,8.86,10.88,18.2,21.63
		c4.47,5.14,7.69,11.25,9.41,17.84c1.46,5.61,2.43,11.77,0.67,14.58c0,0-11.87,14.43-17.06,26.12c0,0-24.71,40.89-26.67,47.31
		c0,0-5.37,17.72-20.15,18.76c0,0-7.56,0.18-6.54,6.88c0,0,0.52,4.21,1.8,5.36c0,0,7.06,6.43,15.87,22.54c0,0,2.25,7.49,3.05,12.32
		c0.49,2.97,2.35,5.6,5.12,6.77c0.03,0.01,0.07,0.03,0.1,0.04c0.59,0.24,1.26,0.21,1.85-0.06l0,0c2.17-0.98,4.02-2.57,5.31-4.58l0,0
		H770.86z"/>
	<path class="st6" d="M813.85,604.74c0,0-9.61-25.55-4.48-26.69c0,0,13.46,0.45,11.15-10.18c0,0-5.36-23.64,31.52-9.51
		c0,0,1.48,6.24-3.32,25.66c-1.66,6.72-4.76,13.04-9.2,18.36c-0.04,0.05-0.08,0.1-0.12,0.14c-0.42,0.5-0.95,0.88-1.55,1.14
		l-4.85,2.12c-1.89,0.82-3.95,1.19-6,1.05l-4.68-0.3c-0.97-0.06-1.94-0.21-2.88-0.44l-5.58-1.36L813.85,604.74z"/>
	<path class="st2" d="M851.52,555.9c-8.42-6.64-35.91-25.76-56.35-10.3l-7.37,8.76c0,0,8.08-21.05-14.06-18.2
		c0,0-13.18-1.02-14.01,9.37c0,0-18.71,16.43-1.55,28.3c0,0,17.67,9.5,22.47-3.92c0,0-2.26,9.82,3.32,19.95c0,0,2.8,4.31,0.09,4.89
		l0,0c0.81,1.48,2.17,2.57,3.79,3.03c6.73,1.91,24.75,7.05,27.06,7.97c0,0-6.55-15.26-5.66-21.89c0,0,0.18-4.1,1.66-5.4
		c0,0,0.23-0.34,0.79-0.27l0.55,0.07c0,0,6.94,3.39,8.74-4.44c0,0,0.31-0.9,0.2-1.47c0,0-0.16-9.96,7.07-12.18c0,0,2-1.02,7.84-0.94
		c0,0,9.02,1.01,14.28,0.53c1.95-0.18,2.65-2.66,1.12-3.87L851.52,555.9z"/>
	<path class="st3" d="M966.96,741.54c-2.32,11.65-6.52,12.62-6.52,12.62l-70.85-13.56c-26.31-13.59-52.73-29.88-52.73-29.88
		c-9.04-10.02-15.48-23.78-18.51-31.09c-1.26-3.03-2.84-5.91-4.79-8.55c-6.86-9.27-15.05-24.9-15.05-24.9
		c-11.73-11.39-11.86-19.86-11.86-19.86c0.38-12.43,13.73-16.75,13.73-16.75c18.12-9.31,22.73,9.94,22.73,9.94
		c2,5.58,7.97,23.9,7.97,23.9c6.38,9.01,14.86,26.33,14.86,26.33c10.26,26.01,36.79,44.27,36.79,44.27
		c33.6,15.64,62.57,22.07,62.57,22.07l19.32,1.59l1.43,1.22c0.76,0.65,1.11,1.67,0.92,2.66L966.96,741.54z"/>
</g>
</svg>
