<?xml version="1.0" encoding="UTF-8"?>
<svg id="Layer_2" data-name="Layer 2" xmlns="http://www.w3.org/2000/svg" viewBox="0 0 3240 1080">
  <defs>
    <style>
      .cls-1 {
        fill: #757373;
      }

      .cls-2 {
        fill: #fff;
      }

      .cls-3 {
        fill: #bcbab8;
      }

      .cls-4 {
        fill: #c9c9c9;
      }

      .cls-5 {
        fill: #aba9a8;
      }

      .cls-6 {
        fill: #ce6ee5;
      }

      .cls-7 {
        opacity: .3;
      }

      .cls-8 {
        fill: none;
      }
    </style>
  </defs>
  <rect width="3240" height="1080"/>
  <path class="cls-2" d="m533,684.94v-25.13c0-11.28,14.76-11.81,26.04-11.81h2058.64c11.28,0,28.51-1.17,28.51,10.11v25.13c0,11.28-17.23,19.91-28.51,19.91H559.04c-11.28,0-26.04-6.93-26.04-18.21Z"/>
  <path class="cls-2" d="m627.47,1080l179.23-376.85h81.96l-104.94,285.7s-26.81,43.66,14.55,91.15h-170.81Z"/>
  <path class="cls-2" d="m2554.49,1080l-179.23-376.85h-81.96s104.94,285.7,104.94,285.7c0,0,26.81,43.66-14.55,91.15h170.81Z"/>
  <g class="cls-7">
    <path class="cls-3" d="m1415.56,73.51c2.09-10.85,7.91-11.96,7.91-11.96l6.85-1.45c3.02-.64,6.08.8,7.58,3.49,2.72,4.89,3.61,11.23,3.61,11.23.95,3.46,1.44,6.35,1.44,6.35,2.02,8.39,1.84,9.84,1.84,9.84,2,13.51,6.16,25.99,6.16,25.99,4.04,5.1,23.01,47.32,23.01,47.32,6.46,10.58,11.42,27.99,11.42,27.99,2.64,6.11,9.62,10.73,9.62,10.73,1.56,8.58,15.77,41.58,15.77,41.58l5.27,12.21c2.62,5.06,4.58,11.23,4.58,11.23,2.98,8.62,10.23,19.45,10.23,19.45l3.84,6.04,4.58,6.66c4.1,5.78,4.8,7.29,4.8,7.29,15.42,23.8,1.43,40.26,1.43,40.26-5.36,4.9-6.25,4.37-13.01,7.21-12.88,5.42-8.41,8.32-14.65-4.18-2.78-5.57-28.14-44.5-31.78-55.62-6.25-21.7-9.78-44-9.78-44-2.58-8.02-7.35-24.57-7.35-24.57-3.59-7.36-9.01-28.12-9.01-28.12-14.27-34.2-22.67-47.98-22.63-54.49.19-6.56-9.32-27.49-9.32-27.49l-12.41-43.01Z"/>
    <path class="cls-3" d="m1609.48,61.53c7.36-8.24,12.93-6.21,12.93-6.21l6.62,2.27c2.92,1,4.81,3.8,4.72,6.89-.18,5.59-2.66,11.49-2.66,11.49-.96,3.45-2.02,6.19-2.02,6.19-2.56,8.24-3.46,9.39-3.46,9.39-5.21,12.62-8.03,25.48-8.03,25.48.86,6.45-4.5,52.43-4.5,52.43.13,12.39-4.54,29.89-4.54,29.89-.87,6.6,1.71-5.88,1.71-5.88-3.06,8.17-7.78,43.78-7.78,43.78l-1.73,13.19c-.34,5.69-1.82,11.99-1.82,11.99-1.86,8.93-1.19,21.94-1.19,21.94l.2,7.16.52,8.07c.56,7.06.38,8.72.38,8.72,1.04,28.34-15.64,24.93-15.64,24.93-7.12,1.46-11.37,10.91-18.64,9.89-13.83-1.95-11.88-15.32-10.82-29.25.47-6.21-.4-10.35.99-23.22,5.76-21.83,14.78-65.47,14.78-65.47,1.89-8.21,6.29-24.86,6.29-24.86.69-8.16,6.68-28.76,6.68-28.76,5.28-36.68,6.19-32.79,9.55-38.36,3.53-5.53,6.09-28.38,6.09-28.38l11.39-43.29Z"/>
    <g>
      <path class="cls-2" d="m1546.94,312.45c.18.89-4.77,12.62-6.65,15.89-3.18,5.52-17.13,4.59-23.07,4.88-9.9.5-15.31-8.78-15.31-8.78l5.08,9.7c2.37,4.02,6.41,10.19,8.17,12.5,1.35,1.77,2.46,3.62,2.46,3.62l2.93,7.39c1.07,2.71,1.63,5.59,1.65,8.5v2.02c.03,3.25-.74,6.47-2.24,9.35l-3.53,6.81-13.9,34.78c-1.17,3.34-2.48,6.91-3.98,11.18l-4.22,11.13c-1.51,3.48-2.86,12.47-2.86,12.47-.45,5.05-.1,18.67-.1,18.67l.37-7.46c.36-4.81.89-12.6.89-12.6.53-6.47,7.19-12.73,7.19-12.73,13.15-10.05,24.06-1.87,24.06-1.87,8.24,10.82,5.35,15.67,5.35,15.67,4.15-.64,11.15,1.99,10.98,2.32,19.79-10.35,7.1-61.99,7.1-61.99-.82-2.16.9-23.72.9-23.72.39-10.94,6.98-36.25,6.98-36.25-.82-1.16-4.51-17.03-4.51-17.03"/>
      <path class="cls-2" d="m1550.7,316.89s-2.99,18.84-3.81,20.01c0,0-1.28,20.1-.89,31.05,0,0-3.34,20.87-4.16,23.03,0,0,7.24,50.92,27.02,61.27-.17-.33,6.82,4.44,10.97,5.09,0,0-2.88-12.26,5.36-23.08,0,0,10.91-8.18,24.06,1.87,0,0,5.97,6.39,6.5,12.86,0,0-.04,7.52.31,12.33v7.43s2-13.44,1.55-18.49c0,0-1.35-8.99-2.86-12.47l-7.96-21.83c-.94-1.63-3.82-10.28-7.46-18.84,0,0-4.68-12.98-5.93-16.79l-3.7-11.43-2.4-7.41s0-.03-.01-.04c-1.29-4.9-1.35-10.04-.06-14.94l3.49-13.17,1.35-1.94c1.53-1.01,5.05-6.94,4.47-6.52-1.77,1.27-2.58,2.4-5.35,3.77s-2.92,1.95-9.82,3.36c0,0-10.62.67-17.31-2.15-5.15-2.18-9.47-11.97-10.23-17.51"/>
    </g>
    <path class="cls-3" d="m1507.45,636.89s-7.55,23.79-16.02,11.36c0,0-3.47-10.07-.84-10.67,0,0,3.77-12.44,2.24-21.51,0,0-4.56-38.49.95-74.23,0,0,4.68-17.91-1.7-44.2,0,0-1.29-21.24-.4-31.9,0,0,.52-7.49.29-13.12,0,0,1.27-17.65,20.98-18.78,0,0,17.94.43,14.6,16.17,0,0,3.96-.49-.23,14.78,0,0-.72,11.32-2.79,21.53,0,0-2.41,22.17-6.15,40.42,0,0-11.08,49.58-9.33,59.97,0,0-.46,21.26-2.71,31.15.33-.01,1.11,13.05,1.11,19.06Z"/>
    <path class="cls-3" d="m1591.34,633.74s6.29,24.15,15.4,12.18c0,0,4-9.87,1.4-10.62,0,0-3.11-12.62-1.11-21.6,0,0,6.57-38.19,2.94-74.18,0,0-3.74-18.13,4.02-44.05,0,0,2.4-21.14,2.07-31.83,0,0-.13-7.51.4-13.12,0,0-.34-17.69-19.96-19.86,0,0-17.94-.51-15.43,15.38,0,0-3.93-.7-.55,14.77,0,0,.12,11.34,1.66,21.64,0,0,1.25,22.27,4.02,40.68,0,0,8.47,50.1,6.18,60.37,0,0-.66,21.26,1.07,31.25-.33-.03-1.79,12.98-2.11,18.97Z"/>
    <path class="cls-4" d="m1581.61,440.76s-16.54-17.5-19.42-13.8c0,0-4.79,11.02-12.47,5.09,0,0-17.84-15.69-20.58,19.44,0,0,1.96,18.06,25.88,22.01,0,0,5.47,1.35,9.51.05l3.76-1.51c5.98-2.4,8.68-4.71,10.07-11.54l2.19-8.83c.46-1.84.77-3.71.94-5.59l.12-5.32Z"/>
    <path class="cls-1" d="m1529.9,453.95s-6.79,4.52-7.77-5.79c0,0-3.16-41.18,23.18-48.46l10.2-.46s-19.29-5.7-5.26-19.84c0,0,6.43-9.89,14.24-4.84,0,0,21.79-4.34,20.88,14.26,0,0-2.86,17.67-14.97,13.78,0,0,8.18,3.73,12.33,13.18,0,0,.16.48.39,1.22.95,3.06,1.08,6.31.39,9.43h0s-1.16,11.69-1.9,14.32c0,0-4.64,10.28-9.96,10.38,0,0-2.94.39-5.26-.06,0,0-1.82.11-2.53.13l-1.56.09s-4.29,1.94-10.81-1.03c0,0-.8-.27-1.15-.66,0,0-6.19-4.11-11.69-.19,0,0-1.32.74-4.36,2.14-1.13.24-2.14.65-4.38,2.38Z"/>
    <path class="cls-2" d="m1548.27,314.04s1.99,2.34,4.37,0l-.98,4.06-2.24-.11-1.15-3.95Z"/>
  </g>
  <path class="cls-3" d="m1956.97,641.93s-14.85,13.06-23.3,3.67c0,0-1.35-2.65,1.13-3.27,0,0,12.9-3,11.15-10.1,0,0-5.56-30.21-1.47-58.79,0,0,4.73-21.52-2.18-41.99,0,0-1.09-20.99-.58-29.47,0,0,.26-5.95-.14-10.4,0,0,.65-14.03,19.35-15.97,0,0,17.08-.61,14.4,12.02,0,0,3.75-.6.26,11.71,0,0-1.98,20.35-3.63,28.53,0,0-1.59,17.67-4.56,32.31,0,0-8.96,39.82-6.96,47.95,0,0,.24,16.85-1.58,24.79.31-.03,2.68,5.16-1.89,9Z"/>
  <path class="cls-3" d="m2023.83,342.62s2.84,1.15,7.45-.76l6.41-2.34s11.76-3.99,19-8.78c0,0,5.05-3.53,9.97-5.84l11.06-6.18s29.85-16.72,36.01-22.3c0,0,28.18-25.84,33.71-28.93,0,0,13.84-10.29,24.85-14.54,0,0,38.81-20.93,44.82-22.45,0,0,16.58-4.15,18.2-17.72,0,0,.51-6.96,6.64-5.72,0,0,3.85.67,4.86,1.9,0,0,10.99,6.89,27.69,14.25l20.04,4.73s8.64.58,10.57,1.2c0,0,1.18.35,1.35,2.33,0,0,0,.55-1.06,2.09-.05.07-.1.13-.16.18-.22.2-.82.73-1.29,1.16-.35.32-.74.58-1.17.77-2.07.94-8.91,3.5-24.88,5.44,0,0-41.72,1.01-43.12,2.32,0,0-19.32,10.31-22.97,15.38-3.74,4.94-38.3,36.89-68.9,54.48,0,0-16.13,12.56-23.1,16.04,0,0-13.84,10.29-14.33,12.7,0,0-36.45,36.8-54.24,47.43,0,0-14.91,4.94-15.97,6.78l-6.6,6.64s5.28-6.33,6.78-10.36c0,0-15.02,11.07-32.6,1.68,0,0-12.94-8.68-10.52-22.21,0,0-1.65-15.95,23.79-25.02,0,0,1.4-.74,7.85-2.73l-.13-1.62Z"/>
  <path class="cls-3" d="m1842.48,645.18s-20.83,4.27-21.37-10.06c0,0,.69-3.43,3.12-2.58,0,0,12.48,4.6,15.84-3.49,0,0,15.83-33.35,38.4-59.38,0,0,18.32-18.63,26.5-43.08,0,0,13.25-21.54,19.37-29.68,0,0,4.22-5.78,6.89-10.44,0,0,9.97-13.59,26.44-4.51,0,0,14.25,9.44,3.58,20.44,0,0,3.45,1.61-7.68,11.81,0,0-15.31,19.09-22.15,26.27,0,0-13.19,16.66-25.45,29.48,0,0-34.08,34.37-37.93,43.63,0,0-11.15,16.92-17.98,23.75.27.16-1.3,6.72-7.59,7.85Z"/>
  <path class="cls-6" d="m1957.66,510.89s8.14-8.81,6.39-21.64c0,0-5.2-11.9-20.82-9.74,0,0-8.47,2.07-11.94,7.18,0,0-4.1,6.21-6.65,10.02l-4.22,5.78s5.48-14.34,4.25-16.32c0,0,1.38-10.68,4.27-12.85,0,0,1.06.06,2.88-2.17,0,0,1.16-1.7,6.2-4.46,0,0,4.71-6.95,8.83-8.42,0,0,4.7-.58,11.87-12.13,0,0,5.5-10.87,6.03-14.02l2.34-7.58,3.25-11.07s.61-3.29,1.14-3.9c.53-.61.08-.14.08-.14,0,0,.61-3.29-.62-5.27,0,0-16.87-19.5,8.74-47.98,0,0,4.12-5.29,16.96-9.58,0,0,9.18-4.57,13.32.9l.96-.72s-26.58,21.91-15.86,42.62c0,0,8.58,17.12,27.58,6.52,0,0,4.94-2.27,10.53-8.53l3.55-5.25s-.44,9.03-3.84,17.83c0,0-5.77,11.98-5.64,13.34,0,0-7.86,21.35-13.32,30.24,0,0-9.45,18.07-9.78,20.25,0,0-13.73,48.75-34.99,48.04.29-.2-7.74.48-11.48-.93Z"/>
  <path class="cls-5" d="m2004.06,344.12s3.06-.25,6.31-4.03l4.67-4.97s8.71-8.85,13.03-16.39c0,0,2.93-5.42,6.28-9.69l7.11-10.49s19.16-28.35,22.14-36.11c0,0,13.56-35.74,17.11-40.99,0,0,7.74-15.41,15.66-24.16,0,0,25.26-36.14,29.95-40.19,0,0,12.95-11.15,8.3-24.01,0,0-2.68-6.45,3.36-8.09,0,0,3.74-1.13,5.19-.48,0,0,12.91,1.22,31.14.29l20.03-4.78s7.98-3.36,9.98-3.67c0,0,1.22-.21,2.25,1.47,0,0,.26.49,0,2.34-.01.08-.03.16-.06.24-.11.28-.4,1.02-.63,1.61-.17.44-.4.85-.7,1.22-1.43,1.77-6.38,7.13-19.78,16.04,0,0-36.81,19.65-37.48,21.45,0,0-12.62,17.89-13.61,24.07-1.12,6.09-17.63,50.16-37.07,79.63,0,0-8.76,18.47-13.43,24.71,0,0-7.74,15.41-7.09,17.78,0,0-16.03,49.26-27.14,66.75,0,0-11.1,11.12-11.22,13.23l-2.91,8.89s1.87-8.03,1.41-12.3c0,0-8.45,16.65-28.37,16.15,0,0-15.46-1.94-19.38-15.11,0,0-8.64-13.51,10.01-33.04,0,0,.92-1.29,5.79-5.97l-.84-1.39Z"/>
  <path class="cls-4" d="m1923.19,496.06s-16.11-16.69-18.85-13.17c0,0-4.56,10.5-11.88,4.85,0,0-16.19-12.74-18.8,20.73,0,0,1.06,14.99,23.84,18.76,0,0,6.58,1.22,7.98-.89l7.85-12.43,7.68-11.81,2.18-6.03Z"/>
  <path class="cls-1" d="m1873.58,508.6s-6.47,4.3-7.4-5.51c0,0-3.01-39.23,22.08-46.16l9.72-.44s-18.37-5.43-5.01-18.89c0,0,6.12-9.42,13.56-4.61,0,0,20.76-4.13,19.89,13.58,0,0-2.72,16.83-14.26,13.13,0,0,7.79,3.56,11.74,12.55,0,0,1.46,4.12,3.25,2.59l.43-.12s-4.04,18.81-4.75,21.31c0,0-8.69-8.98-13.62-11.81,0,0-2.86-2-4.5-1.67,0,0-.35-.02-.59.39l-.24.41s-3.73,8.42-9.94,5.59c0,0-.76-.26-1.1-.63,0,0-6.64-5.26-11.87-1.52,0,0-3.94,2.11-6.07,10.91.35.02-1.32,8.35-1.33,10.89Z"/>
  <g class="cls-7">
    <g>
      <path class="cls-4" d="m2244.13,256.46s-11.32-9.04-13.34-14.2c0,0-3.54-.7-5.04.31,0,0-3.7,1.76-6.8-3.39,0,0-1.91-9.03-11.36-8.83,0,0-3.96-.78-6.78-7.93,0,0-7.97-14.01-22.74-8.25,0,0-12.16,2.38-9.2,24.82,0,0-1.61,3.8,2.07,7.66l7.7,9.31s7.88,12.26,10.17,12.17c0,0,9.52,5.01,14.2-3.38,0,0,5.99-3.48,9.28-2.07,0,0,4.42.11,5.01,1.52l.08.12s1.29.04,1.75-.09c0,0,20.26,3.22,22.43,3.75.12-.08-2.25-.12,2.58-11.51Z"/>
      <path class="cls-3" d="m2426.02,595.93c-.68-5.02-1.03-7.75-1.59-11.54-.51-4-.44-7.91-2.2-11.61-.67-1.54-1.47-2.99-2.27-4.45-5.04-12.36-6.97-25.72-11.43-38.29-1.23-5.33-2.87-10.74-5.14-15.73-1.64-4.33-3.9-8.24-6.87-11.85-.34-.5-.75-1.12-1.09-1.62l-.25-.92s-14.29-24.78-13.44-31.87l-.08-.12c.04-.21,0-.54.04-.75-.09-1.21-.38-2.46-.8-3.62-.29-.71-.63-1.21-.92-1.91-.13-.46-.17-.79-.42-1.17-2.27-4.45-5.78-8.6-9-12.59-5.65-7.06-11.46-13.83-17.78-20.27-18.38-26.02-46.53-67.37-42.67-72.14,0,0,45.37-12.74,42.65-28.65,0,0,1.32-3.96-1.44-6.99,0,0,40.28,20.36,28.87,46.48,0,0-.9,4.59,11.6,29.12,0,0,18.74,9.85,22.73,52.96,0,0,8.13,14.8,14.28,20.45.46.96,1.05,1.83,1.63,2.7,1.55,3.66,5.21,11.52,7.09,13.52l.42.62c.55,1.08,1.3,2.2,1.84,3.29.63,1.21,1.13,2.5,1.76,3.7.63,1.21,1.26,2.41,1.76,3.7,1.47,4.08,2.4,8.16,3.29,12.45-.04.21.04.33.13.46,0,.54.21,1.12.21,1.67-.04.21.04.33,0,.54-.12.08-.04.21-.04.21,0,.54-.08.96-.08,1.5-.08.42.04.87.17,1.33,0,.54.04.87.05,1.42.07,6.83.67,13.66,1.95,20.41.3,2.87.73,5.66.82,8.5.14,3.17-.06,6.37-.13,9.5-.03,3.46-.43,7.17.08,10.62.3,2.33.97,4.41,1.52,6.58h0s.13,1,.55,2.16l.08.12c0,.54.42,1.17.76,1.66,1.26,2.41,3.94,5.32,8.73,6.26l.08.12.17.25.34.5.59.87.17.25c.17.25.13.46.29.71l.08.12c.04.33.21.58.17.79.08.12.04.33.13.46h0c-.08.42-.04.75-.12,1.17-.04.21-.08.42-.08.42q-.04.21-.08.42c-.08.42-.37.79-.45,1.21-.12.08-.04.21-.17.29-1.99,1.88-4.11,3.31-4.11,3.31,0,0,.08.12-.04.21-7.46,7.11-7.76,20.78-7.76,20.78-.44,3.92.19,7.83.83,11.75.34,2.12.77,4.37.98,6.58-.04.21,0,.54-.04.75l-.04.21h0c0,.54,0,1.08,0,1.62-.08.42-.08.96-.16,1.38-.04.21-.08.42-.08.42-.17.29-.21.5-.25.71-.04.21-.21.5-.25.71-1.04.88-2.45.93-4.67-.48-1.46-1.37-2.93-2.74-4.47-4.23-1.13-.87-2.01-1.91-2.97-3.07,0,0-12.86-27.26-13.45-34.03Z"/>
      <path class="cls-8" d="m2310.18,355.6s46.75-12.58,42.65-28.65c0,0,1.49-3.71-1.44-6.99,0,0-42.55-74.93-99.97-63.69"/>
      <path class="cls-2" d="m2351.3,319.83s-40.46-71.27-90.43-64.85l-12.83,1.92-3.92-.44s-5.13,11.23-2.17,11.59c0,0,11.12-.41,15.4-3.47,0,0,25.44-5.51,27.28,21.49,0,0-4.93,18.52-18.75,23.81,0,0-2,.8-3.92-.44,0,0-6.84-1.02-6.52-5.39,0,0-.13-2.08,2.74-2.93,0,0,2.08-.13,3.33-.97,0,0,4.16-1.89,4.41-2.6,0,0,1.37-2.55-1.18-2.83,0,0-12.91,2.34-17.58,1.31,0,0-13.13-.41-14.63-1.03l-5.67-.36-2.46-.16s.1,4.46,4.74,8.94c0,0,11.11,9,25.96,13.32l16.43,4.53s19.22,4.64,28.32,21.69c0,0,.05,1.96,3.94,6.4,0,0,2.75,1.41,4.4,6.28,0,0,1.42-.05,1.79-.3,0,0,31.43-7.36,41.34-22.52.54,0,4.13-9.47-.05-13Z"/>
      <path class="cls-3" d="m2091.21,289.87l.21.58s-7.31,6.36-12.62.88l-10.77-19s11.52,5.83,22.84,3.29c0,0,14.66-.8,20.15-3.95,0,0,21.13-10.57,52.15-4.27,0,0,13.72,3.99,19.42,2.51,1.08,0,2-.26,2.96-.72.87-.04,1.75-.09,2.54-.26,2.54-.26,4.91-1.31,7.49-1.78.12-.08.25-.17.33-.04,5.37-.89,11.53-1.96,15.36-3.26.42.08.75.04,1.21-.09.33-.04.67-.09,1-.13.75.04,1.29.04,1.92.16.96.08,2,.28,2.88.24.33-.04.54,0,.79-.17,7.46,1.14,19.84,3.14,22.8,4.04,0,0,8.62-.36,15.4-3.47,0,0,25.23-6.09,27.28,21.49,0,0-2.78,15.8-16.42,22.97,0,0-3.2,1.97-5.33.69,0,0-1.63-.54-1.88-.37,0,0-4.25-.94-5.26-3.52,0,0-1.26-2.41,1.03-4.13,0,0,1-.67,2-.8,0,0,1.87-.17,3.5-1.26l2.29-1.17s1.96-.59,1.78-2.46c0,0,.12-1.17-1.25-1.33,0,0-.17-.25-.87.04,0,0-12.37,2.34-16.7,1.27,0,0-13.75-.53-14.5-1.12l-8.46-.47s-16.29-.82-21.22-2.22c0,0-6.59-1.73-7.84-2.51,0,0-8.05-2.55-15.96-.86,0,0-18.86,4.52-25.57,3.96,0,0-36.2,2.42-50.47-2.66.17.25-6.17-1.1-12.21-.12Z"/>
      <path class="cls-1" d="m2173.66,216.75s.21-12.08,14.31-17.22c0,0,17.85-6.02,30.59,3.52,0,0,4.01-19.89,16.04-11.14,0,0,13.46-.17,13.09,14.91,0,0-.26,19.54-15.37,13.76l-3.5.18s3.01,3.41,1.61,8.33c0,0-2.09,10.63.55,13.21,0,0-3.67-.61-5.04.31,0,0-3.83,1.85-6.8-3.39,0,0-1.86-8.7-11.36-8.83,0,0-3.08-.28-6.11-6.39,0,0-3.61-7.53-11.2-10.21,0,0-6.05-2.27-12,.46l-.92.25c-.21-.04-2.54.8-3.91,2.26h0Z"/>
    </g>
  </g>
</svg>