<?xml version="1.0" encoding="utf-8"?>
<!-- Generator: Adobe Illustrator 27.0.0, SVG Export Plug-In . SVG Version: 6.00 Build 0)  -->
<svg version="1.1" id="Layer_1" xmlns="http://www.w3.org/2000/svg" xmlns:xlink="http://www.w3.org/1999/xlink" x="0px" y="0px"
	 viewBox="0 0 3240 1080" style="enable-background:new 0 0 3240 1080;" xml:space="preserve">
<style type="text/css">
	.st0{fill:#FFFFFF;}
	.st1{opacity:0.3;}
	.st2{fill:#C9C9C9;}
	.st3{fill:#BCBAB8;}
	.st4{fill:none;}
	.st5{fill:#757373;}
	.st6{fill:#CE6EE5;}
	.st7{fill:#ABA9A8;}
</style>
<rect y="0" width="3240" height="1080"/>
<path class="st0" d="M0,1089.53v-25.13c0-11.28,22.63-11.81,39.93-11.81h3156.36c17.3,0,43.71-1.17,43.71,10.11v25.13
	c0,11.28-26.42,19.91-43.71,19.91H39.93C22.63,1107.74,0,1100.81,0,1089.53z"/>
<g class="st1">
	<path class="st2" d="M1877.49,426.54c0,0,17.54-7.39,21.93-13.19c0,0,4.73,0.39,6.26,2.19c0,0,4.05,3.55,9.81-1.86
		c0,0,5.63-10.74,17.52-7.11c0,0,5.28,0.43,11.4-7.61c0,0,15.07-14.87,31.68-2.31c0,0,11.89,2.85,0.14,30.16
		c0,0-0.37,3.6-5.81,12.19l-9.97,10.26c0,0-13.88,7.71-16.74,6.78c0,0-8.27-0.58-17.19-4.37c0,0-6.32-6.53-10.99-5.94
		c0,0-5.62-1.44-6.87,0.14l-0.15,0.13c0,0-1.65-0.41-2.18-0.74c0,0-26.75-3.16-29.69-3.26
		C1876.51,441.85,1879.53,442.66,1877.49,426.54L1877.49,426.54z"/>
	<path class="st3" d="M1641.64,804.84c0.3-0.73,0.67-1.65,0.52-2.34l0.07-0.18c0.23-1.61,0.12-2.93,0.12-2.93l0,0"/>
	<path class="st3" d="M1632.75,821.08l2.34,3.49l8.34,8.88c2.34,2.48,4,5.51,4.85,8.82c1.82,7.12,4.16,18,4.34,21.97
		c0.14,2.82,0.48,6.34,0.8,9.23c0.11,0.26,0.14,0.7,0.25,0.95l0.11,0.26l0,0c0.14,0.7,0.29,1.39,0.43,2.09
		c0.22,0.51,0.36,1.21,0.58,1.72c0.11,0.26,0.22,0.51,0.22,0.51c0.29,0.33,0.4,0.59,0.51,0.84c0.11,0.26,0.4,0.59,0.51,0.84
		c1.57,0.85,3.41,0.52,5.87-1.88c1.51-2.16,3.02-4.31,4.6-6.65c1.21-1.42,2.06-3,2.98-4.75c0,0,9.16-38.51,8.08-47.38
		c-0.48-6.63-0.77-10.24-1.08-15.27c-0.42-5.28-1.57-10.28-0.31-15.51c0.45-2.16,1.08-4.25,1.71-6.33c0,0,7.26-55.52,8.81-71.52
		l10.32-51.1l20.91-43.73c5.35-10.61,7.58-20.37,13.95-30.35c16.58-38.41,35.46-52.13,29.21-57.21c0,0-39.14-31.56-39.95-52.73
		c0,0-2.77-4.74-0.04-9.38c0,0-46.8,26.3-39.66,62.11c0,0,10.03,3.47,0.6,38.38c0,0-10.95,14.52-16.83,33.32
		c0,0-3.38,25.93-0.97,45.14c0.63,5.05-0.49,10.16-3.12,14.52l-25.01,41.47c-11.85,19.65-4.16,47.83-4.16,47.83
		c0.39,3.77,0.6,7.48,1.24,11.14c0.68,4.11,1.8,8.18,2.74,12.17c0,0,4.91,17.09,6.02,26.57c0.21,1.76-0.32,3.52-1.45,4.89
		c-3.33,4.03-10.27,13.17-7.75,16.63L1632.75,821.08z"/>
	<path class="st4" d="M1758.62,528.26c0,0-54.59-32.59-43.67-51.43c0,0-0.55-5.22,4.32-8.33c0,0,80.53-79.51,149.08-44.8"/>
	<path class="st0" d="M1719.42,468.37c0,0,76.57-75.63,137.44-49.67l15.52,7.01l5.11,0.84c0,0,2.47,16.02-1.4,15.42
		c0,0-13.91-4.49-18.23-9.89c0,0-30.18-16.04-42.15,17.42c0,0-0.37,25.16,15.19,36.79c0,0,1.87,1.07,4.85,1.11
		c0,0,9.26,0.88,10.42-4.77c0,0,0.91-2.59-2.42-4.68c0,0-2.59-0.91-3.86-2.41c0,0-4.58-3.87-4.64-4.86c0,0-0.82-3.71,2.5-3.16
		c0,0,15.48,7.56,21.75,7.93c0,0,16.74,4.16,18.86,3.92l7.29,1.57l3.16,0.68c0,0-1.72,5.6-9.18,9.61c0,0-17.26,7.41-37.57,7.57
		l-22.38-0.15c0,0-25.95-1-43.54,17.3c0,0-0.76,2.46-7.26,6.69c0,0-3.98,0.79-7.8,6.36c0,0-1.77-0.56-2.16-1.02
		c0,0-37.1-20.52-44.2-43.22c-0.68-0.2-1.84-13.45,4.7-16.41L1719.42,468.37z"/>
	<path class="st3" d="M1859.25,475.16c0,0,17.57,4.23,18.73,3.77l10.86,2.43c0,0,20.88,4.78,27.6,4.77c0,0,8.94,0.17,10.81-0.38
		c0,0,11.09-0.36,20.48,4.61c0,0,22.22,12.45,30.9,14.14c0,0,44.88,15.98,64.73,14.66c-0.3,0.26,8.19,0.81,15.47,4.2l-0.47,0.66
		c0,0,6.97,10.65,15.64,5.61l20.4-20.17c0,0-16.64,3.26-30.05-3.99c0,0-18.25-6.25-24.06-12.18c0,0-22.93-20.91-64.38-24.01
		c0,0-18.77,0.15-25.45-3.76c-1.37-0.39-2.43-1.04-3.48-1.96c-1.09-0.37-2.18-0.74-3.12-1.23c-3.12-1.23-5.74-3.41-8.84-4.92
		c-0.13-0.15-0.26-0.3-0.41-0.17c-6.47-3.05-13.88-6.59-18.25-9.61c-0.56-0.05-0.96-0.22-1.5-0.54c-0.41-0.17-0.81-0.35-1.22-0.52
		c-0.96-0.22-1.65-0.41-2.48-0.48c-1.24-0.24-2.63-0.35-3.72-0.72c-0.41-0.17-0.68-0.2-0.94-0.5c-9.84-1.22-26.2-3.12-30.26-3.03
		c0,0-10.77-3.54-18.23-9.89c0,0-29.71-16.7-42.15,17.42c0,0-2.13,20.96,12.55,34.9c0,0,3.33,3.67,6.48,3.09
		c0,0,1.98,0.29,2.61,0.09c0,0,2.16,0.46,6.34-1.25l15.4-11.04L1859.25,475.16z"/>
	<path class="st5" d="M1982.62,403.11c0,0,2.16-16.94-13.83-28.46c0,0-20.41-13.98-39.92-6.48c0,0,2.03-26.57-16.3-19.81
		c0,0-16.95-5.02-21.87,14.17c0,0-6.64,24.79,14.51,22.88l4.36,1.48c0,0-5.02,3.23-5.01,9.95c0,0-1.16,14.18-5.4,16.49
		c0,0,4.86,0.54,6.26,2.19c0,0,4.18,3.7,9.81-1.86c0,0,5.93-10,17.98-6.78c0,0,4.64,0.58,10.65-6.06c0,0,3.96-5.32,14.52-6
		c0,0,1.84-0.57,4.81,0.36c3.6,1.12,8.65,0.77,10.21,4.21l3.53,7.79c0.28,0.02,3.01,3.1,4.51,0.84l0.91-3.45l0.29-1.45
		L1982.62,403.11z"/>
</g>
<g>
	<path class="st2" d="M2308.41,602.55c0,0-19.03,0.22-25.29,3.94c0,0-4.23-2.14-4.97-4.39c0,0-2.41-4.81-9.79-1.98
		c0,0-9.27,7.82-18.9-0.03c0,0-4.73-2.39-13.43,2.75c0,0-19.56,8.08-30.21-9.81c0,0-9.94-7.12,11.25-27.99c0,0,6.34-1.66,14.62-7.57
		l13.1-5.74c0,0,11.12-3.44,13.42-1.49c0,0,7.44,3.66,14.27,10.53c0,0,3.39,8.44,7.94,9.64c0,0,4.66,3.45,6.41,2.46l0.19-0.06
		c0,0,1.37,1,1.74,1.51c0,0,23.58,13.02,26.26,14.22c0.06,0.19-2.43-1.7-6.62,14.01L2308.41,602.55z"/>
	<path class="st4" d="M2414.96,497.25c0,0,55.75,30.56,45.53,49.79c0,0,0.74,5.2-4.01,8.48c0,0-77.55,82.41-147.33,50.25"/>
	<path class="st6" d="M2299.36,580.15c0,0,13.01-49.5,33.3-50.41l22.37-0.68c0,0,25.97,0.04,42.88-18.89c0,0,0.67-2.48,7.01-6.95
		c0,0,3.95-0.94,7.56-6.64c0,0,1.79,0.5,2.19,0.94c0,0,37.82,19.15,45.76,41.56c0.69,0.17,2.33,13.37-4.09,16.57
		c0,0-73.74,78.39-135.52,54.68l-15.77-6.43l-5.14-0.65l-0.55-23.11V580.15z"/>
	<path class="st5" d="M2202.21,584.59c0,0-8.39,14.87,2.07,31.58c0,0,13.63,20.65,34.53,21.06c0,0-11.9,23.84,7.62,24.49
		c0,0,13.8,11.04,25.6-4.87c0,0,15.5-20.45-4.81-26.66l-3.48-3.01c0,0,5.87-1.1,8.39-7.32c0,0,6.42-12.7,11.23-13.24
		c0,0-4.29-2.33-4.97-4.39c0,0-2.47-5-9.79-1.98c0,0-9.27,7.03-19.21-0.5c0,0-4.08-2.29-12.15,1.6c0,0-5.68,3.43-15.71,0.08
		c0,0-1.92-0.16-4.32-2.14c-2.91-2.4-7.72-3.98-7.86-7.75l-0.33-8.55c-0.25-0.13-1.61-4.01-3.86-2.48l-2.15,2.85l-0.82,1.23H2202.21
		z"/>
	<g>
		<path class="st2" d="M2452.23,353.76c2.29,9.27-1.55,19.18-1.55,19.18c-6.18,14.56-11.57,13.34-21.33,17.98
			s-38.23,13.35-38.23,13.35l-52.85,11.69c0.42,0.57,0.84,1.13,1.26,1.69c5.62,7.63,11.07,15.39,16.4,23.23
			c2.51,3.7,5,7.42,7.46,11.16c4.54-0.62,8.83-0.72,10.54-0.76c0,0,16.23,0.19,27.91-8.17c0,0,28.29-16.57,33.83-21.67
			c0,0,12.28-14.2,28.38-25.23c3.27-2.24,7.24-2.92,11.19-2.7c2.7,0.15,6.05-2.36,5.72-6.21c0,0-0.7-4.33-3.33-8.32l-18.2-31.59
			c-7.89-11.89-9.39-8.34-9.39-8.34C2447.73,340.88,2452.24,353.76,2452.23,353.76L2452.23,353.76z"/>
		<path class="st2" d="M2338.65,415.96c-8.49,1.88-17.22,23.41-17.22,23.41c-6.22,11.86-2.02,23.16-2.02,23.16
			c3.49,9.66,44.47,35.02,44.47,35.02c4.99,3.22,52.11,45.29,52.11,45.29c18.76,12.82,31,7.17,31,7.17
			c20.9-1.09,27.65-21.86,27.65-21.86c2.15-7.82-0.4-20.96-7.68-26.51c-8.3-6.32-14.46-7.46-24.63-12.28l-29.5-15.88
			c-5.46-2.94-11.2-5.32-17.14-7.09c-11.48-3.43-30.6-9.53-32.43-12.64l0.49-1.71l-25.12-36.08L2338.65,415.96z"/>
	</g>
	<path class="st7" d="M2374.76,564.82c0,0,0.89-9.46,1.55-17.56c0.66-8.05,2.42-15.98,5.21-23.56l3.8-10.34c0,0,7.57-9.53,7.14-14.5
		l-38.09-50.35c-4.07-5.38-6.7-11.72-7.63-18.4l-1.48-10.64c-0.23-1.66-1.44-3.01-3.06-3.42l-7.09-1.79
		c-3.13-0.79-6.4,0.67-7.9,3.53l-4.54,8.65c-2.84,5.41-2.4,11.97,1.15,16.95l19.14,26.84l18.9,25.23c0.81,1.08,0.64,2.59-0.37,3.47
		l0,0c-3.1,2.7-5.71,5.93-7.7,9.53l-10.15,18.38L2325.76,555c0,0-18.48,27.82,14.16,43.73c0,0,25.35,10.61,34.84-33.92
		L2374.76,564.82z"/>
</g>
<g class="st1">
	<path class="st2" d="M2659.68,899.14c3.65,6.17-7.32,20.55-9.74,23.74c0,0-10.28,12.56-11.03,26.9c0,0-4.7,32.44-4.17,39.96
		c0,0,3.43,18.45,2.01,37.92c-0.29,3.95-2.24,7.48-4.87,10.43c-1.8,2.02-1.93,6.2,1.28,8.34c0,0,3.82,2.15,8.58,2.59l36.04,5.49
		c14.21,1.25,12.38-2.13,12.38-2.13c0.01-2.94-12.87-7.46-12.87-7.46c-8.67-3.99-14.02-13.18-14.02-13.18
		c-7.52-13.91-3.21-17.36-0.74-27.88s13.42-38.2,13.42-38.2l25.6-52.17c6.21-11.86,2-23.16,2-23.16c-3.5-9.66-44.5-34.98-44.5-34.98
		c-4.99-3.22-52.15-45.24-52.15-45.24c-18.77-12.8-31.01-7.14-31.01-7.14c-20.9,1.11-27.63,21.88-27.63,21.88
		c-2.15,7.82,0.41,20.96,7.7,26.51c8.3,6.32,14.47,7.45,24.65,12.26l29.51,15.86c5.46,2.93,11.2,5.31,17.14,7.08
		c11.48,3.42,30.6,9.51,32.44,12.61L2659.68,899.14z"/>
	<path class="st2" d="M2573.82,672.79c0,0,11.32-15.3,12.14-22.53c0,0,4.26-2.08,6.5-1.31c0,0,5.29,0.99,7.49-6.6
		c0,0-0.63-12.11,11.44-15.05c0,0,4.76-2.32,5.92-12.36c0,0,5.38-20.47,26.07-18.15c0,0,11.68-3.62,15.51,25.87
		c0,0-2.51,6.06-2.8,16.22l-3.34,13.91c0,0-3.98,10.94-6.92,11.6c0,0-7.41,3.72-17.01,5.01c0,0-8.77-2.39-12.48,0.5
		c0,0-5.57,1.63-5.84,3.62l-0.06,0.19c0,0-1.63,0.48-2.25,0.48c0,0-24.63,10.93-27.2,12.34
		C2580.8,686.47,2583.81,685.62,2573.82,672.79L2573.82,672.79z"/>
	<path class="st4" d="M2593.37,821.32c0,0-58.03,25.96-67.19,6.2c0,0-4.59-2.55-4.33-8.32c0,0-18.82-111.59,48.96-147.76"/>
	<path class="st0" d="M2589.39,718.47c0,0,9.29-8.5,13.19-13.42c0,0,18.54-7.94,19.55-9.81l5.48-5.06l2.37-2.2
		c0,0,3.6,4.62,2.59,13.04c0,0-3.85,18.38-15.38,35.1l-12.98,18.24c0,0-15.72,20.67-10.85,45.58c0,0,1.57,2.03,1.3,9.79
		c0,0-1.64,3.72,0.73,10.04c0,0-1.48,1.13-2.07,1.18c0,0-38.11,18.58-60.77,11.36c-0.55,0.45-12.07-6.22-10.74-13.27
		c0,0-17.92-106.12,38.29-141.03l14.65-8.68l3.62-3.7c0,0,14.53,7.18,11.82,10c0,0-11.67,8.8-18.56,9.24l17.74,33.63L2589.39,718.47
		z"/>
	<path class="st3" d="M2604.04,709.05c0,0,17.8,3.12,18.93,2.59l10.99,1.74c0,0,21.14,3.47,27.85,3.03c0,0,8.94-0.39,10.76-1.05
		c0,0,11.04-1.05,20.73,3.32c0,0,22.95,11.03,31.72,12.17c0,0,45.8,13.14,65.52,10.57c-0.28,0.27,8.23,0.29,15.71,3.22l-0.43,0.69
		c0,0,7.62,10.19,15.96,4.62l19.1-21.41c0,0-16.4,4.3-30.24-2.1c0,0-18.6-5.09-24.78-10.65c0,0-24.19-19.43-65.76-19.93
		c0,0-18.72,1.32-25.63-2.15c-1.39-0.3-2.49-0.88-3.6-1.74c-1.11-0.3-2.22-0.6-3.19-1.04c-3.19-1.04-5.94-3.04-9.13-4.36
		c-0.14-0.14-0.27-0.28-0.42-0.15c-6.65-2.64-14.26-5.71-18.82-8.44c-0.56-0.01-0.97-0.16-1.53-0.45c-0.42-0.15-0.83-0.29-1.25-0.44
		c-0.97-0.16-1.67-0.31-2.51-0.33c-1.25-0.16-2.65-0.19-3.76-0.49c-0.42-0.15-0.69-0.15-0.97-0.44c-9.9-0.6-26.34-1.47-30.4-1.13
		c0,0-10.97-2.86-18.81-8.72c0,0-30.7-14.81-40.98,20.02c0,0-0.81,21.05,14.71,34.04c0,0,3.56,3.45,6.66,2.68c0,0,2,0.16,2.61-0.08
		c0,0,2.18,0.32,6.25-1.64l14.68-11.98L2604.04,709.05z"/>
	<path class="st5" d="M2652.29,599.01c0,0-6.78-15.67-26.42-17.43c0,0-24.69-1.61-37.64,14.79c0,0-11.81-23.89-24.12-8.72
		c0,0-17.14,4.32-11.58,23.35c0,0,6.93,24.71,24.15,12.28l4.5-0.95c0,0-2.67,5.34,0.76,11.11c0,0,6.24,12.79,3.76,16.94
		c0,0,4.45-2.02,6.5-1.31c0,0,5.48,1.05,7.49-6.6c0,0,0-11.63,12.01-15.01c0,0,4.29-1.87,6.06-10.65c0,0,0.69-6.6,9.43-12.57
		c0,0,1.29-1.43,4.32-2.15c3.67-0.87,7.83-3.75,10.92-1.59l7.01,4.9c0.25-0.12,4.17,1.14,4.3-1.58l-0.98-3.43l-0.49-1.4
		L2652.29,599.01z"/>
	<path class="st3" d="M2826.93,744.18c0,0,38.36-13.36,34.18-14.47c-0.59-0.16-8.83-1.68-8.83-1.68l-11.41,0.52L2826.93,744.18
		L2826.93,744.18z"/>
	<path class="st7" d="M2642.32,902.48c3.65,6.17-7.32,20.55-9.74,23.74c0,0-10.28,12.56-11.03,26.9c0,0-4.7,32.44-4.17,39.96
		c0,0,3.43,18.45,2.01,37.92c-0.29,3.95-2.24,7.48-4.87,10.43c-1.8,2.02-1.93,6.2,1.28,8.34c0,0,3.82,2.15,8.58,2.59l36.04,5.49
		c14.21,1.25,12.38-2.13,12.38-2.13c0.01-2.94-12.87-7.46-12.87-7.46c-8.67-3.99-14.02-13.18-14.02-13.18
		c-7.52-13.91-3.21-17.36-0.74-27.88s13.42-38.2,13.42-38.2l25.6-52.17c6.21-11.86,2-23.16,2-23.16c-3.5-9.66-44.5-34.98-44.5-34.98
		c-4.99-3.22-52.15-45.24-52.15-45.24c-18.77-12.8-31.01-7.14-31.01-7.14c-20.9,1.11-27.63,21.88-27.63,21.88
		c-2.15,7.82,0.41,20.96,7.7,26.51c8.3,6.32,14.47,7.45,24.65,12.26l29.51,15.86c5.46,2.93,11.2,5.31,17.14,7.08
		c11.48,3.42,30.6,9.51,32.44,12.61L2642.32,902.48z"/>
</g>
</svg>
