<?xml version="1.0" encoding="utf-8"?>
<!-- Generator: Adobe Illustrator 27.0.0, SVG Export Plug-In . SVG Version: 6.00 Build 0)  -->
<svg version="1.1" id="Capa_1" xmlns="http://www.w3.org/2000/svg" xmlns:xlink="http://www.w3.org/1999/xlink" x="0px" y="0px"
	 viewBox="0 0 1080 1080" style="enable-background:new 0 0 1080 1080;" xml:space="preserve">
<style type="text/css">
	.st0{display:none;fill:#FFFFFF;}
	.st1{fill:#FFFFFF;}
	.st2{opacity:0.3;}
	.st3{fill:#C9C9C9;}
	.st4{fill:#BCBAB8;}
	.st5{fill:none;}
	.st6{fill:#757373;}
	.st7{fill:#CE6EE5;}
</style>
<rect x="-136.8" y="-219.5" width="1306.1" height="1322.5"/>
<g id="Layer_2">
	<g id="Capa_2_00000041977206964686540760000001219414656090201534_">
		<rect x="-128.2" y="-81.1" class="st0" width="1225.2" height="1178.7"/>
		<path class="st1" d="M401.8,424.4c-0.2-0.2-0.4-0.5-0.7-0.7c-1.5-1.4-3.2-2.2-5-2.5c-1.9-0.4-3.8-0.6-5.7-0.5
			c-1.8,0.1-3.6,0.4-5.2,1.4c-0.7,0.5-1.3,1.1-1.8,1.8c-0.2,0.2-0.3,0.5-0.5,0.7c0,1.1,0,2.2,0,3.6v97c0,0,0,49.5,0,74.2v17.1
			c0,9.2,0,18.4,0,27.6l0,0v107.1l0.1,83.2l0.1,22.2c-0.2,5.6,0.1,184.1-0.7,189.7c-0.3,2,1,3,4.8,2.8c2.3-0.1,4.5,0,6.8-0.1
			c8.5,0,7.8,0.4,7.8-4.4C401.8,892.1,401.8,614.2,401.8,424.4L401.8,424.4z"/>
		<path class="st1" d="M692.7,548c-0.4-0.4-0.9-0.7-1.4-1c-1.8-0.9-3.9-1.3-5.9-1.4c-2.1-0.2-4.2,0-6.3,0.5
			c-1.7,0.5-3.5,1.3-4.8,2.9c0,0.7,0,1.3,0,2v77.9c0,0,0,39.7,0,59.6v13.7c0,7.4,0,14.8,0,22.1l0,0v86l0.1,66.8l0.1,17.9
			c-0.2,4.5,0.1,147.8-0.7,152.3c-0.3,1.6,1,2.4,4.7,2.3c2.2-0.1,4.4,0,6.7,0c8.2,0,7.6,0.3,7.6-3.6
			C692.7,923.4,692.7,700.5,692.7,548L692.7,548z"/>
	</g>
</g>
<g id="Layer_2_00000091000990790212287460000004320206396154655893_">
	<g id="Capa_2_00000181070401579541068570000001338736102370585783_">
		<g class="st2">
			<g>
				<path class="st3" d="M570.5,510.4c0,0,2.9,9.2,2.1,12.8c0,0,1.7,1.7,2.9,1.7c0,0,2.7,0.4,2.5,4.4c0,0-2.3,5.7,3,9.1
					c0,0,1.9,1.9,0.8,6.9c0,0-0.8,10.7,9.5,13c0,0,7.6,3.2,14.3-10.3c0,0,2.3-1.5,1.7-5l-0.8-8c0,0,0.2-9.7-1.1-10.5
					c0,0-3.4-6.3-9.1-3.4c0,0-4.6-0.3-5.9-2.3c0,0-2.4-1.7-2.2-2.7V516c0,0-0.7-0.5-1-0.6c0,0-10-9.3-11-10.4
					C576.1,505.1,577.5,506,570.5,510.4z"/>
				<path class="st4" d="M600.8,228.8c-0.3-1.4-0.6-2.7-0.9-4c-0.7-1.6-1.5-2.1-2.4-2c-0.1,0.1-0.3,0.2-0.4,0.3
					c-0.1,0.1-0.2,0.2-0.4,0.3c0,0-0.1,0.1-0.2,0.2c-0.2,0.2-0.4,0.5-0.6,0.7c-0.2,0.3-0.4,0.6-0.6,0.9l0,0l-0.1,0.1
					c-0.1,0.1-0.2,0.3-0.3,0.4c-0.7,1.3-1.3,2.7-1.9,4c-1.1,2.4-2.2,4.8-3.9,6.8c-1.2,1.6-3,3.1-4.7,4.4c-0.2,0.5-0.5,0.8-1,1
					c-0.4,0.2-0.9,0.4-1.4,0.5c-0.5,0.3-0.9,0.6-1.4,0.8c-0.3,0.3-0.6,0.5-1,0.8c-0.7,0.5-1.6,1-2.5,1.1c-0.1,0-0.1,0.1-0.1,0.1
					s-1.7,0-3.5,0.3c-0.1,0-0.1,0.1-0.2,0.1c-0.2,0.2-0.5,0.3-0.7,0.5c-0.1,0.1-0.1,0.1-0.2,0.2c0,0-0.1,0.1-0.2,0.2
					c-0.2,0.2-0.3,0.4-0.5,0.6l0,0c0,0.1-0.1,0.2-0.1,0.3c-0.1,0.1-0.1,0.3-0.2,0.5v0.1c0,0.2-0.1,0.3-0.1,0.5v0.2
					c0,0.2,0,0.5,0,0.7c0,0.1,0,0.2,0,0.4c0,0.1,0,0.2,0,0.2v0.1c2.3,2.3,2.7,4.9,2.5,6.7c0,0.4,0,0.9-0.2,1.2c0,0,0,0,0,0.1
					c-0.2,0.8-0.5,1.4-0.5,1.4l0,0c-0.5,1.4-0.9,2.8-1.6,4.2c-1,2.1-2.6,4-3.9,5.9c-1.2,1.7-2.5,3.4-3.6,5.2c-1,1.6-1.8,3.3-2.7,5
					c-1.8,4.2-4,8.2-6.5,12c-0.2,0.3-0.3,0.5-0.5,0.8c-0.1,0.3-0.2,0.6-0.4,0.8c-0.2,0.3-0.4,0.5-0.6,0.8c0,0,0,0.1-0.1,0.1
					c-0.1,0.1-0.1,0.2-0.2,0.3c-0.2,0.3-0.3,0.7-0.5,1c0,0.1,0,0.2-0.1,0.3c-1.1,2.7-2.1,5.3-2.8,8.1c-0.2,0.9-0.3,1.8-0.4,2.7
					c-0.1,0.9-0.3,1.8-0.4,2.7c-0.1,0.8-0.1,1.7-0.2,2.5c0,0.2,0,0.3,0,0.5c0.3,1.8-0.6,7.5-1.1,10.1c0,0.7,0,1.4-0.1,2.1
					c1.3,5.4,0.3,16.6,0.3,16.6c-13.8,25.3-7.1,37.7-7.1,37.7c-2.2,18.2-4.4,20.4-4.4,20.4c-16,10.2-1.3,36.4-1.3,36.4
					c-0.4-2.7,1.8-4.4,1.8-4.4c4.4-9.8,34.2,0,34.2,0c3.9-1.2,3.7-34.5,3.2-55.7c-1.1-5.9-1.8-11.8-2.3-17.8
					c-0.3-3.4-0.7-7-0.3-10.3c0-0.3,0.1-0.5,0.2-0.8c0.1-0.5,0.1-0.9,0.2-1.4c0.2-0.8,0.5-1.6,0.9-2.3c0.1-0.1,0.2-0.3,0.3-0.4
					c0-0.1,0-0.1,0-0.1c3.1-3.6,4.4-22.6,4.4-22.6l0.2-0.6c0-0.4,0-0.9,0-1.3c-0.3-3.1-0.1-6.1,0.6-9.1c0.6-3.6,1.7-7.2,3-10.6
					c2.2-8.6,6.1-16.7,7.9-25.4c0.1-1.1,0.2-2.2,0.4-3.3c0.4-2.7,1.7-5,2.9-7.4c1.1-2.3,2.3-4.6,3.6-6.8c0.1-0.7,0.4-1.5,0.8-2.2
					c0.4-0.7,0.8-1.3,1.3-2c0.6-2.2,1.3-4.4,1.7-6.6c0.7-3.8,1-7.7,1-11.6c0-0.5,0.2-1,0.4-1.4C601.1,230.6,601,229.7,600.8,228.8z"
					/>
				<path class="st5" d="M570.8,431.2c0,0-30.5-10.4-34.2,0c0,0-2.2,1.5-1.8,4.4c0,0-4.3,57.2,31.6,72.3"/>
				<path class="st1" d="M534.9,435.6c0,0-4.1,54.4,25.9,69.4l7.8,3.7l2,1.7c0,0,7-4.3,5.5-5.6c0,0-6.3-3.9-9.8-3.8
					c0,0-16.1-6.4-7.1-22c0,0,9.6-8.4,19.2-6.2c0,0,1.4,0.3,2,1.7c0,0,3.4,3.1,1.6,5.4c0,0-0.7,1.2-2.6,0.6c0,0-1.2-0.7-2.2-0.7
					c0,0-3-0.5-3.4-0.2c0,0-1.7,0.9-0.4,2c0,0,8,3.5,10.2,5.8c0,0,7.1,5.1,7.7,6l3,2.3l1.3,1c0,0,1.6-2.5,0.7-6.7
					c0,0-2.8-9.1-9.4-17l-7.4-8.6c0,0-8.9-9.7-7.6-22.5c0,0,0.7-1.1,0.2-5c0,0-1-1.8-0.1-5.1c0,0-0.8-0.5-1.1-0.5
					c0,0-20.1-7.6-31.2-2.9C539.4,428.3,533.9,432.1,534.9,435.6z"/>
				<path class="st4" d="M667.5,548.7l0.1-0.4c0,0,6.4-0.8,7.3,4.2l-1.1,14.5c0,0-4.2-7.5-11.4-10.3c0,0-8.4-5-12.6-5.3
					c0,0-15.6-2-30.4-17c0,0-6.1-7.3-9.8-8.6c-0.6-0.4-1.2-0.6-1.9-0.7c-0.5-0.3-1-0.6-1.5-0.8c-1.5-0.8-3.2-1.1-4.8-1.8
					c-0.1,0-0.2,0-0.2-0.1c-3.3-1.5-7.1-3.2-9.7-3.9c-0.2-0.2-0.4-0.3-0.7-0.4c-0.2-0.1-0.4-0.2-0.6-0.3c-0.4-0.3-0.7-0.5-1-0.8
					c-0.5-0.4-1-0.9-1.5-1.2c-0.2-0.1-0.3-0.2-0.5-0.2c-3.7-3.4-9.8-9.1-11.1-10.7c0,0-4.9-3-9.8-3.8c0,0-16.2-6-7.1-22
					c0,0,7.4-7.7,17.6-6.6c0,0,2.5,0.1,3.2,1.6c0,0,0.7,0.9,0.9,0.9c0,0,2,2.1,1.6,3.9c0,0-0.2,1.8-2.1,1.9c0,0-0.8,0-1.4-0.3
					c0,0-1.1-0.6-2.4-0.6l-1.7-0.2c0,0-1.3-0.4-1.9,0.7c0,0-0.5,0.6,0.2,1.2c0,0,0,0.2,0.5,0.3c0,0,7.7,3.3,9.7,5.5
					c0,0,7.4,5.4,7.6,6l4.5,3.4c0,0,8.7,6.5,10.9,9.1c0,0,3,3.4,3.4,4.3c0,0,3.5,4.4,8.5,6.4c0,0,12.1,4.5,15.6,7.3
					c0,0,20.9,12.1,26.9,20.2C660.7,544,663.8,547.1,667.5,548.7z"/>
				<path class="st6" d="M594.8,558.6c0,0-4.6,6.6-14.3,4.2c0,0-12.1-3.3-15.6-13.3c0,0-9.6,9.5-13,0.2c0,0-7.5-4.9-1.7-13.1
					c0,0,7.4-10.7,13.6-1.9l2,1.2c0,0-0.4-3,2.2-5.2c0,0,5.1-5.1,4.6-7.5c0,0,1.8,1.7,2.9,1.7c0,0,2.8,0.4,2.5,4.4
					c0,0-2.2,5.5,3,9.1c0,0,1.6,1.3,1,5.8c0,0-0.8,5.5,2.4,9.8c0,0,2.5,3.5,6.8,4.2l0.6,0.2C591.8,558.5,593.5,558.9,594.8,558.6
					L594.8,558.6L594.8,558.6z"/>
			</g>
		</g>
		<g class="st2">
			<path class="st4" d="M385.5,424.3c0,0-3.3,4.6,0.5,6.2c0,0,10.6,4.1,9.6,6.1c0,0-16-3.5-26.4-2.3c0,0-11-0.4-14.8,1.2
				c0,0-13.5,2.2-18-0.9c0,0-13.4-7-20.4-8c0,0-2.2-1.2-12.3,0.4c0,0-6.4,0.4-16.8-5.1c0,0-4.3-2.8-7,2.8l-1.2,12.4
				c0,0-1.8,3.9,2.4,5.5c0,0,5.7,6.9,1.4,10.4c0,0-1.2,2-1,2.6c0,0-1.9,3.1-4.5,4.8c0,0-4.4,1.9-5.7,5.3c0,0-5.2,10.2-18.8,3.4
				c0,0-4.3-9.5-0.2-15.7c0,0,2.6-4.7,2.1-8.7c0,0-2.5-5.9,3-7.6c0,0,1.1,0.2,0.9-2.1c0,0-2.5-5.1,3.4-7.2c0,0,5.7-4.7,6.2-6.6
				c0,0,0.1-20.9,14.5-22.8c0,0,5.4-2.9,8,4.5c0,0,1.1,2.9-1.8,3.4c0,0-3.2-0.2-2.3,0.4c0,0,8.9,1.4,16.5-0.2c0,0,7.9,0,13,3.5
				c0,0,2.4,4,10,3.1c0,0,20.9-1.6,32.1,6.7c0,0,11.8,8.1,21.7,5C379.6,424.8,385.6,422,385.5,424.3z"/>
			<path class="st6" d="M252.4,469c0,0-20.8,0-17.7-20c0,0-9,3.9-14.3-2.3c0,0-9-12.4,5.6-20.4c0,0,15.2-2.2,14.2,7.4
				c0,0,9.4-5.3,12-2.6c0,0,3.9,0.1,5.3-1.2c0.2-0.2,0.3-0.4,0.4-0.7c0,0,1.7-1,1.4-0.2l0,0l0,0l0,0c0,0-2.5,1.9-1.2,5.6
				c0,0,0.3,0.7,0.1,1.5c0,0-0.1,0.9-0.8,0.9h-0.2c0,0-4.5,1-3.3,6.3l0.3,1.1c0,0,0.2,1,0.1,2.2c0,0,0.1,2-1.9,6.3
				C252.5,453,248.1,458,252.4,469z"/>
			<path class="st4" d="M310.3,338c4.4-7.5,14.3-5.3,14.3-5.3c9.5-0.8,13.4,24.3,13.4,24.3c2.1,11.9,12.8,11.7,12.8,11.7
				c23.3,3.7,32.5,10.1,32.5,10.1c5.5,5.4,6.1-1.1,6.1-1.1l3.2-6.8c7.1-22.4,33.8-41.1,33.8-41.1c4.5-4.5,7.8-10.3,7.8-10.3
				c0.5-7.2,4.7-6.5,4.7-6.5c8.2-5.3,12,5,12,5c0.7,1.5,9.7,9,9.7,9c11,5.7,12,12.2,12,12.2c0.2,4.2-8.7,0.7-8.7,0.7
				c-2.7-3.3-13.2-5.3-13.2-5.3c-11.7-3.7-18,13.5-18,13.5L412,383.9c-3.2,8.2-11.8,17.5-11.8,17.5c-4.8,7.8-15.8,5-15.8,5
				c-20.7-1-40.7-10.2-40.7-10.2c-11.8-3.8-17.9-9.2-17.9-9.2c-0.1-2.1-10.5-10.7-10.5-10.7c-2.8-2.7-9.2-13.9-9.2-13.9
				c-3.2-5.4-2.6-6.8-2.6-6.8c-0.9-2,5.1-15.6,5.1-15.6L310.3,338z"/>
			<path class="st5" d="M268.2,418.6c0,0-4.7-7.7-1.4-17l5.9-8.7c0,0,11.5-16,13.7-18.1"/>
			<path class="st1" d="M286.4,374.6c0,0,9.6-10.4,13.1-18.9c0,0,5.4-13.5,11.6-18.6c0,0-1.3,1.9-2.4,2.9c0,0-5.5,12.4-5.1,16.4
				c0,0,1.1,3.8,2.1,4.9l5,8.3l3.5,5.2c0,0-1.1,2.9-1,3.8c0,0-0.3,2.9-0.5,3.3c0,0-0.6,2.3-0.5,2.6c0,0-1.2,3.5-0.4,6.6
				c0,0,1.8,8.4,0.7,10.8c0,0-0.5,4.2-2.3,4.1c0,0-3.1,0.6-5.1,0.7c0,0-0.9-0.1-2.1-0.1c0,0-3.9,0.7-6.8,0.7c0,0-5.3,0-8.1-0.3
				l-1.6-0.2c0,0-0.5-0.1,0-0.3c0,0,1.1-0.1,2.2,0c0,0,2.3-0.1,1.9-3c0,0-0.8-3.8-3.9-5.1c0,0-1.8-0.9-4.2,0.2
				c0,0-9.1-0.4-13.2,14.2l-0.8,4c0,0,0.3,7.1-2.2-0.4s-0.1-0.3-0.1-0.3s-4-10.2,3.1-17.9l9.7-13.5L286.4,374.6z"/>
		</g>
		<g>
			<path class="st4" d="M381.4,417.9c0,0,10.1,8.9,14.9,1.2c0,0,0.7-2.1-0.9-2.4c0,0-8.3-1.4-7.6-6.9c0,0,1.8-23.3-2.4-44.7
				c0,0-4.2-16-1-32c0,0-0.5-16-1.3-22.4c0,0-0.5-4.5-0.5-7.9c0,0-1.2-10.6-13.1-10.8c0,0-10.8,0.7-8.4,10.1c0,0-2.4-0.2,0.5,8.9
				c0,0,2.4,15.3,3.9,21.4c0,0,2,13.3,4.7,24.2c0,0,7.9,29.6,7.1,35.9c0,0,0.8,12.8,2.4,18.7C379.5,411.2,378.3,415.3,381.4,417.9z"
				/>
			<path class="st7" d="M360.4,307.9c0,0-1.7-7.4,3.3-13.9c0,0,6.6-4.9,14.5,1.2c0,0,4,3.8,4.3,7.7c0,0,0.3,4.7,0.5,7.6l0.5,4.5
				c0,0,1.5-9.6,2.8-10.3c0,0,2.6-6.3,1.7-8.4c0,0-0.6-0.3-0.9-2.1c0,0-0.1-1.3-2-4.4c0,0-0.4-5.3-2.2-7.4c0,0-2.4-1.8-2.7-10.4
				c0,0,0.4-7.7,1.1-9.6l1.1-4.9l1.7-7.1c0,0,0.7-2,0.6-2.5s0-0.1,0-0.1s0.7-2,2-2.7c0,0,15.4-5.4,10.3-29.1c0,0-0.6-4.2-6.3-10.6
				c0,0-3.6-5.4-7.6-3.7l-0.3-0.7c0,0,7.7,20.4-4.7,28.4c0,0-10.1,6.7-17.2-5.1c0,0-2-2.8-3.1-8l-0.3-4c0,0-2.6,5.1-3.5,11
				c0,0-0.6,8.4-1.1,9.1c0,0-2.4,14.2-2.2,20.8c0,0-0.5,12.9-1,14.2c0,0-7.8,31.1,4.1,37.4C353.7,304.6,357.9,307.5,360.4,307.9z"/>
			<path class="st4" d="M387.4,201.7c0,0-1.6-1.1-2.2-4.2l-1-4.2c0,0-2-7.6-2-13.1c0,0,0.1-3.9-0.4-7.3l-0.6-8
				c0,0-1.6-21.6-0.8-26.8c0,0,3.8-23.9,3.5-27.9c0,0,0.6-10.9-1-18.2c0,0-2.5-27.8-3.8-31.5c0,0-3.6-10.2,3-15.8
				c0,0,3.5-2.7,0.7-5.5c0,0-1.7-1.8-2.7-1.9c0,0-9.7-5.7-11.9-16.7l-0.5-4.3c0,0,0.1-2.3-0.9-3.1c0,0-0.6-0.5-1.7,0.1
				c0,0-0.5,0.2-0.6,1.4c0,0-0.2,1.4-0.4,1.5c0,0-3.7,7.2-0.9,19.1c0,0,3.1,19.2,2.9,20.4c0,0,1.3,13.8-0.1,17.5
				c-1.3,3.7-6.1,33.1-4.7,55.4c0,0-1,12.9-0.4,17.8c0,0-0.6,10.9-1.7,12c0,0-6.7,32.1-6.1,45.2c0,0,2.6,9.6,2,10.8l-1.2,5.8
				c0,0,1.5-5,3.1-7.2c0,0-0.6,11.8,10.5,17.8c0,0,9.1,3.8,15.4-2.2c0,0,9-4.7,4.9-21.3c0,0-0.1-1-1.3-5.1L387.4,201.7z"/>
			<path class="st3" d="M384,310.6c0,0,14.1-4.1,14.5-1.3c0,0-0.8,7.2,5,6.4c0,0,12.9-1.9,3.8,17.3c0,0-5.3,7.9-19,2.8
				c0,0-4-1.4-4.1-3l-0.4-9.3l-0.5-8.9L384,310.6z"/>
			<path class="st6" d="M407.3,333.1c0,0,2.2,4.4,5.8-0.7c0,0,14-20.6,2.4-32.3l-5.2-3.3c0,0,11.8,2.8,8.7-8.8c0,0-0.4-7.1-6-6.8
				c0,0-10.1-8.8-15.2,1.2c0,0-3.8,10.1,3.7,11.7c0,0-5.4-0.5-10.4,3.2c0,0-2.1,1.8-2.6,0.4l-0.2-0.2c0,0-3.7,11.6-4.1,13.2
				c0,0,7.6-2.2,11.2-2.2c0,0,2.2-0.2,3,0.5c0,0,0.2,0.1,0.2,0.4v0.3c0,0-0.6,5.8,3.7,6.2c0,0,0.5,0.1,0.8,0c0,0,5.3-0.8,7,2.9
				c0,0,1.5,2.4-0.1,7.9C409.8,326.6,408.1,331.7,407.3,333.1z"/>
		</g>
	</g>
</g>
</svg>
