<?xml version="1.0" encoding="utf-8"?>
<!-- Generator: Adobe Illustrator 27.0.0, SVG Export Plug-In . SVG Version: 6.00 Build 0)  -->
<svg version="1.1" id="Capa_1" xmlns="http://www.w3.org/2000/svg" xmlns:xlink="http://www.w3.org/1999/xlink" x="0px" y="0px"
	 viewBox="0 0 1080 1080" style="enable-background:new 0 0 1080 1080;" xml:space="preserve">
<style type="text/css">
	.st0{stroke:#000000;stroke-miterlimit:10;}
	.st1{display:none;fill:#9F2A16;}
	.st2{opacity:0.3;}
	.st3{opacity:0.55;fill:#757373;enable-background:new    ;}
	.st4{opacity:0.55;fill:#D1D1D1;enable-background:new    ;}
	.st5{opacity:0.55;fill:#C9C9C9;enable-background:new    ;}
	.st6{opacity:0.55;fill:#BCBAB8;enable-background:new    ;}
	.st7{opacity:0.55;fill:#FFFFFF;enable-background:new    ;}
	.st8{fill:#757373;}
	.st9{fill:#BCBAB8;}
	.st10{fill:#FFFFFF;}
	.st11{opacity:0.95;fill:#C9C9C9;enable-background:new    ;}
	.st12{fill:none;}
	.st13{opacity:0.95;fill:#FFFFFF;enable-background:new    ;}
	.st14{opacity:0.95;fill:#BCBAB8;enable-background:new    ;}
	.st15{opacity:0.95;fill:#757373;enable-background:new    ;}
	.st16{opacity:0.95;}
	.st17{fill:#CE6EE5;}
</style>
<rect x="-46.7" y="-51.1" class="st0" width="1296.1" height="1221.6"/>
<g id="Layer_2">
	<g id="Capa_2_00000041977206964686540760000001219414656090201534_">
		<rect x="-128.2" y="-81.1" class="st1" width="1225.2" height="1178.7"/>
		<g id="Layer_2_00000039848558054319574080000012636106134738269601_">
			<g id="Capa_2_00000062887469379198654940000000648648411311178920_">
				<g class="st2">
					<g>
						<path class="st3" d="M634.6,617.3c0,0,7.2,4.1-0.2,19c0,0-0.7,3.6-5.5,6c0,0,6-3.1,7.8,4c0,0,2.6,12.2-10.7,10.7
							c0,0-13.4,1.4-10.3-9.7l4-3.3c0,0-8.4,6.1-12.2,3.1c0,0,0-1.3,0.8-2.1c0,0,7.2-3.6,9.4-9.6c0,0,5.3-10.4,12-14.8
							C629.5,620.6,633.7,617.6,634.6,617.3z"/>
						<path class="st4" d="M596.3,654.7c0,0,6.4-8.3,11.1-7.6l2.1-5l-16.9,1.1L596.3,654.7z"/>
						<path class="st5" d="M622.6,603.8c-5.3-4.4-10-4.7-10-4.7c-0.2-0.2-0.5-0.3-0.7-0.4c-1.3-0.3-2.6-0.6-3.9-0.6
							c-3.2-0.2-6.2,0.7-9.1,1.8c-1.6,3-8.5,6.2-8.5,6.2l-4.7,3.3c-8.1,6.1-1.4,15.6-1.4,15.6s0.5,4.9-2.9,7.4l22.6-15.7
							c0,0,9.4-0.3,19-11.8C622.9,604.8,623.7,604.3,622.6,603.8z"/>
						<path class="st6" d="M479.5,677.2c0,0-3.9-10-0.3-27.6c0,0,1-4.9-0.2-10.8c0,0-13.6-33.1-11.5-45.4c0,0,0.8-5.4-8.5-4.6
							c0,0-39.1-1.4-61.7-34.2c0,0-8.3-7.7-11.2-5.6c0,0-7.5,3.2-8-3.2c0,0-0.3-13.8-4.3-14.9l-5.9-8.5c0,0-15.2-9.9,1.1-9.9
							c0,0,26.4,8,33.5,18.6c0,0,35.1,24.2,70.5,27.7c0,0,10.9,0.8,10.9-0.8c0,0,5.9-2.9,8.8,5.6c0,0,20.2,53,20,59.9
							c0,0,4,4.1,2.9,14.9c0,0,1.7,9.1,3.4,9.4c1.7,0.2,0,0,0,0l-4.5,1.5c0,0-2.7,3.1-4,10.4c-1.3,7.3,0,0,0,0s-2.1,12.4-2.3,16.1
							c-0.2,3.7,0,0,0,0l-0.3,4.2c0,0,0,1,0,1.2c-0.1,0.2,0,0,0,0s0.6,1.8-1.3,3.7c0,0-3.5,3.8-11.9,6.8
							C494.9,691.7,482.7,687.5,479.5,677.2z"/>
						<path class="st7" d="M574.6,633.3l-4.3-1.7c-12.2-3.6-14.9,3.6-14.9,3.6l-11.1,10.6c-10.5,9.1-16.9,8.7-16.9,8.7
							c-4.7,0.4-8.5-6.8-8.5-6.8l-4.5,1.5c-5.3,6-6.6,31.9-6.6,31.9c1.5,5.1-13,10.4-13,10.4c1.3,0.4,10.2-1.7,10.2-1.7
							c8.3-3,25.6-6.8,25.6-6.8c6.4-3,17.3-1.7,17.3-1.7c7.3,0,15.4-1.5,15.4-1.5c9-0.9,22.3-5.9,22.3-5.9
							c10.1-3.4,11.2-22.3,11.2-22.3l-0.1-0.4c0,0-5.8,5.2-9,11.1c0,0-2.8,6.9-12,5.8c0,0-5.8-0.4-12.1-3.9c0,0-3.8-0.4-4.7-6.3
							c0,0-1.6-8.8-0.2-14.1c0,0-1.4-8,7.2-7.7c0,0,2.1-0.1,2.2-0.4c0,0,2.4-0.2,2.5,1.7c0,0,0.1,2.7-1.9,5.9c0,0-0.3,0.5-0.4,1.3
							c0,0-0.4,2.2-0.1,1.5c0,0,0.9-2.3,0.9-2.6c0,0,1-1.7,1.7-2.2c0,0,5.2-5.1,6.5-5.7l0.8-0.6L574.6,633.3z"/>
						<path class="st6" d="M677,559.8c0,0-6.9,15.5-17.2,17.2c0,0-23.6,5.7-35.1,25.8c0,0-8.6,12.1-20.1,13.2
							c0,0-33.9,21.8-35.6,27.6c-1.7,5.7-0.6,0-0.6,0s6.4-9.8-2.4-8c0,0-8.4-0.5-7.6,7.8c0,0-2.4,18.2,4.4,20.9c0,0,17.7,9.6,24.2,0
							c0,0,6.4-11.6,14.9-16.4c0,0,12.9-3.5,16.9-13.3c0,0,4.9-10.4,14-16.2c0,0,13.7-8.2,18.9-12.2c0,0,15.7-11.5,19.5-20.6
							c0,0,4-5.6,5.3-5.8s0,0.9,0,0.9L677,559.8z"/>
					</g>
					<path class="st3" d="M634.1,615.6c0,0,7.2,4.1-0.2,19c0,0-0.7,3.6-5.5,6c0,0,6-3.1,7.8,4c0,0,2.6,12.2-10.7,10.7
						c0,0-13.4,1.4-10.3-9.7l4-3.3c0,0-8.4,6.1-12.2,3.1c0,0,0-1.3,0.8-2.1c0,0,7.2-3.6,9.4-9.6c0,0,5.3-10.4,12-14.8
						C629,618.9,633.1,615.9,634.1,615.6z"/>
					<path class="st4" d="M595.8,653.1c0,0,6.4-8.3,11.1-7.6l2.1-5l-16.9,1.1L595.8,653.1z"/>
					<path class="st5" d="M622.1,602.1c-5.3-4.4-10-4.7-10-4.7c-0.2-0.2-0.5-0.3-0.7-0.4c-1.3-0.3-2.6-0.6-3.9-0.6
						c-3.2-0.2-6.2,0.7-9.1,1.8c-1.6,3-8.5,6.2-8.5,6.2l-4.7,3.3c-8.1,6.1-1.4,15.6-1.4,15.6s0.5,4.9-2.9,7.4l22.6-15.7
						c0,0,9.4-0.3,19-11.8C622.4,603.1,623.2,602.6,622.1,602.1z"/>
					<path class="st6" d="M479,675.5c0,0-3.9-10-0.3-27.6c0,0,1-4.9-0.2-10.8c0,0-13.6-33.1-11.5-45.4c0,0,0.8-5.4-8.5-4.6
						c0,0-39.1-1.4-61.7-34.2c0,0-8.3-7.7-11.2-5.6c0,0-7.5,3.2-8-3.2c0,0-0.3-13.8-4.3-14.9l-5.9-8.5c0,0-15.2-9.9,1.1-9.9
						c0,0,26.4,8,33.5,18.6c0,0,35.1,24.2,70.5,27.7c0,0,10.9,0.8,10.9-0.8c0,0,5.9-2.9,8.8,5.6c0,0,20.2,53,20,59.9
						c0,0,4,4.1,2.9,14.9c0,0,1.7,9.1,3.4,9.4c1.7,0.2,0,0,0,0l-4.5,1.5c0,0-2.7,3.1-4,10.4c-1.3,7.3,0,0,0,0s-2.1,12.4-2.3,16.1
						c-0.2,3.7,0,0,0,0l-0.3,4.2c0,0,0,1,0,1.2c-0.1,0.2,0,0,0,0s0.6,1.8-1.3,3.7c0,0-3.5,3.8-11.9,6.8
						C494.4,690,482.1,685.8,479,675.5z"/>
					<path class="st7" d="M574,631.6l-4.3-1.7c-12.2-3.6-14.9,3.6-14.9,3.6l-11,10.7c-10.5,9.1-16.9,8.7-16.9,8.7
						c-4.7,0.4-8.5-6.8-8.5-6.8l-4.5,1.5c-5.3,6-6.6,31.9-6.6,31.9c1.5,5.1-13,10.4-13,10.4c1.3,0.4,10.2-1.7,10.2-1.7
						c8.3-3,25.6-6.8,25.6-6.8c6.4-3,17.3-1.7,17.3-1.7c7.3,0,15.4-1.5,15.4-1.5c9-0.9,22.3-5.9,22.3-5.9
						c10.1-3.4,11.2-22.3,11.2-22.3l-0.1-0.4c0,0-5.8,5.2-9,11.1c0,0-2.8,6.9-12,5.8c0,0-5.8-0.4-12.1-3.9c0,0-3.8-0.4-4.7-6.3
						c0,0-1.6-8.8-0.2-14.1c0,0-1.4-8,7.2-7.7c0,0,2.1-0.1,2.2-0.4c0,0,2.4-0.2,2.5,1.7c0,0,0.1,2.7-1.9,5.9c0,0-0.3,0.5-0.4,1.3
						c0,0-0.4,2.2-0.1,1.5c0,0,0.9-2.3,0.9-2.6c0,0,1-1.7,1.7-2.2c0,0,5.2-5.1,6.5-5.7l0.8-0.6L574,631.6z"/>
					<path class="st6" d="M676.5,558.1c0,0-6.9,15.5-17.2,17.2c0,0-23.6,5.7-35.1,25.8c0,0-8.6,12.1-20.1,13.2
						c0,0-33.9,21.8-35.6,27.6c-1.7,5.7-0.6,0-0.6,0s6.4-9.8-2.4-8c0,0-8.4-0.5-7.6,7.8c0,0-2.4,18.2,4.4,20.9c0,0,17.7,9.6,24.2,0
						c0,0,6.4-11.6,14.9-16.4c0,0,12.9-3.5,16.9-13.3c0,0,4.9-10.4,14-16.2c0,0,13.7-8.2,18.9-12.2c0,0,15.7-11.5,19.5-20.6
						c0,0,4-5.6,5.3-5.8s0,0.9,0,0.9L676.5,558.1z"/>
				</g>
				<g>
					<path class="st8" d="M647,698.2c0,0-3.7,18-28.2,9.9l-1.9-0.6c0,0-4.3,13.3-15.8,4.7c0,0-16.1-18.3,5.9-18.3
						c0,0,3.1,0.3,3.1-1.9c0,0-1.3-17.2,1.8-19.9L647,698.2z"/>
					<path class="st9" d="M564,600.9c0,0-25.2-20-10.1-34.1c0,0,16.8-13.1,25.2-13.9c0,0,5.5-4.6,6.7-8.1c0,0,20-24.2,27.5-25.2
						c0,0,0.8-4.6-4.6-9.3c0,0-21.4-12.7-26.4-56.1c0,0-1-5.9-7.7-9.9c0,0-11.3-10.9,1-14.1c0,0,13.9-3,14.7-5.4
						c0,0,18.2-10.7,23.8-5.4c0,0,6.3,2.6-2.6,9.3c0,0-17.4,6.7-15.1,14.9c0,0-1.4,9.5,9.7,19c0,0,33.7,41.8,33.1,53.5
						c0,0,2,8.7-5.9,21c0,0-22.6,29.1-37.7,38.1c0,0-7.7,5-5.7,11.1L564,600.9z"/>
					<path class="st10" d="M603.5,662.1c-12-0.3-19.9-17.4-19.9-17.4c-4.3-11.8-20.1-40-20.1-40c-2.1-3,2.4-5.9,2.4-5.9
						c3.8-3.5,12.9-7,12.9-7c6.7-0.5,9.9-12.1,9.9-12.1l3.2,18c0,8.9,11,11.3,11,11.3s12,3,17.1,10.3s0,0,0,0"/>
					<path class="st9" d="M630.6,666.4c0,0,5.1-7.9,12.7-4.6c0,0,4.6,3.1,5.3,8.4c0,0,1.9,7.9,3.4,9.9c0,0,3.6,12-1.7,15.6
						c0,0-4.1,7-14.9,1.4c0,0-3.8-6.3-10.6-8.9c0,0-4.6,0.2-5.8-6.3c0,0,0-2.6-4.3-2.2c0,0-2.6-3.1-3.6-6.7c0,0,0.2-6.5-1.4-8.4
						c0,0-1.3-2.4,3.1-4.5c0,0,8.2-3.2,9.8-4.9c0.1-0.1,0.2-0.2,0.2-0.3C623.7,653.5,630.5,662.7,630.6,666.4z"/>
					<path class="st9" d="M679.7,571.9l-0.3-19.7c0,0-9.6,15.2-12.5,14.3c0,0-23.3,14.3-26.9,32.9c0,0-3,7.7-8.6,9.1
						c-0.3,0.2-0.6,0.3-0.8,0.5c-0.2,0.1-0.4,0.3-0.6,0.4c-3.8,3.5-20.4,19.4-24.9,31.3c0,0-3,1.5-2.1-4.2c0,0-0.6-6.6-6.3-0.6
						c0,0-6.3,12.5,6.9,26.3c0,0,21.5-0.3,23-16.1c0,0,17.9-15.8,18.5-28.1c0-0.5,0-0.9,0.1-1.3c1.3-1.3,28.6-29.7,29.5-37
						L679.7,571.9z"/>
					<path class="st10" d="M603.5,662.1c0,0,13.1,1.3,20-6.9c0,0,3.1-4.1,1.1-3.8c-2,0.4-18.5,12.8-22.8,8.5c0,0-1.2-0.9-1.7-1.6
						s-0.5-0.7-0.5-0.7l2.6,4L603.5,662.1z"/>
				</g>
				<g class="st2">
					<path class="st11" d="M571,510.4c0,0,2.9,9.2,2.1,12.8c0,0,1.7,1.7,2.9,1.7c0,0,2.7,0.4,2.5,4.4c0,0-2.3,5.7,3,9.1
						c0,0,1.9,1.9,0.8,6.9c0,0-0.8,10.7,9.5,13c0,0,7.6,3.2,14.3-10.3c0,0,2.3-1.5,1.7-5l-0.8-8c0,0,0.2-9.7-1.1-10.5
						c0,0-3.4-6.3-9.1-3.4c0,0-4.6-0.3-5.9-2.3c0,0-2.4-1.7-2.2-2.7V516c0,0-0.7-0.5-1-0.6c0,0-10-9.3-11-10.4
						C576.5,505.1,577.9,506,571,510.4z"/>
					<path class="st9" d="M601.2,228.8c-0.3-1.4-0.6-2.7-0.9-4c-0.7-1.6-1.5-2.1-2.4-2c-0.1,0.1-0.3,0.2-0.4,0.3
						c-0.1,0.1-0.2,0.2-0.4,0.3c0,0-0.1,0.1-0.2,0.2c-0.2,0.2-0.4,0.5-0.6,0.7c-0.2,0.3-0.4,0.6-0.6,0.9l0,0l-0.1,0.1
						c-0.1,0.1-0.2,0.3-0.3,0.4c-0.7,1.3-1.3,2.7-1.9,4c-1.1,2.4-2.2,4.8-3.9,6.8c-1.2,1.6-3,3.1-4.7,4.4c-0.2,0.5-0.5,0.8-1,1
						c-0.4,0.2-0.9,0.4-1.4,0.5c-0.5,0.3-0.9,0.6-1.4,0.8c-0.3,0.3-0.6,0.5-1,0.8c-0.7,0.5-1.6,1-2.5,1.1c-0.1,0-0.1,0.1-0.1,0.1
						s-1.7,0-3.5,0.3c-0.1,0-0.1,0.1-0.2,0.1c-0.2,0.2-0.5,0.3-0.7,0.5c-0.1,0.1-0.1,0.1-0.2,0.2c0,0-0.1,0.1-0.2,0.2
						c-0.2,0.2-0.3,0.4-0.5,0.6l0,0c0,0.1-0.1,0.2-0.1,0.3c-0.1,0.1-0.1,0.3-0.2,0.5v0.1c0,0.2-0.1,0.3-0.1,0.5v0.2
						c0,0.2,0,0.5,0,0.7c0,0.1,0,0.2,0,0.4c0,0.1,0,0.2,0,0.2v0.1c2.3,2.3,2.7,4.9,2.5,6.7c0,0.4,0,0.9-0.2,1.2c0,0,0,0,0,0.1
						c-0.2,0.8-0.5,1.4-0.5,1.4l0,0c-0.5,1.4-0.9,2.8-1.6,4.2c-1,2.1-2.6,4-3.9,5.9c-1.2,1.7-2.5,3.4-3.6,5.2c-1,1.6-1.8,3.3-2.7,5
						c-1.8,4.2-4,8.2-6.5,12c-0.2,0.3-0.3,0.5-0.5,0.8c-0.1,0.3-0.2,0.6-0.4,0.8c-0.2,0.3-0.4,0.5-0.6,0.8c0,0,0,0.1-0.1,0.1
						c-0.1,0.1-0.1,0.2-0.2,0.3c-0.2,0.3-0.3,0.7-0.5,1c0,0.1,0,0.2-0.1,0.3c-1.1,2.7-2.1,5.3-2.8,8.1c-0.2,0.9-0.3,1.8-0.4,2.7
						c-0.1,0.9-0.3,1.8-0.4,2.7c-0.1,0.8-0.1,1.7-0.2,2.5c0,0.2,0,0.3,0,0.5c0.3,1.8-0.6,7.5-1.1,10.1c0,0.7,0,1.4-0.1,2.1
						c1.3,5.4,0.3,16.6,0.3,16.6c-13.8,25.3-7.1,37.7-7.1,37.7c-2.2,18.2-4.4,20.4-4.4,20.4c-16,10.2-1.3,36.4-1.3,36.4
						c-0.4-2.7,1.8-4.4,1.8-4.4c4.4-9.8,34.2,0,34.2,0c3.9-1.2,3.7-34.5,3.2-55.7c-1.1-5.9-1.8-11.8-2.3-17.8
						c-0.3-3.4-0.7-7-0.3-10.3c0-0.3,0.1-0.5,0.2-0.8c0.1-0.5,0.1-0.9,0.2-1.4c0.2-0.8,0.5-1.6,0.9-2.3c0.1-0.1,0.2-0.3,0.3-0.4
						c0-0.1,0-0.1,0-0.1c3.1-3.6,4.4-22.6,4.4-22.6l0.2-0.6c0-0.4,0-0.9,0-1.3c-0.3-3.1-0.1-6.1,0.6-9.1c0.6-3.6,1.7-7.2,3-10.6
						c2.2-8.6,6.1-16.7,7.9-25.4c0.1-1.1,0.2-2.2,0.4-3.3c0.4-2.7,1.7-5,2.9-7.4c1.1-2.3,2.3-4.6,3.6-6.8c0.1-0.7,0.4-1.5,0.8-2.2
						c0.4-0.7,0.8-1.3,1.3-2c0.6-2.2,1.3-4.4,1.7-6.6c0.7-3.8,1-7.7,1-11.6c0-0.5,0.2-1,0.4-1.4
						C601.6,230.6,601.4,229.7,601.2,228.8z"/>
					<path class="st12" d="M571.2,431.2c0,0-30.5-10.4-34.2,0c0,0-2.2,1.5-1.8,4.4c0,0-4.3,57.2,31.6,72.3"/>
					<path class="st13" d="M535.3,435.6c0,0-4.1,54.4,25.9,69.4l7.8,3.7l2,1.7c0,0,7-4.3,5.5-5.6c0,0-6.3-3.9-9.8-3.8
						c0,0-16.1-6.4-7.1-22c0,0,9.6-8.4,19.2-6.2c0,0,1.4,0.3,2,1.7c0,0,3.4,3.1,1.6,5.4c0,0-0.7,1.2-2.6,0.6c0,0-1.2-0.7-2.2-0.7
						c0,0-3-0.5-3.4-0.2c0,0-1.7,0.9-0.4,2c0,0,8,3.5,10.2,5.8c0,0,7.1,5.1,7.7,6l3,2.3l1.3,1c0,0,1.6-2.5,0.7-6.7
						c0,0-2.8-9.1-9.4-17l-7.4-8.6c0,0-8.9-9.7-7.6-22.5c0,0,0.7-1.1,0.2-5c0,0-1-1.8-0.1-5.1c0,0-0.8-0.5-1.1-0.5
						c0,0-20.1-7.6-31.2-2.9C539.8,428.3,534.3,432.1,535.3,435.6z"/>
					<path class="st14" d="M667.9,548.7l0.1-0.4c0,0,6.4-0.8,7.3,4.2l-1.1,14.5c0,0-4.2-7.5-11.4-10.3c0,0-8.4-5-12.6-5.3
						c0,0-15.6-2-30.4-17c0,0-6.1-7.3-9.8-8.6c-0.6-0.4-1.2-0.6-1.9-0.7c-0.5-0.3-1-0.6-1.5-0.8c-1.5-0.8-3.2-1.1-4.8-1.8
						c-0.1,0-0.2,0-0.2-0.1c-3.3-1.5-7.1-3.2-9.7-3.9c-0.2-0.2-0.4-0.3-0.7-0.4c-0.2-0.1-0.4-0.2-0.6-0.3c-0.4-0.3-0.7-0.5-1-0.8
						c-0.5-0.4-1-0.9-1.5-1.2c-0.2-0.1-0.3-0.2-0.5-0.2c-3.7-3.4-9.8-9.1-11.1-10.7c0,0-4.9-3-9.8-3.8c0,0-16.2-6-7.1-22
						c0,0,7.4-7.7,17.6-6.6c0,0,2.5,0.1,3.2,1.6c0,0,0.7,0.9,0.9,0.9c0,0,2,2.1,1.6,3.9c0,0-0.2,1.8-2.1,1.9c0,0-0.8,0-1.4-0.3
						c0,0-1.1-0.6-2.4-0.6l-1.7-0.2c0,0-1.3-0.4-1.9,0.7c0,0-0.5,0.6,0.2,1.2c0,0,0,0.2,0.5,0.3c0,0,7.7,3.3,9.7,5.5
						c0,0,7.4,5.4,7.6,6l4.5,3.4c0,0,8.7,6.5,10.9,9.1c0,0,3,3.4,3.4,4.3c0,0,3.5,4.4,8.5,6.4c0,0,12.1,4.5,15.6,7.3
						c0,0,20.9,12.1,26.9,20.2C661.1,544,664.2,547.1,667.9,548.7z"/>
					<path class="st15" d="M595.2,558.6c0,0-4.6,6.6-14.3,4.2c0,0-12.1-3.3-15.6-13.3c0,0-9.6,9.5-13,0.2c0,0-7.5-4.9-1.7-13.1
						c0,0,7.4-10.7,13.6-1.9l2,1.2c0,0-0.4-3,2.2-5.2c0,0,5.1-5.1,4.6-7.5c0,0,1.8,1.7,2.9,1.7c0,0,2.8,0.4,2.5,4.4
						c0,0-2.2,5.5,3,9.1c0,0,1.6,1.3,1,5.8c0,0-0.8,5.5,2.4,9.8c0,0,2.5,3.5,6.8,4.2l0.6,0.2C592.2,558.5,593.9,558.8,595.2,558.6
						L595.2,558.6L595.2,558.6z"/>
				</g>
			</g>
			<g class="st16">
				<path class="st8" d="M647.6,699.9c0,0-3.7,18-28.2,9.9l-1.9-0.6c0,0-4.3,13.3-15.8,4.7c0,0-16.1-18.3,5.9-18.3
					c0,0,3.1,0.3,3.1-1.9c0,0-1.3-17.2,1.8-19.9L647.6,699.9z"/>
				<path class="st9" d="M564.6,602.6c0,0-25.2-20-10.1-34.1c0,0,16.8-13.1,25.2-13.9c0,0,5.5-4.6,6.7-8.1c0,0,20-24.2,27.5-25.2
					c0,0,0.8-4.6-4.6-9.3c0,0-21.4-12.7-26.4-56.1c0,0-1-5.9-7.7-9.9c0,0-11.3-10.9,1-14.1c0,0,13.9-3,14.7-5.4
					c0,0,18.2-10.7,23.8-5.4c0,0,6.3,2.6-2.6,9.3c0,0-17.4,6.7-15.1,14.9c0,0-1.4,9.5,9.7,19c0,0,33.7,41.8,33.1,53.5
					c0,0,2,8.7-5.9,21c0,0-22.6,29.1-37.7,38.1c0,0-7.7,5-5.7,11.1L564.6,602.6z"/>
				<path class="st17" d="M604.1,663.8c-12-0.3-19.9-17.4-19.9-17.4c-4.3-11.8-20.1-40-20.1-40c-2.1-3,2.4-5.9,2.4-5.9
					c3.8-3.5,12.9-7,12.9-7c6.7-0.5,9.9-12.1,9.9-12.1l3.2,18c0,8.9,11,11.3,11,11.3s12,3,17.1,10.3s0,0,0,0"/>
				<path class="st9" d="M631.1,668.1c0,0,5.1-7.9,12.7-4.6c0,0,4.6,3.1,5.3,8.4c0,0,1.9,7.9,3.4,9.9c0,0,3.6,12-1.7,15.6
					c0,0-4.1,7-14.9,1.4c0,0-3.8-6.3-10.6-8.9c0,0-4.6,0.2-5.8-6.3c0,0,0-2.6-4.3-2.2c0,0-2.6-3.1-3.6-6.7c0,0,0.2-6.5-1.4-8.4
					c0,0-1.3-2.4,3.1-4.5c0,0,8.2-3.2,9.8-4.9c0.1-0.1,0.2-0.2,0.2-0.3C624.3,655.2,631,664.4,631.1,668.1z"/>
				<path class="st9" d="M680.3,573.6l-0.3-19.7c0,0-9.6,15.2-12.5,14.3c0,0-23.3,14.3-26.9,32.9c0,0-3,7.7-8.6,9.1
					c-0.3,0.2-0.6,0.3-0.8,0.5c-0.2,0.1-0.4,0.3-0.6,0.4c-3.8,3.5-20.4,19.4-24.9,31.3c0,0-3,1.5-2.1-4.2c0,0-0.6-6.6-6.3-0.6
					c0,0-6.3,12.5,6.9,26.3c0,0,21.5-0.3,23-16.1c0,0,17.9-15.8,18.5-28.1c0-0.5,0-0.9,0.1-1.3c1.3-1.3,28.6-29.7,29.5-37
					L680.3,573.6z"/>
				<path class="st17" d="M604.1,663.8c0,0,13.1,1.3,20-6.9c0,0,3.1-4.1,1.1-3.8c-2,0.4-18.5,12.8-22.8,8.5c0,0-1.2-0.9-1.7-1.6
					c-0.5-0.7-0.5-0.7-0.5-0.7l2.6,4L604.1,663.8z"/>
			</g>
		</g>
		<path class="st10" d="M401.8,424.4c-0.2-0.2-0.4-0.5-0.7-0.7c-1.5-1.4-3.2-2.2-5-2.5c-1.9-0.4-3.8-0.6-5.7-0.5
			c-1.8,0.1-3.6,0.4-5.2,1.4c-0.7,0.5-1.3,1.1-1.8,1.8c-0.2,0.2-0.3,0.5-0.5,0.7c0,1.1,0,2.2,0,3.6v97c0,0,0,49.5,0,74.2v17.1
			c0,9.2,0,18.4,0,27.6l0,0v107.1l0.1,83.2l0.1,22.2c-0.2,5.6,0.1,184.1-0.7,189.7c-0.3,2,1,3,4.8,2.8c2.3-0.1,4.5,0,6.8-0.1
			c8.5,0,7.8,0.4,7.8-4.4C401.8,892.1,401.8,614.2,401.8,424.4L401.8,424.4z"/>
		<path class="st10" d="M692.7,548c-0.4-0.4-0.9-0.7-1.4-1c-1.8-0.9-3.9-1.3-5.9-1.4c-2.1-0.2-4.2,0-6.3,0.5
			c-1.7,0.5-3.5,1.3-4.8,2.9c0,0.7,0,1.3,0,2v77.9c0,0,0,39.7,0,59.6v13.7c0,7.4,0,14.8,0,22.1l0,0v86l0.1,66.8l0.1,17.9
			c-0.2,4.5,0.1,147.8-0.7,152.3c-0.3,1.6,1,2.4,4.7,2.3c2.2-0.1,4.4,0,6.7,0c8.2,0,7.6,0.3,7.6-3.6
			C692.7,923.4,692.7,700.5,692.7,548L692.7,548z"/>
	</g>
</g>
</svg>
